<mxfile host="65bd71144e">
    <diagram id="s-_dT-Tdk48QpFE1Pw8W" name="Page-1">
        <mxGraphModel dx="1586" dy="1789" grid="1" gridSize="10" guides="1" tooltips="1" connect="1" arrows="1" fold="1" page="1" pageScale="1" pageWidth="850" pageHeight="1100" math="0" shadow="0">
            <root>
                <mxCell id="0"/>
                <mxCell id="1" parent="0"/>
                <mxCell id="8" style="edgeStyle=none;html=1;entryX=0.932;entryY=-0.011;entryDx=0;entryDy=0;entryPerimeter=0;exitX=0;exitY=0.5;exitDx=0;exitDy=0;" parent="1" source="12" target="7" edge="1">
                    <mxGeometry relative="1" as="geometry"/>
                </mxCell>
                <mxCell id="9" style="edgeStyle=none;html=1;entryX=0.5;entryY=0;entryDx=0;entryDy=0;" parent="1" source="2" target="3" edge="1">
                    <mxGeometry relative="1" as="geometry"/>
                </mxCell>
                <mxCell id="10" style="edgeStyle=none;html=1;entryX=0.5;entryY=0;entryDx=0;entryDy=0;" parent="1" source="2" target="6" edge="1">
                    <mxGeometry relative="1" as="geometry"/>
                </mxCell>
                <mxCell id="11" style="edgeStyle=none;html=1;entryX=0.5;entryY=0;entryDx=0;entryDy=0;" parent="1" source="2" target="5" edge="1">
                    <mxGeometry relative="1" as="geometry"/>
                </mxCell>
                <mxCell id="2" value="&lt;div style=&quot;color: rgb(204, 204, 204); background-color: rgb(31, 31, 31); font-family: &amp;quot;Cascadia code PL&amp;quot;, Menlo, Monaco, &amp;quot;Courier New&amp;quot;, monospace, Consolas, &amp;quot;Courier New&amp;quot;, monospace; font-size: 15px; line-height: 20px;&quot;&gt;&lt;span style=&quot;color: #808080;&quot;&gt;&amp;lt;&lt;/span&gt;&lt;span style=&quot;color: #4ec9b0;&quot;&gt;TodoList&lt;/span&gt; &lt;span style=&quot;color: #808080;&quot;&gt;/&amp;gt;&lt;/span&gt;&lt;/div&gt;" style="rounded=0;whiteSpace=wrap;html=1;" parent="1" vertex="1">
                    <mxGeometry x="200" width="120" height="60" as="geometry"/>
                </mxCell>
                <mxCell id="3" value="&lt;div style=&quot;color: rgb(204, 204, 204); background-color: rgb(31, 31, 31); font-family: &amp;quot;Cascadia code PL&amp;quot;, Menlo, Monaco, &amp;quot;Courier New&amp;quot;, monospace, Consolas, &amp;quot;Courier New&amp;quot;, monospace; font-size: 15px; line-height: 20px;&quot;&gt;&lt;div style=&quot;line-height: 20px;&quot;&gt;&lt;span style=&quot;color: #808080;&quot;&gt;&amp;lt;&lt;/span&gt;&lt;span style=&quot;color: #4ec9b0;&quot;&gt;OneTodo /&amp;gt;&lt;/span&gt;&lt;/div&gt;&lt;/div&gt;" style="rounded=0;whiteSpace=wrap;html=1;" parent="1" vertex="1">
                    <mxGeometry x="40" y="160" width="120" height="60" as="geometry"/>
                </mxCell>
                <mxCell id="5" value="&lt;div style=&quot;color: rgb(204, 204, 204); background-color: rgb(31, 31, 31); font-family: &amp;quot;Cascadia code PL&amp;quot;, Menlo, Monaco, &amp;quot;Courier New&amp;quot;, monospace, Consolas, &amp;quot;Courier New&amp;quot;, monospace; font-size: 15px; line-height: 20px;&quot;&gt;&lt;div style=&quot;line-height: 20px;&quot;&gt;&lt;span style=&quot;color: #808080;&quot;&gt;&amp;lt;&lt;/span&gt;&lt;span style=&quot;color: #4ec9b0;&quot;&gt;OneTodo /&amp;gt;&lt;/span&gt;&lt;/div&gt;&lt;/div&gt;" style="rounded=0;whiteSpace=wrap;html=1;" parent="1" vertex="1">
                    <mxGeometry x="365" y="160" width="120" height="60" as="geometry"/>
                </mxCell>
                <mxCell id="6" value="&lt;div style=&quot;color: rgb(204, 204, 204); background-color: rgb(31, 31, 31); font-family: &amp;quot;Cascadia code PL&amp;quot;, Menlo, Monaco, &amp;quot;Courier New&amp;quot;, monospace, Consolas, &amp;quot;Courier New&amp;quot;, monospace; font-size: 15px; line-height: 20px;&quot;&gt;&lt;div style=&quot;line-height: 20px;&quot;&gt;&lt;span style=&quot;color: #808080;&quot;&gt;&amp;lt;&lt;/span&gt;&lt;span style=&quot;color: #4ec9b0;&quot;&gt;OneTodo /&amp;gt;&lt;/span&gt;&lt;/div&gt;&lt;/div&gt;" style="rounded=0;whiteSpace=wrap;html=1;" parent="1" vertex="1">
                    <mxGeometry x="200" y="160" width="120" height="60" as="geometry"/>
                </mxCell>
                <mxCell id="7" value="" style="shape=image;verticalLabelPosition=bottom;labelBackgroundColor=default;verticalAlign=top;aspect=fixed;imageAspect=0;image=data:image/png,iVBORw0KGgoAAAANSUhEUgAABBkAAAHNCAYAAABb6KNsAAAgAElEQVR4nOzdd3gU1frA8e9ueu+9V0JooXdpKiBNqoqIHRUL2PFeUa/oVazozyugqNiwoIICAioC0ntPgRCySUhCGunJbrK7vz82QEJ2U2BDAryf5+F5yOycmbOzs7Nz3jnnPYqQkBA9QFhYGGq1mszMTK601ty3EEIIIYQQQgghzEPZ2hUQQgghhBBCCCHEtUGCDEIIIYQQQgghhDALCTIIIYQQQgghhBDCLCTIIIQQQgghhBBCCLOQIIMQQgghhBBCCCHMQoIMQgghhBBCCCGEMAsJMgghhBBCCCGEEMIsJMgghBBCCCGEEEIIs5AggxBCCCGEEEIIIcxCggxCCCGEEEIIIYQwCwkyCCGEEEIIIYQQwiwkyCCEEEIIIYQQQgizkCCDEEIIIYQQQgghzEKCDEIIIYQQQgghhDALCTIIIYQQQgghhBDCLCTIIIQQQgghhBBCCLOQIIMQQgghhBBCCCHMQoIMQgghhBBCCCGEMAsJMgghhBBCCCGEEMIsJMgghBBCCCGEEEIIs5AggxBCCCGEEEIIIcxCggxCCCGEEEIIIYQwCwkyCCGEEEIIIYQQwiwkyCCEEEIIIYQQQgizkCCDEEIIIYQQQgghzEKCDEIIIYQQQgghhDALCTIIIYQQQgghhBDCLCTIIIQQQgghhBBCCLOQIIMQQgghhBBCCCHMQoIMQgghhBBCCCGEMAsJMgghhBBCCCGEEMIsJMgghBBCCCGEEEIIs5AggxBCCCGEEEIIIcxCggxCCCGEEEIIIYQwCwkyCCGEEEIIIYQQwiwsW7sC1xvViF+Y0tOOotWDSDxg3/DKysnkPHY/Y51KyPr+LlQnK69MJa+wwk9TeTdcX2+5Ztt/mP/S0laokbiaKZVKlAqo1uoueRt2Ln7M6t+O6BBX3GzsQAmK6nJKjqzlro0aAPoOG8dzXep/hy1T1jBmZfEl7/t6MW3ydCYGJbD2P9v5xMmqtasjhBBCCCHMRIIMbZgqbghTXPTocSSq952oTn7W2lVqEWUnU0iovtAgVLsEEedj3Yo1urJUrx9lSR8HoJLjC+z5YVWI0fUMwZgkNt1wE1uspBOSKXdMuJMJ/lkcWrqS14sd0TazfGT7frwyIgQHBSjLzpCRko0GsHTxwOpsEWAHQPEZFanJtufL6a1dCQhxk4vqVUZnbc3NUe0Y2S2McA8HUCY3K/DROSiSOwa3I8LTGSuFIRhVlH6MrRsT+bRQzoaW5ObgwbjeMfSODsTXXnnJAT5DwOsMRz/7iblFTi1QUyGEEOL6IndAbVjIwY2sGhDOWKcSTuz6trWr02IC3hzKT7X+Vs3cyJKJoa1Wn9ZjS6eblvDDqnmtXZGrmkKhQGlpAdDsAIPGoz1PjQzFQZfDke9X8VaWHaV11rA7/79jRw/y5NELr1T4deGnEDca6Z8k2ogq9xDeGRVHjId9zcDBamhm55fBg0Yzq7sT6LRU5qZyuliPhUcQQWE9uSWkA53XLePxRIeWqP51La5Lbx7qG4qvfU2wVdfcb7oQQgghWpIEGdoy3XK8P1zOztauh7gCCjl12p6wDsMYFvMvNiTaNV5ENMhKoUcB1B+IY9ro7u3xo5Iz61fyUpZjS1VNtAGZweHEeFmjLTjFsX3H+DOhkNDx9zIxqGnlfTrewCM9nFAWJ7Dim10srbCpeWUnjiEdeHtMFwJHjGNu9krmFcq5ZE4do9vha1tK8anD7NqbxpoMfx59uh/tW7tiQgghhAAkyNB8Smc8OnVnqNNJlm9Na+3aiGtI8d87UN01iL73zGbDnMWtXZ2rXnOCCwaudA+zR6E5zK4DNmDbeAlx9Qo8sZM3jpSxW3tu6JEFTe8/5cp9fYOx1udy+MctLK2o28W+VHWMl7Z689EwX+IGBxDySyEqpcKMtb++7fvzR9aerST/ih9STzqM6oNn0la2JRdSfaV3L4QQQlwlJMjQRDprH8J79qJXpCcOSrDKSDW+orIrxUNmEtstCF9bPRZAdXE2BTu+5NTuTQ3u41xSyPpKyV4yHlWW8Y9L4/kygY/0oWPGOjZ98UGDPX51tk9j/+yN9M7byq6Fr2P+VJLBZE2Yy8Sxvenn6YRdzdvRVRSRc2wHf303j1MHM82+V3iY9ivmMMnZ0LRUaiop06opzE4mec2XbFqxqtEtaB0HUHnno4zp24FuntZYWdtQ0+u+5j2oqdi7gPdeWWS0vNr7DizvmcKUuHDCnG2wtLOh9qjuigo1BavH8/miBKPlrTIW8lPGYJ7tcgu97T9mV7mF0fWMqZ08U6GtpFyjoDzvBGnbv2f9J99SZaKcIR9EFfFvfcz+qc8wLdCQC6N09wI+eeEYqR++z7sdHLECKrL3svG1MexLMNb6DkY1dR6PjY6jo6czlhaGzyAvYy87l73Ovo2JTX4v5tS8QIMrbk46lGnZ/G19ZS+Ndi5+PDG4E52CXXGwsgCdGm1hJsd27ObDRJ2RxpQN0ybfysQgJaU7vuWuHaZydLjyzP2j6e9STsbvX5ux634obz3Tj/bJq3kyqT0v3ByBu4UeZVkKf3y9mU/c4nhnTBeC7ZUoqs+S/c8fPHNQd9HQkwtcvMOZM7w9Ee7OWFkAOjWVeekc27KbBSqFyXKXw6Ksgt2XOMFSaUgUsc5aLE/uYL6JMfy5Bw9wsOdoeoVGM7xyO5/Ymzu5pQUDu3Vnao9gfB0N21aoz5J78gBf/p7Fj50Hs+vmAKr2fM2ULfXPZ0MeAsOVQVFdTpVGQVnhKVQHjpg4585x5YUHR9Mv/3fu+KUAi3OfXU1OCsNnl8yW1fv4uLBlEnomFFZCK8VsrBx8CB84noh+xWQd2M72xEyKqiSAJIQQQtQmQYbGOAcR26svPQIcsFCCRclpEg/uZ09KXv11lSPJemQWt7rrUejUnM1Ip7RMgdYziMDhzxMQGklaAzmpHLLjyUhyq7swIILARnraWuf9xp6cvoQFdsHPRcfpItM3zul9uzAFKIr/1ewBBq3jvXh88AJzQ2tuLAtzSE4vocLOm3B/F3x7jGBajz6ovnqcr77caua921KWnUxCtuGvajtvIj1d8Avrjt9j3RlwywiWPPkI2aXGj0127DtMf3sSvW0NzVJdRRFn0tIprHXzaOcTiJumyGh51cgfeOnJXgTXxAUqKorITsqg9HxxG5yDvCivWgcYT+wIK0nYlIh6Wmd6PtCDXR8eaOJ7H09w/kkSqmvqbuVMkK8zHkEd8bjtNfoMuZVvXh1DotHggIHVxBmM1aWRcNwWt4hAfHs9zI0f5NM5oICE42ew8Ikk2rcH4x95nX1PXJwz4kZU/3ufJTGGE7Ui+wQnipVYeQYSGT6AW15cQY92D7B40baLyt3KEx8MI1Lf9FCAZeE+lr74BbstG28cNve2X+3ljLtej0JTeUWfOtdLNKkqR+3gSqBvGJ1HhfFJ+9956edCjlnUrpOab37eQvtHhxDb+2bmJa5g7tn6jd1BwwbQ30WLPmENL7REbgBlBx4ebE/lqRQyXP0J9AxnxC0VBHhE4HomlVSFMwEhnvgMHcqTib8yr7J+HSzDu/HenZ3w0JZReOYkZ8uVWLp4E+gZSfeJkSxJWM281cUXvf/W1T3IE0c95Jw6Tim+JtYq5HCGml7tg4iJLYJUTzPW4EKQCZ2WypxUsov1huMWM5RnfXei2N/Qd8Qei8JkUtU1IWlLJ7y9nXHxj6Wzfyyf9znI198d5ieN6SCBztWZfr6B3HZHRzy0ReSoUiirtsTWPxBf7w7cdF8k7c0a2GoL8jiwYjlZsX3p38Uf3x4jmNCtnMJTB9i5I4ksCTYIIYQQgAQZTFJ6d6Bvv85EuxkaZprsRPbs2UNCnqkOko6oRj/IFHc9yrR1HPpuAeWaCzccqb5P4XvXEHqlmm5QeR58kdMH6y5T3bmeKY0O5z0AR3NgqB9ecZ05vfmoifW6QrQ3kEnOziOY91HQQDLeeYFXQq2ozt7CqrfncLROj4VOqJ5bxILh/oRMf41hu3qbOe/AAtIeWcDFA1hUXecy9rlpjA2/hftfmc3rz3xotO7hzxsCDJUHvmDJ/Jc5m9v0XgQwmzGP9CbYooL8tW/x+aLPqSw1dWxNBRhqXv1iHb+Pj2FK30fw/+BBMhVN+YxWUDxnRZ3kmQBq73txfvVJnovqwfQ5S5g//TGKjG7OlY6Vn/PiDEPwQHXvOhZOa0dP73g+nmCog9bxXW75bQJ9wzrRXqsnoVaDTzV3PktiHLHO38sP/51V53NXDfuUp565kdjJ7zLqYAxrdrrW2q8vAVERRDQjyGBReAYPXfMHQjSFzgIsdXpo0jE3j9qJJhN//oPX05Tnn9rrrJ14dMIt3Bx+C0/1WcL9ey5qrOkyeeWXBD6/vR2dx3VmxJJk1tXqemMV0IXpnZ1RFu5m4apySi2bc043TXWoA0Uf/8ozlQ6APc/cN4H+wZHYrlzM3SlewLmpPr0IbVcChy5ucNrQZVgk1nu/Z9ZWLSp9raCeSyBzbx9E+/Y38fCpJTye6G72+l+qXl5ewBkyUxtuQH+clccD7X3x8nMEE53fLkVo7wFMDFKiLDjA9z8e5rvyC7Px2Ln48fykQUyITG9gC+V8+ed2vrxoqc7aiQdvuZHR4XFMvzWfhO/ONBDcsaX/oA5YHVnJf/4s5YDiQlCjY1QPnhwdTeCIG3kqaSPv6a+dsUeKqmLOHFrPL4cssAnvyg1dOxAY0Z8RYX0ozzzEnp2HSSlpmWuUEEIIcbWQefDqsMAmvAc3TbmPu0f1ItpFR+HJbaz75nO+XbujgQAD6GzvoX0nOyw0ySR/XzfAAGCb/R6Ja3Jxj26Z3PNB+3ZzRAcuseNMDiWvch1BV289dmm7yVabtyGlGvcMb0VZYZ2/hR9mTLsowABwhJC37mD2zkzObl/L3oQrk9gw5MA89j/4Pj8VK1B2HcVAO2NZyG+lV5Aei/I9rH7yP80MMIBqSF96Oeixy9jAl+980UCAoSkWsGpfHmrvgQwce3k5P2xyvkD98FO8mqqgIrA/N96UZXLd9PgHLvyRWUQeUHlq2/kgh0XpCdKKFGjtXfCs1cjXOr7O1P7uKDVp/PHS6Hqfe8iGB3nvuyRK8aHrrc9ftNdFPH/LLYwaNarJ/0bc+Tprrc3bWLZQKrCwsKgTc7O4QlfGuwZ2OZ9o8oVaAQYApaaEhT9uIb5KiWe3boyrrH/uVp3ez5KDJejc+3DvMB3n45FKV54d0Ql3fQ6HVxyoE3wwJ2VhMtuLz32Xy8kuUQLppBxxOb/O9/mG7ltOzsae5AfhqfmDNzfVDTAAVBRl8ORvRylV2BDcuwu9q5s59UMLsrLWAwWcybRpcD2v3CJKFWBt1nPWg+ndfIECDq/YUyfAAFBRlMW/Vh7CJrThgKYxSk0Jn638nVWndWgDu3K7u+mBKjrnznRVbuZ/6+oGGACOntjLksNloAyl96BrJ8BQlxZ1yl7+/PlLvlyzgyPZFdgHdmPQpHu469aBdPJsme+cEEIIcTWQIEON6vB+jLvjbqYO6kSwMpe0nb+x7OsfWPHP8SZ1gTwd3YFYJSjj/ybXRAPeN34ja8tb5impsnIpCalKKj1j8fYwPp1XZvcuRAHZhz9r7kxtjRsUiztwYs3jpJSZOq3SCPl3fz6aO9/EE/WWYVG6iHX784FowiZmXLkdX6LAd9fzd5VhOsvL9xdpmxOpwpWwXvc0q2RVdeMfUsaE7gy0Au2hZWwx0TMl5KuVrCtWYB3Vn8gW6oVQ254dG1i/YS/rzzb0lNmeu2/qx3tj+/D26N68PaoniwcGYKcEnXd33h7dh3fH9ObdMb15f2wf3h/bhw97WjewvUvhT+dgC5Rlx1h7wETQTZfJ6vhSdA6R9PArN7rK5g1b2VZkgXX323g11DCMa9CwQfR00VK6bz3zjQyjaGkaXVO/4GpU+5NMPi23yzrKtmxLdB4RDLZTm6+Cl8UVn5rcLxfepytPTJvIiqcm88Mgq/PBHkXN1Ir2bh5m27vaO5Bgex0WGQdYctZ4Nzfr/OPszbrURq6a+Ycy0Cjc8Y9u4BZBaYHqwD52mRi6tG1rAplKBbahYQyoajsBImOads0wTZeTyN71y/ns29/ZeDwPtUskPcZM54FJNxPnIekhhRBCXH9kuEQNe+8g3G2rKTu8il/2nW121midvw8WQF7Gt4Cp3gq/QuZMiG6JhlYpVocS0IS3w7NzL9I27rvo9d7QzhULzTFyD2ow71CJexkUbAWkkv5jPm3ytErMoHSwO97BM4D1F724kt3pExkY2JNxi9+n/I33UKU3PRgRsnEHu5/sjV/gMO6d9zLffvhSs3tD1GZR+m+WHZnC0G7mmc7SdWsGife0o4dvZ+q/98sUFYgVlSTu+Remh4IsYl3mHCbF+OCn1ZPcwvkOkjJOk5QBKBuKoVrjHxpOqJOhEXi+RnrQ2XsRFAaWF3VnsFTGwx6N2eqp9vbCx0qH7thJfrU1fb78djqP2XHBuPqUgtGAQSH/XbmPJXd3JXzUzdy/XsHgzvZYnNnERxsVlLbBr+MFWWSccAKTQ/+1JOSUMdzHGTcPNWQbvgu1kxY2TQFHP/uJuSaSNF6uCr8QevpYgx6su8cxdfV2PnFqmaSH2f7ueOihMisTldLUh6vlUOZZxvhd2vv1OJVLniIEP093wFRwJ4uMk64mXgOlOoeMIiX+7p7EVh5nq5WScwlDo5oRbFQW7uDDRSlssG65ZyJNu2Y0Tqk5Q+q2VZza7UPn0SPp4RpAsLuGg/lt+ksohBBCmJ388tUoz0mnICwG9863cndUHqmHtrM1KR91Ux/AOFoBpVRkN/K0s6gMaJmhAv7xh9g9qh1DO47BYeM+ymq9pvEcQU8PPdaJB8nXm7uRF0SAox6rwjRSyizaZv+Y4kpKAA9bPyMvbiFl/k/sensSvduNZ/rS8VCYgyr5KNv/+YGMzesbGQKxgFUL+9L1yV4E97uHx/rdgyY/nYSk/RzZsJKMTZtMzu5g0sodqLoNNMt0li4pRVQAljYuja7bbO6OQCp5vwc0vF5hKeCN98gz8Jexz+BKK+SNT7+ps6TSrws/To3FLWUd41caEnwq6+RnMG9wsNjdESfgTGYqEGhyPceiUjSAj5cXmJikwzo/gXf+9uWNYe0YPRYU6pOsX5bKLsuGu/O3vmpKK5UNBBlAo9MCDji4VkC2oVGbl5FCqro5oeBi0tTm7olygV2Wij1nIhnirUSz7yDLWijAANDNxnCBPZObC5j+Lv1SVMaLXFqQQanWUAZY2dhgOshQxtkCS0zvopD0QiW9nCxxtD33Q1pCZvIprJoTZCgtpKANJf1siM7ah6h+feke4oZDTaLotIKWO++EEEKItkqCDDUsU7bza8ouQyKnHp0J7jOWqb2akTXaxhpaYELIZtF9QWbCBDRdOuDpV01ZrSkvs7q0ZyAa0vd9Bpj7pscFR2uoE9VoBaphb3PbpMH0DnLCrtb0kYbpLG2xA0w9h/aNf4a1t23j25nTeaJneyLdvQnpMZSQHkPhKShJ2cBf/3vJSK4Jg5C1t/HJvnvxe2Iat3SKIMwjiC79gujSbxyKf1WSE7+W1a/PIqOJPRxCtn3KTxk3NHk6S1XX5xh+x1j6xXriU2vqzXPTWdq10CgFF2uAEAasTmdAo2sXtkwlzEiBHtCjwBBS0DUjKWVzldtaY60Hn5HPsmJkIyvraTRQlXJwL3u6jaO/q5aSA5v5n+7K5D25MtRUVV5ouK/bsZV1zd6GuQIuhZwpVoATWCv155d9+M3PXJxWVq80fBHLz+bTYCSlGaIdG80E3CR2Lu7c37ML3aJccLS1M0w/ybnpLC0NSVDNwhk3Tw0U2QD5LFi5o/mbaONBBqV3DN26dqKTv+GzqT6bzN6t2zmSp0Vus4QQQlyP5NevjppETil7L8wuEdGfERH90WQnsr+h2SXayLBL98MJ5HfphF+3cajWrKlZOgw6uGJVsp/ck9YtML94EaU1rfeWe37XkGBU835hST/DuGdNfjrJ6XXDCTq3IDrYNRxcsShdgddbK/gOUHsPw2bQrfQf0JXY9gH4hg9jwlsdCXt3DKvW5xotb5PzBQUvfsE3QGnwSJwG30b/GzoQF+yJV6fxPPB5B9Y/ewM7mjT8YUuTp7NUzdzIgomhhnHgNdOG1m6QVtt50ymoJZ9oV3Im6TQFjZ5XRWTU6e7/MPN/H0vHZs0usZ0PJr9q9uSPF5wLM1w5lTnJZBc3/n6Kcxo+wBFdetDTTQt6cOo6iEd3bOF/urbek6Fx7T2dgSzO5rWdoEmVRgG44+OvhiLT15VcLxcc9VCq0WKuq6Om2njOneaI6DKQN4YGYqWoprokn5yT2XUCsHoHD8LszRWM1qLRtsXubZer1uwSzoapRMsz9svsEkIIIQQSZDBJl3OMbSuPsc05iNhefekREEOfMTH0LzlN4sH97EnJqzuUoqgMcMTeswqyGjisLg5g/rSL5zmlbmNDaWfujOqPs34NxQqo8B9Cfxc91fu3UdwiD4TSOV2qoMotmNAwNcmqK5tNXDX1Exb086A6+y9+mXUvSXn1j79q+A/Me64XTU2/ZpOzAZZvYNty2EYnVPOXsaSHD31vn8Pf659utNOGY9pa9F+tZetXsNlxPNbvz+df4dEMu2c2O5o4/OHi6SyN9QNQ9VjCsxNDcS05wspXHuaA0Z4W71Lx9wSGNGmvzVOUUwrhVeT/GsvP6/2bUKL2U9hsTp84iV0zggyWhRnkt1BOhyvdLPA+U0Cpwhfr9O08ubkpDVDTgQitQwRPDPLDpjKR3zbbMHx4BMOnprN36WmTifmuCsogInx0KMrTScy1aamRZs22OzeXCWHu+IeWwSHTQxJm+nkCanKzSsHkvD/Nc24YhKubW4PrTXAxnsSwyrU9Tw8LwqYknhXf7GJphbFAlCF3QvsG9+CCj58GSk2du074OuuAIs5kWTcwrOLqordyxje2L/27+ONiAejKyU/cy569yU1KEi2EEEJcDyTI0JjidOL/SueotQ/hPXvRKzKAqIEBxIZt4pM/T11YL7cACMAleBIcWWNiY+PAv6WbMr/C4Tuo6heFe2gVxSorcrrFMpgCMnf+RkMNlUv3BZvT/sVdbiHEjOvLXw08dW8RPSJw5Az7/28ySXkmEpE5217GPe4RQp7/hhVrHmF8cEc6VevY2YyGm0XpCgreGMWRJcPoHt4ff/2i81NDNmwBq/ZNY9wNhuks442tMjiWdsDJFXdx4GCR0a0Uhbu0XNssKYOqPu1oP+Q/sL65uSNW8uGslc3fZws3mq9UM8EuK5e0KiUdYzoybn18g8kfG2bP7Ml9CbY8S+KPf/N5titngvx4oP1gHhvyDce2gOmJCNu20J7RxFrqUB9OYrld2/m52peeR2lvV7zDonE8VGzi+LrSOdAGdCc5edLJbJdew7SYvrgG+BOiy0dlNOhmQRd/N4x1sfNt548flZzc8CdLK7yM7kNnY03j8yx4ERBeBoeNr6mz8SbQRYey5CzpNldxoKsOT7qOH0dXBx0KbTFZe7ezPTGToioFV+7KIYQQQrR918ovf4s7lzX6x69/5rf9qZytqNtlNehYAocAi/ZD8VAYDyRkxw5hmHXLT8PmdyiBUzgS2HkKMA6i7LHNiycnvwXn7d4cTwHgMfJN+sZUXN62EnLIAlxCejThRhdcnKyASsoPmRqrfCPhN7fHPCOZr6za01ka7YXh5gwUUpadYGILwRQ+FEfnFhrOE/jLdrZUgaLnw0wcbrzBcr2wyyogS69A6+vH5IqmHPBM9qRq0Tl0Y9JNXPL5OWjYUIa6a9HsW8lrNYkR16z/m90lFjh2H87zbiWXuOXWZRXQhbn9fFBoTvLPP21l+koDR1UKJ8qVVIf35XkX48fXK64rcc5aLDOSWK0wXx4c+9Mqw74DO3O7g/FrrcYjmi6exl8z5HRQU3bWdM+KITdE41/dWEBcjVe7rvSuNt4zr0uPaELQU3kiuQWHN115VWVnSNmygq+++pm1R7JqAgxCCCGEqE2CDM2lKyb/0EaWb02rs1hZuZikhGqq7WKJnj4be+u6N2iVvk8RM8qLgr05LV5F67zf2JOjQB/VE+vQ/gxz1FMU/2uLpqUM+fUdnjtRhc46muFv72bo8D6Xvq2NO9hdpqAicBgT7248nWBRTikQQvtHR9d7Te19LzaL3mOe5SFWX+JYEa3jeFTvTWO8rR67tKMcaeaTdLX3vUS9PJBOelCnbGtiLwYDw3SW1ag7DOMOY72aT+cCrsTctKDeiG+t43gqX/uFj2JS2JjaMjfCFqWvsuy3VEpxpcPTf3LPE/dh63i9jkfOJCFTgc6uGyOG6JoUNPh5w06Sq5Q49rydJaO9GKFs3nh7q4AuTO/sjLJgJ19sUF54oq4r5J3fj1Cg8Kbz+K6MMMM4/itGac/IXgP4Ykos7voiUn7/pw3mlshn8ZZ0NAp3Ok8ZyD12dYMgjiEdeHWAH9baXHb/lWait8Gl73vF4QJQ+tHvtm7cYV83/4ydix//vbUj6pRso6U35xcDzkT3csPj4q+q0p6JQ2/isfBkjqQ31nMknZPlA3h0hCNd9XUDDR2jejC7lxvosti/q7x5b69Ny+PYmtVsTi5sK2mYhBBCiDap7fQ/veqVEvTbEv70eYSbgkfQ+dmhnM1Mp7RMgdYziEAPK2yOLmXZ2UFEGSldEjqHmF5B9ZYHeOsBa5xvXESA+sKNqn3WOk5sWWWiLgfgYAbqmzsQNqoKN52KtJ1HaNnunFsIfOZ5Hpj/Kktigun/3HcMnF3E6dO5FFYpABucg7xws7DB6ej7vPLsxXnYa1vAqnXjGDYxlJDpX/Pi+BxOZpVQVbONwFOf8+rjb51f2+bbdezvPpFuIxfyUq904vMNN91WnoGEuNtgW36cVc/+ReUbPbGJuY9JCydRflU30sEAACAASURBVGwFmz/6jDKgKHwJdy8ZRodyNdXlOZzMP3fTbtifd81MFUrNGf75/s16+RhUk39lwcOdsahQQ1EaqcWGIITOypkgX2ec7QwNJMuSI/z25Qc0e2x2zXSWYQH1G++BX/3AL0PnMKHrI7y4ciKJWYakj3oXL6I9nbHiDAfefZRVk/Zwo/dNTFrYh/KMNex57X1yzXQ6hHx8N7OrFvPW7TEEjZvLc6OfpTw3/fxxqLbzJtLTiYLVSj5fFGKenbZJWr7dcpS+k2Lx7Dudr7rnk5VeggYLbH29CSjZxcvfnOZArUz5FmWpvPRVNXNvH0T76Bt5KLqa+0vyyTlTXpOIzwaXADe80jYyZs1Fw2GUPrwwtiPu+jMc/vUw6yzrDgiqOn2Irw4HMbtLT2aMSWfrWnUbHDbhTc+pA2hfE3iz8PAjyMUWlKAsS2HT91t5v6hlcryM6DuA4V51m4q2Htp6dQIoTtrGy0l1n8afOfoPCz1GM6t7e8Y9FM3wvHSyi/VYeAQR5GYJujIy1v3KvELz96E6smMzq/zHMCaoK1NmdGZszb4tXbwJ9HBAl/o7z2V045129ctaHz7Anu6j6dlhMp+HniEjy3CuWbp44OPpjJU+l/1f7eXUsF508ezB+2PLKc87wm//lNTL75G8bjuKmeN5ObaQnIw8yqotsfUPxNdeCVSSsXYN8yua0h+tOTyYfWs0IXVmv3DGU69H52Oo7wXFxP9xgE8r21qQSgghhLi2SZDBjJSaX3FemMafQ2bSIc4bn8AIXIHq4mzy13/Jqd2b8ArsxBnC6jUzC9yDCWwXZmSrhiCDfWgE9rWWOll6c6KBugQdOkj8jaPo5G6NbdpfZKtbvkunRekKQh5dwQO1ppL0DIs8P5O7rkJNVUUO6XmNTcYHIR8PYfbpT5l+Wy+6e3oTGe1dMx1jJXnpdbsn+8Y/w8cvFDHsscmMDQqi/blxBYU5nNq0ljWL5nI291HaA3oPw+tW3gUc+3AJZUoFhe6FlORrUNuBpUet8jV1Vmef4OjBtWxb+g5njU1BqSkkr0iNjzXY+UbR3vfCSxUVavLTj5K2fSV/LVtCZWnzG0znprN8OrB+kMGidBH7Z6rJeHEmd0cZjpOh3kXkHFjJHx+9iyo9FyZBtZM37Z28IXoEJa+8S66VuToypRHy6Uje+9Uwheeo2AACvS4cB8MUokWUV90HbDDTPtsmTeZhZn2Xz5MDOtLF3w3/CE/Qa6muLOFMvvF0oRVFGfxr8ffc0CGWcd2CCXLxxD+y5jzTqamu1HG2Wk8HrZ5j5wMUNkybOJiudjpKd/zB3LPGM45s3rCVnqGj6d9+FG+c+prHE83d4LtcznhGOeMJQDXV5aXkpp0gfvcxvk7Xk69ouflqPAPDCQ26+Fqku6hOBlVnt0JS/W1s2ryagpRI7hjcjgivUEK9DVNAFp06wNaNiXxa2ELHW1fO58t/4kS37kztEYCvZ82+1Xlk7drIJ9uL+LurYVV1dTV1fup1hbz29a/MuKkfg8MvnGsKdR6Zhzby26bTrNM5Mg3QOfgQGglEalGt384up4uuGYUpvPRVNY/fFEePoHC8LAzvvzAzmd3rDvJxi7x/J/wjwwi9eIpNfa36nldA6eZdIEEGIYQQ4opShISE6AHCwsJQq9VkZhrLTt+yWnPfQghhbgqFol6/IV0zZtEQ4nJ1HzSaF7s7kfH7ezye6Nd4gSZz5YUHR9PLKYm1/9nOJ06tM3GxEEIIIdou6ckghBBmptfrr/iUmEJcYEHPQDcgi5wM59aujBBCCCGuM5L4UQghhLiG2Mb2YYhvNcr8JP4obLEJbIUQQgghjJKeDEIIIcQ1QGdtx/i47kzuH4S1Xs3JzQfYZenZeEEhhBBCCDOSIIMQQghxFSkNieHTLh7Y+nrjqTQMzNFbWGNlcy5haDkZ65bzUqoEGIQQQghx5UmQQQghhLiK5Lv5ERrpW2eZorqc6oJ8Tp1KYsOWbNbprFupdkIIIYS43snsEkIIIYQQQgghhDALSfwohBBCCCGEEEIIs5AggxBCCCGEEEIIIcxCcjLQusM1Hnnkkcsqv3DhQjPVRAghhBBCCCGEuDwSZGgDPv78f5dUbuZ9j5q5JkIIIYQQQgghxKWT4RJCCCGEEEIIIYQwCwkyCCGEEEIIIYQQwiwkyCCEEEIIIYQQQgizkCCDEEIIIYQQQgghzEKCDEIIIYQQQgghhDALCTJcy5STyXliHX3+vZyQCNvWrs0V4o7OJQ6Fc3BrV0QIIYQQQgghrjsSZLiGqeKGMMZFj17pSFTvO1u7OlfIZKqeeIMBd9+HQ2tXRQghhBBCCCGuMxJkuIaFHNzIqiIFCl0pJ3Z929rVEUIIIYQQQghxjbNs7QqIFqRbjveHy9nZ2vUQQgghhBBCCHFdkCDDVUbvHkOvuHCUB35r7aoIIYQQQgghhBB1SJDhqmCJXUBn+nbvQqijEigmWa+vt5ZqxC9M6WlnpHwp2UvGo8oy/XGrun3MlFFhaHe/yd4/tWhuvpvwTkH42uqx1GnQFGSTve1LMg9vN17+zvVM89jB/g9fodD1TpSjRtM52BVHS1DoQFOQRtbfH5OVdMhI6YdQz72VGwt3sf//XqHM6B5MrWNYfsNFa2tce9Nx7lqjWypaPYjEA/Ymj4UQQgghhBBCiEsjQYa2TGGDR0QfenWJws9GD3o1JaeOsOfoYVJLrOh40eoO2fFkJLnVXRgQQaBjc3bqjuqOe7kt1ApNgYosVTVVrr4EegUTNG4ugUGfsHvNCqMlNS4e2Ds8hPrB8fSwVnM28yQZZQq0nkEEegYTPOVNAna/x971fzanQo3IhuMpZJyPuThi184bb00BGacK0RopoS2wMuP+hRBCCCGEEEKcI0GGNkhv6Uxgxxvo084HFwtQaIvIOriV7cczKaxWmCznefBFTh+su0x153qmNCPIUO09kpudjxH/0WsUF13oL3Da9THsHhxN925TCT36I6kq4w316sHD6ZmzlkPfLaBcc6Guqb5P4XvXzbTrNYOIE1s4mVLZ9Eo16FdsfviV0+f/NvRs8Cs/Qf6PpnpFSJBBCCGEEEIIIVqCBBnaEL21L1E9B9I72BkbBehLMjl6cDP708upBsB0gMFcbEIdKPj4foqLLOostyr8iLS1kXQa347AzlNIVRnrzRBJTFQ8xz9YQLm+bl1ts9/jyIZIwkaFETTwHk6lLELXgu9DCCGEEEIIIcSVJ0GGNsGL6KHDGODrAHotZVn72Ln3ECdL6+ddaGkOGbvJyLcw+pp//EkOjG/HUM9glGA0SFCV8Bv5euPBkKD9G9kwJJxbAjvgqYeclo+ZCCGEEEIIIYS4giTI0CZ4EujngEKtYtuqP0hUK1utJqVn4k33MNBpUANVjm7YgZGhCBpK09YDtiY2sJyS7AfQh/ti518NDSSiFEIIIYQQQghx9Wm91qyoJY+MrDL01iH0m3Aftw2OI8KxdR7z67SayyitoaKwkcBBfhlgjaWdDJYQQgghhBBCiGuNPEpuE3I5/vf3JJ3PydCdQWO7c0NJJsfq5GS4Vlhj5VINWLd2RYQQQgghhBBCmJEEGdoQhSab5G3LObHr3OwS/nQceAedtMVkHWl8domrieIaeR9CCCGEEEIIIS6QIEMbpKgu5vTB1fx8yAaPiD706hKFX9wtTOiipiT1CHuOHia15MonhWycI/aeVQ3nWnBxAIopz2veNJI6W0dcLq9yQgghhBBCCCFamORkaMv0avKTN7P256V8t/kAqWVWOIX1YOiYSdzgWtXatTPKJXhSA6+OA389kI86u/YMFqUoNTQ4Q2dxgA9hTapBGgXFCrT2Tti2xTiMEEIIIYQQQlzDJMhwVaim4vR+/v7tCz5bt40j2WWoFW1xuIEGfcRQPBTGW/fZsUMY5ajHLu0gOXWmuYwns1CBxiUKDw+tkZKOFHVpj3OT6rAFzVkFWutgXCNMzXIhhBBCCCGEEKIlSJDhKqMoSGTP37+z62xbHOmiIe20J9HTZ2NvXTfQUOn7FDGjYnBAQ/buLy6aJvMAJBcC7gSPfQrbOmelI9nd32KCwzE2FzUlsFIKSeloccRn9Ot4ujhc7psSQgghhBBCCNFEbbGlKi5BSegcYnoF1Vse4K0HrHG+cREB6guNdPusdZzYssrs9bDe+R2/3Dqb8c8O5WxmOqVlCrSeQQR6WGGBHu3uj0hMUNcrF7LxS1bGzOLWwBHEvXCurDUEBNPTPp+cpb9xZmIcWvsoPKa8j+uRZZxO2GO0DiG73ufnyDeYEh5L5GM/EVyQxpn8asAKhZ8PIWk/sW3F12Z/70IIIYQQQghxvZMgwzWiwD2YwHbGshYYggz2oRHY11rqZOnNiZaoiG41Pp9W8dfo6cRFRRBoDQqdhtLsk+T/8ylZSYdMlFuL38Js/hwykw5x3vgERuCm01CaE0/qslfJPRMGatC6uOPXzh0ny84mgwxwjJBv7+GvXnOI6hGDl3swgZ6g0EF5pQY1hi48OhOlhRBCCCGEEEJcGgkyXCNC9s9k1/6WLr8Ym3mL2dLIWkrNBhx/2UAykNycSugO4LzhQdI3QHq9Fw8QsngEu5q8sQKcdj9H9m7Ibk4dhBBCCCGEEEJcMsnJIIQQQgghhBBCCLOQIIMQQgghhBBCCCHMQoIMQgghhBBCCCGEMAsJMgghhBBCCCGEEMIsJMgghBBCCCGEEEIIs5DZJYRZhHw7vGbmBzmlhBBCCCGEEOJ6JT0ZhBBCCCGEEEIIYRby2LkNmHnfo61dBSGEEEIIIYQQ4rJJkKGVLVy4kPHjx1NYWMjGjRtbuzpCCCGEEEIIIcQlk+ESQgghhBBCCCGEMAsJMgghhBBCCCGEEMIsJMgghBBCCCGEEEIIs5AggxBCCCGEEEIIIcxCEj8KIVpAMBWBM8jp3A1cbXAvTcd1z4dos/Y3aysDblEzuXM2nfyg4gCMWhrSQvW9Hlnw+msp9HWCzHg48Icb755ybu1KCSGuQ1pHuOPmMoZ2ziPaDdLWwj3r5HovhGg9qrEKTg5LpaoAjh2EX/8IZHOFRZPLl0f8H7ldY8EafHL24bj/K6oLjrZgjdsWCTIIIcxsGKqpCyHaGu/zyyKwPX0bZVl2TdrCHfdV8fCYfEJsqzjX4Uqdp2uJyl7HFARERxDudIrwaBhw61lmZpxl2fv2zI33au3KCSGuCwoeerqMmUPVuChLOXe9tz4k13shRCsLsCQ82nBNatcHJjyYQcYaeOyjYA5aKBotnttuCN4dHQHQR0dQMmAKHttep/zPT1u02m2FIiQkRA8QFhaGWq0mMzPzileiNffdFvYvU1herodpv2IOk5yT2HTDTWyxklFArUk1dD/c4E5wcTI2P76EJmM7KDsBR6DR+0YFz7xdyWMdc0CrQ7UbfvvRjV/inTilbPyCfr1Sew/DKdgJZc5eKtMymlVW6wgjbtBw97g8BgRrAR3xi+GWlfIU8WpgE+JDey8lFanpJOXJc4O2QPXYUySP96N628sMf6m8tatjFqrh97Dv+Q646C9+5Thru37EO+42zd6m1lHJ/xaUMzYgFyp0nPgHvl/lwWcnHc1S52tVafBI3L1tsFL9TFlu05+qmkcwVZ264WBTjH7v31Rd4b1f3a6vY6ca/gPznuuFX71Xjl919+odonXcPKaUqQOK8bLVo03TMf9RXz6pbvi6p7PuhFJzBOhEYYd/UzSmD962aryWD6X02OkrU/lWJHckoo0JRjXycW4bO5jeQZ441zz4VmgrKc9NJ3Hzl6z/5Ntr/uJ89RoPMe54o8Z5xSBKMqwMi3VHmlT6zpeVhgDDWR3fvOjEiynuhheunt+iVpE96UVemxiKZtt/mP/S0maVtSiFP3+35s/f/ek7RcnC+7KJfaiClfkqbt0igYa2LuKhx3m3tw2nl09h+qKmfF4x/HvFDIY6a7Eo3cPim5bxnb2xW4GRLPh7GD2O/8CAh/eYu9qX5FzjvXkuvRHclpxr5Hsf/5FbHtpDcSMx1+au36iCdI4mWeN7Pshgj3N4IF5Wl7pBBa+/qWNsQG6Tb9iFQf5DbzO/jwM5yz9gcZO+8+Z0C51fPfdQ56+rqqHY+q6zY5efzonjHhSeX2CDe2ggPtatWKdLdOy4kmPvOvPOYldDYDQ4lxfeyeb4o0FsauBzNAQYAI7geux2ily2kXNzAH4d7oZj/70ylW9FEmQQbYbaexbR785krr/hCqSrKCI9KY9SBVh5BhLpG0XX216jz5DhfP7ANFLKrvEL9FXJG6wB0tCfat7dp6qfNU/0zQK1jt/+ZceLqe4tUkNh2o4fddzv7su3t54m7j4N96yrYqnDJbciRBundYxj2ENv893XV0kwKSOdk0ml9RYrvSMIc9NSlJJCXtXFvwunOW17pZ/2ml/I+niOzOrEwJAO3F66nU+cGv5eduwVjIsechJ+olhx+Z9vyJ4NvLRnQ60lNcGqS7w8aO6yYkqkCgp0LJjpwydaCTAIcS0J2fsMm/fWXlLT6/gqDDKcY1Gq49HZjrgsUTKoXRYv3ZnOph+bfn31UmWQqwjAztalVvDl2iVBBtEmaB0fptvHTzLBTU919hZ+W/AGx/Yk1FlH1XUuY5+bxljvngy5vSMpn8W3Um2FaYsh5wVwdUXvqoPCpgeCPrhdi4++lNz18ESqd+MFRIvYt0jPH72CGOt3kun3ZrK0GT+g4uphUZhFmlUA0TfeTdzSjU0aX9raQlYuZ8bK+stj//sa/9e7kvRlc5m10cj5arSnxtVmN/8kjWdA51Di7sqEBoczOTO1nRug4vBy1ytVwWaw4IubNNjqNSQsg//T2rZ2hYQQokksSqu5/ycHjj5gTfhIDfd80fSHMUWuhuTapVnXR/JHeRQs2oBgMl59mgluevTJy/h46vR6AQaAkAPz2P/g+3z1yUN8JgGGtivtNOCFokO/JhfROtoyMKwSKmDVyz4tVzfRBHrGbbQAlIT3hjBdvUHYrcwSrB7B/uEP8AmNA0Xbbxy3TSms31dIVeBgZoxJa+3KiCb4/GAmahyI6N27wfWKwgcT51+NVVY869KcrlDtmk7Vz4o473zIgPkrglq7OkII0SzVP+nYnBMOvjCyf9Pz+WmiIvHWq9GnfN6CtWs7roXwvjCrYFRT5zF7fB9iXKyxtDAMW8hP/pvVr88iw0SSocJPU3k3/Czxb/jynvozJt09loHBTjhYgFJTSV7GXrYufZZD27LrlS0Kf55ZcZYo1cdZ88azFClM96WyKF2E6oeG6h+CauprzB7fh3bu1lgBCm0ROfHbWb34fjISjHfJvDhBja5CTZWmiOwT+9ny3TxOHTR9EVHN3MiSmvHw/31Lge2cadwVF06AnSGXhLownWN/fMXqJd80VHFUwz5i+v0D6efpjKXFuTwUyWz/+EG2b3uWwX9PYOjZLXw2/i5URpIgqr3vJeiZ+xkdG0BATS4LdVEOJ3d8z6aF75JfemViikF7j5F+UwBBsXdTtm0nTWmiZozX09UyG47Dqz6X8lSrE6rZrzKnf3tC3G2w4tx5u531S18z8vkFo/rfPyyJqSDxY3uW/9zw03rVeydY0sUS1VdxfPVlUb3XL+3Y101Y+s2kz5h+W6/zn/+5+hs7b8+dcxez7v8ycze8bGRfzUu0FPK1kgNTfOkamcmDWZX8K6Bps4KYX+3z/NyZVA3oKXaPoMOdrxNWmk7GPyvJPLwenfbKBkS0jk7ceOetjOsbSIynHTprO2xqXSKrKiqo2vN/jPlProkt2NPzydt4qH8MYW6Gz0ZZUUzOiZ389MVqlh+uf70yPLWvvzxg8o9smFx/DxaF23hn9M+stql/7S5YeojjgwYSM2Ikzmvimz1uX9e1Ly/OGEivUG+crPUotFVUF6Zx+I+VzP80m9yLtqe6+3GOTQ8mr07+iAs5Igr/eoqJb1yo57D33+Bfnc+w5a7/8EqmS/Mq1yhLIqdOZs6EWPydbbGxOHfst/DlvD/4vaChPr329HxyGk8MDMffxVBfZUUumTvX8OF7h1E1Ye9q73Y89u9bGRXhipOd5fljt+/nL3jje7XRzyLw58McuSOE3tF9GK02/pkCFN4SSbQeihJXs9Oy7vu4OIFjVUUFCk0huceP8uuyVUbPOXObPkSNj76ckuM0OJ7ZlOZfb6fi/8N/ud8zlR339eEvVUO/MQOx+fprnvPPZv+/Y1izs35PEFXXuQyfMZabQz1xsa71O/+X6ZxR5+4xIpO/Zc5Dm1A99zQv9gkj1MWmVv2X8tdbCym6+Hvz+lGW9HGot03vyTrmGvnOWxWavk9ovnO/U7WvrXogmsH/qBhspITx3EB1t6PUVFKmVVOYnUzymi/ZtGKVyRoY7i8v7N8h+VvmPPQiqq6vM/nZ0Qz1ccYKUGqKSN/+PT+/+ma9YwiGz23YY5MZG2S4Nz33ue3/+TX+/CGC0J9e5i63hhKIN/c+w1zH7lKZ57y/nPvjy3Xu3M9ZrjSZf6Qp65j//ljLsqRKhnspib1JBwebUmYWRFrhUr6fqpPXxzBUCTKIWm6kctHHLIkynPwV2Sc4UWyHU2gggZ3Gc9+3/Tjw7hhWrTd1wwxa96+Zed9kuisryctMJq1Cga1/JGHhAxj76lqiP76R5T/n1ylTeGcfOumhdNtC9qZe3mCt8ke/ZMFtYThrilAlpVOqwLD/TiO5/71N/PHkDexINNJgsi2m8PjJ82OkrDwD8XPxJqTHCEJ6DCZ79Tw+fX9ZI3v3oeT9+3kl3ApNfjoJ6Rr0Ll5E+UTR9Y55xEV68NqcD4yWVM3cyIKJoTgC+pIckrNKUFs54x/ckWGvrsXjzb/QNLBn1cgvmfPEDURaG35oVUl5FFs74x/sTeyIJ4jr2ZUv7q2fx2LwM/9jQqC2kfdVWx5Jnz/J/w67mVxDWbkd8m8myy8SF6ApudVnh1cbtp7YjKrU0Do+TMinTzLX2xqFtpK89GRyzp13nUYy7d2+xL91Mz/XOW/TYFciVTHt6DLoI5b//HYDe3iJqbGWKDWHif/sLFjWPYaXeuxr04z5kXlP9CZAU8TptGQKq2xrvncjuf+9nWx+NY5NO2o1sk4nk3D8wuemdgkizscaRX468fnGzpST5DXrhrOCE1medA3KpMP4HNht3iETeXGv0SXa9DlUnx7trofIVtX8MFctQvmeii03jqNTxwD8Rz2B3/A7Kdq9hrRtP1CpbvlgQ3bsCH58+yY62BqmTKmqKKYoLZ0SzbnjbI+drwf2GuPfXK1jR578dDrjvBUotFUUqk6QV+mIbaAvAZ1v5uH3e9P/jRnM/iu4TrmStBROul746TbkI1BSkZVIZnH9RqdF4WnyTAyFsDi+mr8SbyC6w2AeDdzJG6edm/z+ve57nMXTDOP+LUozUZ0qpcLOg+CACLre8TTf9/yRpx/YXXcYRloBRYpgfPzbc+HKEIaXixqN2gp39zDgXK8KS4Jd7FBoCslMsgezPpD3ZOqip7g/ygqooiIrnZPFSkMiw86jeOb7ngx+exbP/RlotOwdS57ngTBqymaSWVyJpUswIUPu4a3OG2Fzw+ef6papbH+yG95KPQpNDulJRWhdggnxjaDXjNdYOXA5Tz2yq94QFovSbRzMGE+PsCj69spl9SFfo9t/KNYfKCRlWxZw0XfXroy8xBPk1fyp9A7C39kPv55+PNyzHxNWvcVD75dffqLIBgzzswd0nLyEfKKXdr1dxo6jT3P/4BDi7hzHX/9db3r7PR5krr8e2+wj7N7hWjfOCajuXcdb09rhTs1vdWoJFXbetPc35IyK6x7L/834t9FGroEdqtcXGIIGhTkkHz9X3pvYEc8RExvJF/c8RWbtHlppySS4X5hxQ+sZSUd3PRXZJ0gtrv+7YlV4mnKz9fA6w+mkkyScn1bkXPK+Ss4knabAyG60GcbuEW0py04moeY5U7WdN5GeLviFdcfvse4MuGUES558hGwjjb2ykykkVOvO7ztMaUd27DvMfGMi3ZVFpCWdrDkHvAgY/BCzvHW8+vhbdbahGvkD854xNJSVmiJUyXmUKmxwCo2iz4zFBDt/yvYGUrdc2n2GuY7dpTLTeW+W++PWY457NGO+2mfNBwNtcPWvaNL6lT79wAmcky5cf691EmQQ56nmzmdJlBXW+Vv4ZubUWtOhBaN6fCkLbg2j2+wlnN4ymv3lxq/GtjePIOroQv73ypu1IoMXyne8ayFHf5xMwvmbp2CCQz2As6TuXAhGJrtpOhd6DHVDvfbf/PedZbWeJnRCNX8ZS3pEM+b5jzl879OUXVQy5NcH+enXi7cXjGrqW8y5qzeRo+cyOW19vQBJHX6j+bfrIVY8PYujtSK7qq4fMfONUXTr+TC3jXmKH1bVvenLjl3CrEmhOOoLSfh0Lj99v/r8a1rH8WS8+irfTYrD1ASnWseXmDrrBiKtKslfO49Pa733c+WXdBnItDfn1Pvh9QqLJCK02vR7qseHStdioKEG4lIofIVqdx+U/lrIbDzpWlcvW0BHRrODDMFkzH+KV7yt0KX9zpfPPVyrt00wqqkfMu/+LnScvYRTF523IV9tZPVtMUyMGkCP6vnstTT+A6Oa3o85VqDYv6HeOpdz7C+wIWxSV6xNnrfB3DxjCXt2XDhvLz5fz/VsUCd+zk+mnoI0c8z9wexypgSBZ3tgd7OKNqrMN5bAds3rHVF0vOpCkAFQVq7FdvU6jq8Lp7z7o0T3jiag33Tc+oynNGETp9Z9Q3lFiXkrfp4zzz8/nA621ZQe+JJ33jjAlvzmPJmwZNRb9zDOW49e9TvvPrO+1pNzSyKn3s28B2Lo/PRLzNi0uE7W/fRFnzOj1pbO9Wwo2PoSM0xlmjdxbkMV7/2RxJ0x0fS71xZea1rtVf1v44tpwbjoi0hcPJ8Xfqg63yhVe7dj1tsPMDlyCnNfDZUZvAAAIABJREFU3FmnZ0LIxgLOzFXg4xoKGIa8qYa440MOx+Ld6OPijbM+rWZbkfi76bDMz+SwnXkTN/rPncn9UVZY5m9n4UPf8/3Zc8fXEr8nHuezcf70eOpFZmxcXG/GA6tnHuKBMLDM38uX/8/efYc3VbYPHP8mbdNB23SmlKYJ3QPK3mUIojIEBFSEFxFxoOAeiAIOwPlzojJeRQGV1wkishRERfYWKKMUSFq6aZu2tGnTJL8/UkpH0qY0tVWfz3V5edGcnZNznnOf57nvhSv55M+rbwdNXfvyypxbmByXYXPdRs9BfPlINxTSctK+m8XDHzpXO3ZdWLB4CoPjbmPe3N01jp1FBa+dSOfeMAVx15XBUWtr6EXf9hKcis+wZ0MIeNT81HpeC2ciJ01i3pROKEfN4rULdzOj2UrYOqMOsATe0lb614mB1Kcp11ufLw5zbPD19OxwK4HmLXV62VQZ3gE1kH5gcd2eOImrmDc5Bj/q3qu/UtxN6P/NZnrkJO6bc4A3X1lrdfEmWU8e6nyJXQvHs2376WrzP2rJS6Uax7hHP+eDRYerPlMvu4Vvq29H5Zvboh0xfGvrN++wINFaCmevrbb+K8n7tJy8rzFlCN9F++C71B6YVZVrK3wE97z4GC8/tajOnCGvDalcv2XdSr9A+kztS5eMjfz34auBicz4N7nn7fF0ix/BUPX8qjf3Rs9nGPVgb4IprXPeQAKaWUv5cPgwYmzGBq+1neGoY3ftHHHeO6R93EIc00azTr3ZiYzH3fEJKuX+IkODyXizlIEozFCWf/Ya9+bvR+RkEAAwer7MpEQ/QMOvz99Wq966FvX7U3nsaAUmWScGPzHexlJ86NhmD188+XqtrkeV85+SUOGVQMfbq99mRhDvB5DNxc1NHYsfRGj25yyucQMBOIb6mVdZniuhVNWdvmq9ncvTol59B68t2kcGbnS/8fF6p5aFu3DhrRtqBBgA1IcfYvFXpzHgRtzAt+rMV3b3IBLMUL7zvRqNFgCn4rWon3iVD7yj6GXjBpj25GiGuEDZvtfq7PuV+T/NlmCOH8HQWvv+zcybGDlyZCP+m8Cs3xtoFUpngQKcTTrIs+8S4yaznG+XfmpckjJN4kLmxbrgUrCD/z30YK3hPFrUq29h3q95mGSd6Hdvj1pzv86GJAMmWSfi76knaNI7Fhf0nPz9yTofNeXYX6WmY4kjz1vHeDVbAkhxbYZM0OrN49i7YHij/jt1xMPKksxIKlJos/dJLn4wjd1fb+VojjNuHUbR8ckv6TppLj7+/o7fAXrTNdSItHQfax9sbIDB8pB+V6wZp4KdLH6wdtf8Cs6uXs6T24swyzow5MG6Q8wcSf39FnbnOOHVczITS+wJODrzxH96ojIbyPn2KWZ+bajx1ts1+zQfzvyRAwYJ/n0m1lrmeXJ0UpzlCiKu5PqICSKoLJ/j54uo8FcytOzK9GEEyk1U5KWxx2aQpPGMnoN4NNEbuMgvz35SLcAAUEHGovd5688KzLIOjJpdu0XelXkD/QAdR5a8USPAACA9vJs73zmEV4y1HhAWIU8NooeLGcOhZTUCDACu2Ud46Pk/0ErAd+A9POxU9zfvsy4FrQQCut119RhWo7mtEz1dTZjP7LFRmtSaCs6uXsV1i46hk7Sh07Bb8W62zkASzFIz6OCMT+MuLk253srPreSnVAn6tgn06msrr/tYEuP9AQ2n1+yu9ZkKJg1EDWStmVnnXu2a/SkZM7/gFwN49ZpInI2hW6WqUHy/GV0jwGCZ/z02vvM7GqBd93uoOzjin+lKrq1vCyVIu45kgLs9PSt9iFWcZuvMB2r0fGib9BSLkyoANeobs6r+nnbvGMa0MSM7+x0rrd1n35jIzIz2JMitf2dNa2e0rKaf97Y0rn3cUhzTRrPFQJbOF6TgZkfuKt+8IrIlYAjq4LgYYCsnggwCAGn/6ccQF3A9sYFt1oYToIXVu9EAPp3G0c5s/QeVsW9JzW5+1ec/nQ64oVDdUu3vUajkZlwKssho8vhBPUd/u9fGZ6vZfaEICMK3R5aNaaxTb/qSzdkSSlUJ9Kgw2ZzOPe0Av1oZvwmg/CaFwxKQKaJrNR7uZlCYC6Dh4PKlNrd9515bY97GkhgbAGg4tHSZ7fl3nAfUhN/cHA9cFia3EZR0WInmkRkoPMFn/yqK9fZ8p84ofCzv6EuzG/nGcogl+p792zs2u7op3/mVfRIISZhc98Oth8gAors/YnVeo+fLTIow41Kwnz3rVLU+ddSxb57ztskqG8le1ntktzJmMGXjdOZt9B9PYPeyT/njjA7a9yP6wVV0u+8l/D1az+2u45AIFGbI/PU91pRZD1CkvrOfYxIJyoTxzfjAB6DloS3nKfHswvXTL9oxfX96hYNT8RHWveVpdQqn4t9YeUiP0TOa3qOrL/Ms6flSTJ4+xBks19KOgZ44FWVz5mw2eb4KwkssDxmam4JQYSY/45iVNVy7tMnd6eFiRnLiJ15KsRZcrOCT1UfQSsC70y3cUH71oUczOJ4oTxMuaX+waFvt64GFeucmttvsvRXL5AQfIJuDn++1OiShbdIavjolwSzrQM+pdX/z8nP7OZzljEEZxVjnsjqfD+/aHlcMnDu8w8Y22KbeuJ1fs5wpV3fgjmJrmQUcwYUgef41zNfU6+0OTu49DwQRO3Sq1bk1iWMZojDT5uwfVsavT2VShBnnov3sWLTT6vxOxfNZffAyFV5RxI+w3pvFqWQ/+z+x/rCn3rmL/YUSyv0UqP7i/DItyal4KZsPXQKiCRuf1uD0Bp8EemSuZ6+1HrVnLfMHhDxz9W+x7QA9f/50Z51erBZa+OkkebZW2NR2Rotq6nlfP3vbxy2judvHlb9ROUQX1Deg2cL7/CJIKSe//S2U3b8Wp6i7QPbP/p23nlaX0LKUgQCkJj1kcxL1gcoboH+QjRtgAZlJG2yvo8LSIPL07dyULa1HFrkbQ+pZvwRwwy+wsctdy84MAyZZEG171a3RfkXJxf02bmDgVGyJkFZ4ehNQI+LZkRg/My4FWpLP15Nw62gq1pss/YkMMuOedpzd9d0c9qWiAXyDrGSJarLpaB67gHHWYnJGdiU4bTdeKx/j8qaPmmFdtYRYou+n1tmOvjsV/8GJLAkGv0DUtaLN6i3r2JgrwRDVg94edd+gpN3WnQEuoDu8xkoSLUcd++Y6b/+lzBXIctcg++4eDi3dxKFSCc5t4/H0NTrw7cFeDqc6YXLvxe0rrueWkMY1rkaF+AEXOfWd7Z47TsUnOJflRIW/koHljcmb0njqT/7gwGVXSznLBh5uNINDUMnMDb4p33Q6izLk+EVW/2sFWl0pRp9AYi9beiz08nPHKS+HTWeK0aEgdHxlz40wP+RmAwWahh86GuO6ED8A0pI22ZxGvf8oZ3VOVPiH0Lm4Wk+MDkEozFCq2UeKzaB4Ib9rbd0JQlH6mnAqSGb3Pts/6GVJlqCyr7KDlU+1fJqUD4QRd0ftIISKoWFtkJSfYe+ydjaXb5uWE5l6zLJA1P1bW9fnpl9vlat28YsBfDuMsP6iZGg8aiBpV90cPZrBHYhzAXPyH9WGe1pxOg0DPgSEWQ/SuGam1j8/YPSQ12on/AucSqMYUKjub3BSAO3x56x/cGAT336/nh/3XKj8wwMMCwLQkvml7Uom6nVnOWHra2liO6OlNeW8b5h97eOW0Rrax9VtQ71qPIZvfiNDr+Lc2OfQPKcheMrrzbzeliOCDIJFoCdQQO7Z+rovLmV3LoCCoCE2Yr7GluwEVEaFlSRIDlFaBrji6mer8QiGisbvuy5cjjsgy9XWmwlavT2NVGvZknsEojLXH+AAUB/IIUsCvkGR9Ux1rcqgpJx0fRl4eJOtiqIsogNOzX51GUuiHFwKtFyoL0DDWo4Xg8HHWnBsNbuTcjHJOtFlSu3s9SroEYsLWZzaWjfPgeOOfTOet/9S5X63Y5ywnO4PDKObrBxj9imK853sqnRin0Jef30LJ/RSXGNH8fCqt9iy5gk+f+1mpozwIqxNfUEHFQFyM04FF/jzXH2dorXkXJbUeCBvPodZfEhnXzlLlR9yM2Sda+BNeWYRegmVSR6v2pdXCgQRNCoT8CYy0I3L2SeQn7tEdrkPvuGW6ToGegL5ZJ5wbLWDvoGegI780/VNdYpzl6TVtrNym3wtPTey0uuWWK7u1yzr90fNYAVBmHHOuWizMgQAyXnoJOAXaP2acXyfFp3EhbA+w2suv2dfugZVINOc4EvPa8tenlFqBFzx9KvbS6IlOeJ661S8jNUpEsoUPel7Q+1hSJPoGx+AtPxPTn9j5fsLlRMApF9YXv+GZunIBXzaWavyAxKTfUni/nUK9RQBTm725OXKIi/J+hBH9b43OPn+I5zYvKfyL3KcZOBSkIW23uBOMllWs3U6op3Rspp03tvDjvZxS2gd7eOaTLLu5EdEQjt/nN1coaSMopLWda11JJH4UQBA3she6s4yR3WlTEark9DLJ4hgk9lBJZeuRQKa6c/x0KB4Yry9ca82YsRUWkapzBWwNZ7t2hVEeRHQlPuRvysyQNL7ReZte7H+aZvtvrcC9X8rH8KliWh6LiBt2H3EREciWXw3DT8eVaC55AteIO9+GXKtd8GuKwgvNzB4D2Di9gsNTGt7530+O8KxQdfTp+tsYG7V342e05kUYbY9DKZVHPvmc31l4D/Hnh70rYHEH2PkVDyGDKKHwgUnoDxlJ6c3fYAu3/G/3bZJm5k54Qg3zRjOHb1iCfO1ZOi/q+cg7nrSgO7cHn58/+s64/bBAy83M0bvRGbuTGRmvWtpri7rdZ1edYQzA+0oZ+nlgisQeOvXbLu1gYWaqfP7P55TDHjTJhBATUAbM/kZJ4EALuY7Ea/sABTTy88dSbkWzR/+Dq0sYW5kq0dWLe4e6t7EBCUyy7Gzl9nZeqBAveUox2cmMCC8A1MvH2VFm8rpBkWiMkPaiW8plNjKneNB3+njuXNQOOHebri4Xz0ghtJSTDJXoDnzv5STpfMlTpaHj94E9lYmdcj1Vgu/HqU4thORA5+FasFjTeIwpgSYkRzaZr0bvqelZGHQuOPMG9fw5jbcefrfR3P9/zHh1uvoHeqFu7vleMKVcpZuuGPvcdOh2+sJdsXRFIS4m5twSjumndGymnDeAy3VPm6yZm+jSXCVldufX0Y6j9Qn7yHcnIvT+mcoP/EVAK2t/4cjiSCDAICukb1xK8odVeN1I0l5s8FbQciwLNjalOoS18bo+QDRy2czL8BsKU2UfpYLpTVb2N6hEbRpXDJ8+zioJWK7dGFNHhdqPjHe9uEWpjaqukQxJ17vYzv5o2kn6r1T0cT9Tn777gQqjBTbkWdBZ7BcZr3i9NDIocTSch1nLuTa8ThmvYyjJTHSUBIi+zNUra8ak5g2xZKnJP3g8nqj4Nd67Fu7Xr4AJsqb4Q6oGbaG23s2srrEj4M4ddhK8kepmqIejxObGIvS04zEWETRsY2c2/wZpfoSmrPh51ScydY3PmUrUKbwZ+DAPozqH01EhxAU4QOY/GYMsTZKIUrKdaSez6bhdxgXuejm2OoK1sjPbaxVzrL+6W2VzKytsHbHiPN56CTB+AUDKAmUF5GXAaAlVyehjb8KSCMy0K1ZKktIGtkppHoF0tKmjlopN9jxfV8lqbB1VTvMbym3k9gphq43p7NiuxpwZnZsIHDB5jAco2dHZi+fxrAAo6VsaloKufrqvag8kKuUuDbHva6KmTK9DAJBoW98D52mXm/V32xn252dGd9pBHHGT68OXRjRDXVVgl/byY1tlY2szbGlCP/uVGgWrOHjfpYx7+WXUjmbWvM7NPmG0qGpQTwbHPGeuKntjJZ2red9i7aPHaT52mgu+LjnQT5kyRq+JmgSBoMruO1fxuXKAMM/nQgyCBaXiiHKh4DIcthqa6IH6BsAkE3WL34OOnu0aNOLob0P7fs8CFvr1NZqdmmvPMGLAaUUbH+PpQuXWr2JWEpGOX7d6u1ppM7rhdpXRTuz2UbSTNAMVhJq5VlJvSWN1Gd6EaHbz7cP1q1+0JCc82dJMTSm5ZyLpsC7gWlCK98wlGEut+9mezCrAqKkKGNNjQgyLGV37mxuDS8g84nr2F5qxwlptbvkDk4eTgelmtgxfdm66DCgQt41DLhQOQ6z7ni+ph771q5LW8sDfa5j8+4B0CYzibTT9ZVBrcuYVzOwaXIbjn7oODp3VuInBXPFJXJ/+Y60/d9RZud550iu2ZfY++0G9n67AfCg/+vP8VIPBX0n3kHElh3VxvBbuuIPCcvjzIz3eBk7Wmd2Vwloigr7ylkmW4IEbTRruX9O47vXqrdkoX2mI3HBcZXJHYs5WdkN+UheMc4hCiJMUgLamKlIdWxliSvrADm+MWCzLjCxhPubgCyy1rcFSxqHymEQwfgGWXpb2HJdkJ/Vv18p4RkcGMLNZXtsD5mIsgxJycuxXerskyPpPNlJRXhicOV+9KeLsgKXjCQ2a72s3p9HvTKVYQF68rcv5sEFaVbL2VlKotpcrQMYOV1QwU2BoLzrEvxqX881x11v32X96ZmM6ZZAp1u0nFyvBh5gWLwnzkX7+PN7FVj7WlKyyaA9bTVf8O1zK5uw/n8fzaT/8m4/fyoyt7Lm0btrVS+rnOamr1gwqxeOT01tGQZhaLC3bBRBcrOVmLSj2hkt7drO+5ZsH9vN3Xr/sOZuo2mGGQk2l0IefOXe8HkhqyijXAJOzg21of85RJBBsNDmQJ82hMZ/AFhP/qLp0Y8p3mZklxoa29ZImw+h6TeAsMS76ebxXbUaw3+FZxgZIcM1+ye+W7AEg42HfMtFrDm6LluGi5T7q4hvX0a6reQ0nUOx3sfjD05kjadXePcab+Ht9eubM/m1sZtMAw+H0rHQDgILkikrsO8BYdVpZ5YNcCYgtnFdO3TaSxCupsN9Pdlera54Yyk/3s4vwyYxsutk2nCY9PBnmBphxvX4tnqOadOOvUOdzyaP9gT7OCo7pDtRwblQCsd/DYKmVpetJeDIXC4eaexc1YMM0zE8fQuDAWmRltRf15D+5xZMJnBggfgmKOGPZ37gj40T6K+OY2zBNt70u9oQ+lGTx71hYSQ8nA3vN1AStgGbMguBQNr42i6baC/191vYPTGOkT0nM7Gk0Po0Wy6Q/HhHenccysSS1Y0ok3jFJXR6CZ5+0RDlh09ZTtWQiE3peZhifOhc7kag3MTlIw3kh7gGm7R50DsYZfxwIMnqNJqenYmUG3HOvchRz2r7d84SYAlUdyHCtMNG8kdvBqraUHegCMB50vKlJPhE0bdXDj8etV66ZXp8O8BMftoJbL1VV688xrGJavrG3kyfis18dU8CCS5mck5sYo+ztXtoL3pHSnDO3sn7L2jJcbF+bQ52cM8Ra344D49ESYnoacL+G5ADr7ff70bTbQBRia/A+mVoxgxnpreZwu2rbSZlVG85wcnHexEaP5I444oGkzc2q6xCoA1efvcDW/7ilV/pfSpH3rsYDtnxwNQjAk+yOPT+bZzOtZHs1tvNkaOiqrmyvSrUY1PZs97670kzJpIONjq9OaqdcU3HzpEafd63dPsY0JcBbTA7xYPVPqUDiA50wXqPxeZto03pXo6PuYycFPumDz55Ao0pDlNYd1z4KwdDthyRbUwAQPmFJftsWYeRXB9rLTGRCib1RQ0U/LnG5hv3a6He+RELkg2YZJ0Y8c5r2ChV3Ews4/Wciots7lNm/Ic8FN1c8bilbD5rANR0+c9EG9NM4rqu/jYuSGvZmXQJUNPnubf+4mNnXUZcB5CCNGWX3RdR9bfOnDQEQCS8VdGI/vm/nEAD+A9/jb5Wz1v7XEmMVKrqTl+1noLRXUkww5mDi+qZq/Uce+WOXM5KwKjqSWy9SQftUzK1gq7OmXAe5ge1YPCkHr55KWhWzWb3u9NJO3IlwPD3cPyX02gloBjxMk9E6Zq2sLPZ6CQQGHt9g5UhGla9nKWtQcx/sP0cGD17MunNttdQXjOTSzopRh8Fjyr8cCrK5rxrZVMkOY8833ZEjFZYylemnWjCvlin/PwgBwwSzB1u5IUIa6UUnZk2qQsqMxT++T0/y64+dKs3JnFML6Vc3Ze7e1svK6xJHE6/IFsdtE/x+bECQEH3yb2tHrvM+HFMiDUjKT/B/hX1Rff+4EiaM4bgeIapipjWpR2u6EjbY6sahz9yNzNORVkcttE7JDN+GGOi7e2yforzWVIghPBptZPJ1W/b71KyJB54dYSpl+29SzjueqveuZmtuRKcO1xPnNEM/ePxs5Hg96oVrE4xUOHVk9Ev333tK3eE5FTyAL+YUS1w39GizbWUVVYPusmuOeReLoCekqO2eq0MJfzGOOzNxtQ4WrTHLOXTY2780MY0KrgxHLmtdxwOamdcy7FzpMaf945uHy9lcxaAirZ3pNo3iyYHA6CKecLG+u9iTDtbP4LmbKM5MSnOFTBx3maPuFpMi+A85PhE4RbQvBWjWgsRZBAAcCqew+qdeYCa6+Z/Q0xA9bcwKjQPr+Ddzs5Iy/9k+9vfOXjtO/B54wf26iVIIicxY/U3dB8ca2PaBDS3zUUV4ai0SpaeBCXh3bmpc92+AprrP2DqqyNpe+IQGc31hvT73WgA9+uf59Y7bq7xkdFzLJq3n+XOwmQO21i98p2PWJNvOXYzV31Gh55x1if8i5RHRaIwl2FKeqcRc5Xywwl3kMHAR+wvnabeOZcFey5jkkVz0//tY/Tk2+zLBVWHFvaewoCamHGTiOvaDmn5nyQtr7+ee2s59k7FX7IjVUKFV0/GvvYC/p5NeeKW8PFAM2Di5F/9ksxuyyj58CEyNUdbekOsMnq2ZeQ7o+jvakKmOcnaWkmh1Du/48M9ZZhlUYx650Xe/o8XgdfYAFJvPMrxYikG5Y3MfSH0mpdTtbyqcpbdkVt9O1TBig+2ctwgwSPxGb5cPLCRJTwtuReMPnK6+7vilJdT9SCv3JlFFv74JfogN+vIOtW0fbHGqfg33ttZCIQw5NVp3OFbPSDgTPAjD/NkJ2ck5SdY/1rt/d/Hst06QMGAp59gWqeagRhT17589ng3THuSsJqoHrj45m8cMEhw6Tad92dW1Ag0lCm68MH8/qjMkP/7ct431hfgq+C1I1oghPDRHejT3hWnguP8vNlWj5bz5OiklEX05/GOdQO5FdffzDev3YDfsSM2t722V0+nA23oeOt9DHWzP7+C+mA5v14MBgVMmGA9WGON4663q9l9/BJGjwQ63v4wo2JccMs8xr7dtkvKghbXD3/gkAFkiS/wxOK3UYc2vffQtVBv2s2OyxJKldczZd4D13TP04xbyJc/bGDzF3OY7NzI9tSuc+QBATe+w02johucXJddDKiJm3lznc/KFHfjuvRtFjgf5Ueb2WabRvnxZn4xgDn+bmY8NanW8UpAM+t/LPW5wG69jV4sDmtn0OhjZ03Ywx+zZsMGfvzgHvobGnPtbex53wzt41OWgE+XcT/R1o52inLNQXYYoKzDOP5z+4Aan5UpHuWGF3qSf/Cc7fmbqY3mfKuUQQHnQQuL/7RdGrUmLZy8CARijkl0yHa0dmK4hFBFveAZ5oQs5uWoAdz+VWplgiN3vNorUcpAYszi0Lv3NstwBvm5p1j1tI6c2ZO5OaQHI+Zu4uZZenKy0siuTDLjHqQkRG7JSKxZ9T6rUpr4BhCApWz+eQLDxren19u7iNWe5aJeArjiHaokxB04/QUzf4lkbg85oROOc/uoLDSbPmBvVYmkplHvnMuC71fw7i1hxN33PnPvmEdKRhFlLt60UwXibzzDT4+fwnuxtZrp4FS8lEMzXNG9N4O7lf0Z99pGbinVcVGbS3Hldd89SEl42T5WTLizmSt4jIV2LkAypDTuNvz6SmemvOtD2E0FLNqYzSMXFHbMpUU9ZyL3Pv8p7w5S0fnuN+gyZT656VfPG7M8kPa+pVx4S8139SQWVa/azMZbY7m1//NM8jFj3L+RAw2MB289x34H517/lkNvj6db/DRmrplUdQxMLt6EtvUma607Xy5vuGt+9wck3NguFVLh3R+V0Dy5uP7WdOHjWfNxH4JLSpGW5HAh98qDqgdyVVsCKrucS8rT+fV/X5MibVdrCRUceO4VFrz4KLMGtKPztOf56i4DBWnnqhLxOcuDCfYr5cwbM3l0e33f22HuWtqJXU91RDH4Ub5K1JF1MYuicgkmd3/aB+o58OpjzN1p77CMwyw+NIrEAW1R2QhYtE3azMPPGnjrpRF0ix3Fw6tG8aAug8zM4soka5bjoLzwHYkP7a8z/5G8YkxRMXQOlnL5+NXeCk7Fl8jW+9CliwuQWiMfgiOlL1jM8pAnuCeqH/d925PJGZmkF0rxDlcS6GJGYszmwNsL+W9F3YfI1Hf+y+fqJ5kc1oP/vNOZcRmZpBfqcZarULd1xSVjA4/vUjNnoPV1OxX/xh2LQtj1eDeU49/h+1HZpJ7XYaycH4xITn7DgoVS67kBqvHZqEE7Lhhl/8l4yo2YDx6qpzTmKRZtSyVxbAgDFy1ijebKuXb1nJWc/Ip7f4njzV4ehE5awEdjCjmz8X/830/Wl6n8aCPbE6cxOPgGnvvhOmZUnr/O8mDaBhZy+OlnmGN1SIiZOZvMjLlXRtykch7epG8goHLl2DnueuvzxR6ODR5Bpwn3oWhjJmPrYqs5Kqprm/QUi58tY8pL/2FgzFimrBgLBdmczS6q7LXnindoIOHa75g7Y06D+3Pt3mX9kr70eqoXwYOf4bnEB7h4MYcCg4QKdwWRAfkk/V9HNv5mO8PBU9f3xMupAqNPPwbelcHndtwbrlCve5hZvTbycZ8gej22hV5Trx4DlwAlYSU7WDHl3qq3365fbOZQ9/F0G76E53tdTcLnEqBE7eeKW8kZ1j+9Ff2rPXHbWCiLAAAgAElEQVSNncatS26l5MRafvtgOUk93mTKPV2wDAR0xc/NDKiI++gXgiq/L5eC/Wyd/azN78+peD6rl8QT90hvgoe/zHPXz0JzPpdiiWtl+7aApDdWkPlAgo09dmA7o5HHrq6h3NYvBFdMEHYjo69/nj9sJeK2onHnvePbx8qPV7Gm/2zGtR3K/WtOVx1DszwQdUApZ2bH82O1YSROxXNY/UM/eo1vT/j0VcydlE1KRhGl7gri2nnhdH41913oR5/u4DXgNBPDUti19F40510q53d8G83o6czKWy/jZi7n5Hr41cbQM2sC09PIloQQqh5L8U7HPEO0ZqIng1DNVtweGM+9X+/heF45LoFRxEUraWfUkXNsE5/NGsf6Lc2XMblt0gIOT7mBe9/8lp/P5FJglOAfGklcdARx0RGoZHpyzx9k14qX+fo7x5XLUS++i8eW/87xvHLcVZb1xUcE4KdLZteKWbw2Y05VdmKv8EhiOiZyXT9bPS2uhRb1+0N47JUN/J5VSImHgsjoCDqqvDBrtvHds3ez+5TlwicxgsHKNdA1+z3SJt7AjA+3si21iDLkhMZEVB27IBmUlJdde/TdbvLK0KUbuDXularipJ43f5ODTMroV0pZGG5vUrljqOf34LGnlvDNwYuklUvwrnbexHq74lQq4bKsoaj5u6w/bcDgIycYPck7n7Nr7a3l2LdNeoo1U+azrPIYXPntdFR54YIeGN7gMvreLmX5LZm4mcvZ+yFskf2V+VH+Pgr8C8jL0wMuOPmriIiJqvwvBDnllGakcnzTx7ww+Q3m/Vw7wHBFCb+++CrDnvqMHw5mkFMuRa6OqVpWmFyKtLQCnR01D9UbVzLhyTVsO5NDobENirBoImKiiG57bUNdTq86wpkG2lrSw9t4evQ85n79J6ezijG5t0NZue2RkQrklJNjMFodwrEpPQ+Q00ZuqixfeYVlKIWnpzvOl2rlQ3CoXFY/sJC5X//J+XwjUkUoETEhBFXoyP3zJ5Y8tdBqRRCwVBT59N4XmP1jMuk6Ke7BoZXfVyGZ21fw9P3b2Lcrm6x61q7euJoJs1bx/fFcCo1+KGOiaB8oxXgphcP/e4sJM/dxxI4x//JzP7Mn3RlpsD9y82VO7qw/a27RB+/zyPJDnM93qjrXIiMVtClIZt8n85kwcx/bJRLABXl4DOEJPRna3/ZIeafi47w09QM+3pNW4/wNk0sxZeeSK7X9/VV8a+C/Z5TgK+WxxVnc72xfDQBHXW/l577kp1QJZn9v/NBUJvhtmPrwHH4bPYp7v97DkWr366p2A5BdXtbswxjUmyYw76lP+OZMLgVGOcFhlut95yAXrCUqru3NH3aTa5LgnPMbP34W0si1a1HPGcG9y3/nSFYhl72uHoPwyjy2LtX23xKc+YT/XSii2Ce06ruKlOpI+3Ul700bWtXGMfuHEhfdgT6DBxFgMoN/KFHRV75fJUEyADeCqn3ncdEheJjrP+DqdXcw76nKbag8Z+IjAvDPO87PC+/guy1X73XW2liOa2c07tjVtZUlv56nyAjlZ37k8+2qBtZXU2PPe0e3j52Kl/Ln1Jd4bfe5Gu2UWG9XpDmp5EjqPpaqFw+u0z7uEGAia8cyljz5LBSXYQDc20YR2aMPPSJya8zvyDaa0VPKh+8WM0iehfkkzPihcce/3K11Dj9tLhK1Wm0GCAsLo6ysjPR0+7uuOUpLrrs1rH/s2LEUFBSwfbu9A3uEfxvN4K9YMLcXkWe/YPb0uS29OfXSjE5G0c0F/4NvUrL+g0bPP+1lM893SwOjCc0++OFrX9YkeXG+FZaF+icwesKwgeXcNSaX/iojYOLwOzD2p6YlJBQEQaiP0VPK228YuC0sHUpNJP8OX673Z3lK84zOFwTb3uK6X8YxJH8Hy8c2d49P4e+mQ7SJG0cVM6l/IYFuZkxnTcx+sh1flzfi9ZF0Kpr7X0TRFvy3TKRkt32Bzb8zMVxCEP4OuluqS+RnHG/pLWmQ8pd1pHW4Fbo/hSlmKkXpOsqcXYnZ2wv96Yb73n8yR0LWBCWz7shC3dfAw311PIyOsl0mYhaIB1/HcWbF13Cd1/nKf5swpsHqdzyYl+SoKhWCIAjWORWbeHqGE/sfacucm4qJuqmYeTflM4980r4x0f8Tcb0X/hqa2yLpagbXzFQRYBCqaB50wTy6Ws4Ho4m0H+ChD1R29TbT9N+Ej0pGAa4QoUThBF55uzDu/ecHGEAEGQSh1StTvMykocFAFsc3LwXqS07V8pyKn0L5vpa00fdBeACK6ACcTWVwohdgX93CDV9J2PBVW/qPKOO2TpkkBEOpncmIBXuZuXjmHOe8ID0JDv/ky1vn/z31mwVBaB2+XuTC/z7xZeKNMoZ0yiXaF7Qt07FU+Bcyet5N4rjOeGLmxL43WnpzhNbkYgXnzpgw5MGJI7DuJyW/lTo1mC+niqeCgkh/FFLIKy/E/ej3mH98nrK/UTWsphDDJVrB+sVwCcG6BDS3Pcz0yTfS09OMJGkJ8x8WN0BBEARBEISmUaEZ/jC33Tmam4JkuGVu5cNJ9SVdFAShMURPBkFocY+hWnIzPeWBhHlfzfLm7O5amYjGDKfX8uGzryFytQqCIAiCINhrLN6vPcSQtoFEBlwdsukic8W58o20a/YOVj16N+kS8VgkCI4ifk2C0OJCiYuJIL5WRuHSUh3ZZ49zZPMHHNq8BxFgEARBEARBaIwgQmIiSPCu2cgylerIyDxL8uav2PXtNxjEI5EgOJT4RQlCi3uSLUOeZEtLb4YgCIIgCMI/ylJOjl3KgpbeDEH4lxGvRgVBEARBEARBEARBcAgRZBAEQRAEQRAEQRAEwSFEkEEQBEEQBEEQBEEQBIcQQQZBEARBEARBEARBEBxCBBkEQRAEQRAEQRAEQXAIEWQQBEEQBEEQBEEQBMEhRJBBEARBEARBEARBEASHcG7pDRAEwZYELkdNITeuG3hCQMFxvHc9jLFAxAaF1qA7hR0eIb+zEiijnfYgbgc+wqjXtvSGCYIgCIIgCC1IBBkEoTWSTkcz41kUAaCo+mMg7kfMFBe04HYJQpWD5HcfhCLc8q+K6Hj0Q27HZ8MDXD64vWU3TRAEQRAEQWgxIsggtLiCjy7wVri5zt/Ld77E68+vaIEtamkqNLc+hSIAZOm7cPv2FQx5xzHJEigud2rpjfvX0fznF8bcFI7x8HyOvfNJS2+OQ2gGfEXE/b3pWOdnd4asO28gQyKxazmhX45CWn4MpIloei6AYeEw8g3kmu6U5IoeN4IgCIIgCP9GIsggtLjLKec4WWGq+neZPJQuQbIW3KKWdhdEueBsSkW+aiLFessDn7T8WAtvl2NdeXhvnMY9BLdWVx7y+2pWs2Pucw6fviFOBVpSzvtTURVkcKNNqJKoRt4Rqs5J007Ue4egCUqmolsgkoSxsH1dk7dTEARBEARB+PsRQQahxYW8NoRvq/1bM2M7H49v32Lb0/LkIAPf/FTK9H/vh+l6ZZ3lyHlTnT+n+kcyyht0aWc5b6j9aQpy/v7HRL3jEClTetM5OIFAM+Q0tEsJkXQ0Q2bKGoesX3nsaagRs5pO0uJnifJs4oIvpkK3cKRuioanFQRBEARBEP6RRJBBEFqd43DpVi57euMO1HnO/odQb70fttb9u+mJY9DFRPnG3vCHV53PdX//GAPwOpy/B2NsFG7Dc2FzQD3TJkK4P6Dl8s97aNWXbbmP5f/p7wNuLbopgiAIgiAIQssQg2YFodVZAVoDJbIopBH/1BCDwMkUSiRuKDrNq3eyy6ETIQja5CaTm9aKAwwkQoQfkIr5tGtLb4wgCIIgCILQQlpzi1X4i2ju3sySyTG4HXqHF59eVP+0t63j3Qc64X/iE+Y+sqDGZ9UTOEqMekrKJZTkJqPd9SVb/vtFM76Rf4ubfhlHYv4Olo+9E43U2qtue6ZRoZm0gIdu7kLHAG+cnUBaric37QB7Vr/Mwe2nmm0PapMfSyK7a2eCOs6GlLfqnVbz8gXGhOrI+W84u/TvwfjRDAj2xk8KZoOe3KyDFKx5mssH0utdTmb8PMruGEN3ZQBKZ5Aa9VwuTiV950qKvvy87nrHbuKGcXGUbZKgWa2u/Ot0NIufZYwnlO2ZycnFG65O/9wZxsRmkv1cP9Id/rCsQjN6AdIb+zDY0xVPKVTodRRpt5O1+BH0efXFUxPQTH2D6F7hRHm54my2zJv/51dkffKyXWs3eowlbdpDRHVWEu1mWUZJUQ55+98jd0XdYweg3HKIn0fFMUGdiCdLKLax7NyB8YwECs5torzWZ7UTOOr1ZZgMheRpDpL/4wKMSRft2n5HMLndAe0g9OJxLv2Th/kIgiAIgiAI9RJBBgH1p7vYMSGGoR2vp0fFuxxwrueB7LrOeGLmzL57AXW1D8aiupTCycpMciYXb0LbeuMf2hH/CQvpM/gWPp8/ilMnW2sX6qFoPnyHj2Mtg9JLM5NJLpTiEqAkMrw/I+aupUfMvSxburPGXJpu0/noro4ozHWrY9gi0/7IA2//VO80PinJ6EydQd0dF+wbMlEmXwLTbmeURE9O1lmO6EHaNpL40EQCH9nEpdU3kro5y+q8mvGbSLgljnAzGEtyOJ2qI9NdQXdFFBEjFuLSMZ6jc5+r+ZCbXsg5IC7oJeBK1YUo8ILycvCSRwNXggwq8JLhZNBhSHXGsWkVrkczfwkjw2Q4m+FybjJHityRhCrpHH0L/m/1I/PT0aT/nml93peXMCbUkmj0ck4yx4skFHsr6Nb7frrGxJOyp/6150f+H4XP3MYYVzAZdWSlpnLGWUF3RSDKIQuJ6DKcY89NoqSk5k47lSyDjP+gD43GM0FP8TEbv42ocJzNOnKOfArUGj7iqqPi3FmOVP6z1D+UGM9AlB2Hoex4HbpfF3D+ky8aPIKOkBrTASRQdmEX9v8aBEEQBEEQhH8aEWQQgPmsTrqTIZ07ET81lQOfq21M9zyTIsw4lexn/0oV1KimuJbC2WtrJHAEKFPcjff8x5kV1YMpsz/m9SkPtcox9Zp5r/NxrCeySwf46pVHOX7k6lt/zfUf8cRTQ4m/7S1GHollwx6fqzP6qegQGY53I9blKrEnKV4y6CDLL5BA7Asy5CcOY1jyMpLee4WKygdaEyo23LmCwTeGE3zLhxRuurXO8dd0W4XrLXGEm3XkfDOPi+t/AEAOJPlPJeOZ5xijmkTEjEOcXHz1G1bvTSXlod709r66P5reoUSgZd9ZX0Z6qaqtZTjIwU2X7fDvXzPjDUaGyXAv+IOTL0yiuLLXghkV667s+10fUX7gZnJrPehrps1npEqGS8EBji55lPLKN/+ewO/x8yibMRllZE49a59E4UxLgKHiz9c5/uYSwHLsTnuMJW3O64wJTaTT08+y56XXas2rheSLVKhC8OrRn8xjB6ws/xkIAVlJMsU7vOoEZ2rntXAHtKjYMfoNpLf0YdR18whN32ozuORQIQoUgCnvv5VbIgiCIAiCIPwbiZwMgsVvSeQB0b0+tjmJZko/BrhAxYltnHSy70nRNftTyh54gvkXJJQqExl6Q4aDNthxjJ4vMynRD2m5lp+ev7lGgAFAve0+3v7faYoJoustz9T8bOscJo4cychG/Df0Uevd52tuU3eQg29xkZ3DTOT09tjP+VdfrQowWGhRfzaV7SlQ7tER7+G5teZTweiBDDND0U8PVQUYrpBdWoHyxc9ZVwFene5AXuMVdTIUgdRTdfVCEhZIh3Idl9IKKZMHcrVYgaWHA7rkOl3+m8Lo8TL08MfZrCX13durAgwWlft+shyjSwJB026rNfej0DsEZ7OO9K9uqgowXNE2aQF8spe0MKXN9WvG38kNAeCRtZEzlQGGK5xK1qJ8eTnrSkEfMY523UrrzB+wLYkNQNv4aVYvxprhfennBmh2NiI4o0X9wx2YVu7luMSN9v0ftXfGpinQkQ3Q9pG/Zn2CIAiCIAhCqySCDAIA6nWb+KVQgiGqB709jFamUEHvWFwo4OTWFxu59K1ofzuFAR/Cek11xOY6VNq47gxwAePR1ew4Zf0NrHrV92wulCCLSiTS1HydwY2eU8nt/T1pM25EISnDafv7lNk5b87RJeitfqKFlIuAG27Bw2p9NhVUICs5QO5nO6zO7VQyH44XUe4RhfegwmqfbAIdGDy88bjyJz85HiU60KaR5K3Aq3IYiWZAKBFAXs4xHCltdF9GukCblI1kpsisTKHFaf0eNkvAO+aWGvUONL37EeEBXlk7ybBSxQJAfWgZlidnGzrH4WGGjJ23WA2eOJW8DkcvAQoCBtxT5/M2qRshF4qCIgl0t3JexUVYSlyefLqejbBO/duXpORCSWWZzOam3rMK8iC35xyY9CkS9XAk4g4jCIIgCILwryOagEKlpWw+kotJ1omY2/zqfGr0nM6kCDOu2fvZ/XPbRi/d5480TknAp20nR2ysY0UpcUHP6f3P1TPRUjang8EniGBjczyxvYnmpQuYnniWy4lK2p36Fc9l47l8cLud8+vQp/xi+2OTJVTh5lPz+Gt6dyDChYbflJ9Po0QiR6rMr/ZHLRSVo/e6GkzAxwtXnZaAc4UcIwjpgMp0hiGBxAL69I/s3B87BQXibIa05AdtTqI8tpOyIiiVK/CtnjsjMpCOZihIP4DJ5tw74WKRjc+mgh/AGfRrg21v47GzHJeAj19HKx+uheRLQDQeN9Xu5TMWQr1wMhyjeG0728u3aS3klGN0CcKpk/Xwk0OZlqH+4HF0m/agadODCxOXcOH5C3gNv6/51y0IgiAIgiC0GiLIIFy1NQkNEN+v7lvTtNssb/vzT2wkXdL4QfXyczpKAWdXedO309H8PIEscjeG1D9dQTGgQDG8Oca3l0FJGenlrjh7BlCsigRVt0YtwWS6hmQH7bwJBy6lrqx/ulxLkkfvoJdq/r2gCAjCqU8JkAh+Mi5dOkub1FQwyJGF5Fmm85PjbM6mNKVuAKtJ/L0AHRXa+pa7DPKptp2V5JZzsTDrhfrXkWsrJ0NHS56JomyK6vlNqHekkgIY/FRYTe1YGYRo17lmZZe0hLG4BoBHxjFyrjWPhb4McMVJ/teUQjXIO1IWEQWBXrSTWc7pCr29fXEEQRAEQRCEfwKR+FGoot75EV+lD2RWZE8GuBvZUXols6MKesTiwgUOfPYlWH9UQtN1FjdNHE2/+ACCZK44V85+pZyltd7grYFcBqCm/4+p9G9w6oJm2oo5qF+fA4BJNpHUoU9ROGI+HdRKir9+pZnWCXi44mEGbjxElxttT9YFwAx1BtLk6aiQtEPiWwp0BA8oyfkeGAQ68Gr7LLAafLxwMpzG+KebYytLODU8SXVml2p9FtysDa9oPmap9QuuescuUib3pmtID+RmqnqUGHtGcLMZspLX1LPUBDR3zIHe8Qz29MbDDZyrlbNUyVwBnYP3xLqywJVkzhiEqugsrqsepjxtF2qgbiYKQRAEQRAE4Z9MBBmEanZw5mA6tIum83092LHoMABGz0e5P86Mu+YguzU2AgwztvPu+PaWRH8F2ZxNrZmwsMJdQUKoa7PvwbXTk3X6InkNPgDrSMu/On5fM/Rldj3epXHVJc7+r97kj9Ly/6He6I0m9lnyYwcj5xVKbE7tGJdzk0kuavjp3yej1lv9izmcIhx1QDSW5I56ynPPAHlQ9A5ePiqu9HBojsoSdaMe9ZMYqnXeauS8TSUxQYXVT94DzUwMsVF4DihC94cXoIKIEEBL8bY9WLtUGz2mk/bqs4zxBZNRT072Wc7VGhVhbheJ31/0s8vs2h2FBLx2TKE4Lb3hGQRBEARBEIR/JBFkEGrw+eEwx0YH06vrZNpwmMtA2pRu9DJD+uHPuWxlHk2Pj3l6fHt8io7x/YsPcPiItQeMtyj9ZRyDm3n7bdGFy20W1dNlF0O4gUvr4vluiz1j36/WTCBPy4mz3ijM9nfTkGnryyR4hRxcQFbRzF3NtTkcl4STkL4a3vy0wclr9+NQ70gl5f7exAXeUpncsRDDxcrjU1CENFiFtLKHA1mOrSxxZR0gx1mVh6V8hTXTwRcgC+Mej6s9KXJzAC/kgZW9LWwJCLTxgaW6xpWcFMU2hkxcSXrpkqe1kZgTOJlCSVwcPl3u5uIf3wJTIRja5CaTm2b9Mp325JOM8dVTtG8RKR8stjqN9oljdO1ie9ccqqLy25WpABFkEARBEARB+LcSQQahBvm513nv5Eg+ju1OX7WerZobiOsdhrT8KPs/PoDV/unXxRMDpKy9k8NHrHfNru8hv+l0FFc+37jYmKKgeyBhtuIAp9Mw9IkhbvBLsGVZo9asPrSMhYcaNYtdSkK6gwf4ppwgz/GLr6LecYKUu3vTLXIkcvOn19DTIAf04OsTCapAOpdnob0yJCIrB0OENx6V5SuLTmsdvwPpOVR09UIZtQQNr1mdJC0hEVcvcC/IJr96ICAth3OScBLa9UDKahvJHxMhxFbwYhnkPgue0biNzYDvbQSoEiItCSbzjtvcDfXa3fw8Ko5J4cOR8S3JY/tygwvknV1jIzDzDKhkeORt45SNAAMAbq78VQMWAk8nkz2oNyERY2Hnnr9knYIgCIIgCELrIxI/CrVo4cApDKiJGdcXXfgd3BhqxiX5AHtLbAyA9/UGCricedLGMlUUTO9CJ+t9xes6mU0GIFf3oI1dMxxDky/B4BNNTD9rQQ4V9I2v3v+gBuWaXewwgKTnA4y/ydZb679WTkwUCjPok79v5jWtAG055R49UD0x7RrmPwPFYPQKgoBAZCU6qkZdaHM44K3CONDyJr8o81UHbreF8ofdbDDA5YgRtI2w9jiuwjiqD8PMUHj6+xo9CdS/HeKYHi4H9yegm/UHcU236RBQzwYcPUmJBIITv8dahgejxzPQ2R/IJnfH8noWtAIy4HJAFAHKCoiLwMOso/DPL21MHwhu4FJSaLN3RH7kBxAmo8KuwNEyyAVQ4Tz8kj0z1OFx8RfIh3xlB9zFnUUQBEEQBOFfSzQFhTrUn1oeukO63EPB6K4kmOHMvnttz3AxB/Ah9oZ36/QkMHqORb9wDR/EnmP7Bftek6u372bfZQmlyusZf1fDqRhhLTtP5QJB9Hrwc9p6Vn8nrULz8AoWex3lx0Lr63cqns/qHy5QjA8dnvyZqY9Mw82zJbNUJkKEH5CK9PCuZl6XFu/P17GuApy6Pk/8S+8gaxfaiPnXQhGUe8rB11K+8spDr/JgDinIyeoaQCw6DBfqe1q/Nk4lc+DAJSokKkIf+xpPv1rf/Z0rGBwnw8lwjKxPvqk19+tw+BIVEgXquzcgi69ZXSQzfh5M602no4c4Z+PUVX/3GT/nQknQCKKfqllG0+gxlrQ59zDGHdxS1pB+qL6+PFpIOkeFRIXLwOmglOFWdKwyP4M1lqEaOmV3guPrVkXR9Hufwqdvpm/yIU7Vs9Yazl2kQuJGyI3rkHlcy/m/DM4WUyKLwinsr6lmIQiCIAiCILQ+YriEYMV8Vh+7kyHdEnnDwxfnon3sX6mymclfueor1gyZzbiuDzL3+/GcyrAkfTTLA4kO8MaFLA6/NZP1t+5nqOIGbl3Sh5K0Dexf+I6N0nzvsn7zGK4f3x71lM+YOzablIwiDLjiHRqI8vwnzH/4jZrb8NbHrEmYzTjlSO5fc5rc9DSySyW4tYskzDOfpDf+h/6BHhg9OtFv2QY6713BDyu+rZpfvfguHjMs4407YgkdM49ZNz9NSU4qFwotcbgKdwWRAV7k/Sjlk6Vqxxxmm4aAAgILUinTOzpTYl2+Z5+m7M1y1j36H8aEjSX+tbEYinI4l6ur7GjvhqxdID3Sv2PXC8/VXUBBEYb2UfRQwKXks1V/dipJBb2cDvFuOJs1NfMhOJB68Sw2tF3CyLD+RL6rrUxi6Y4kVMkYZ5BWZJOx8j5yS+quXLliIRtCXmdMaA/iZ++sSoBZ7K1gYIA3fjkb+eagP2E9bK19Nd4fdmXdM7cxptMzdPr0AbIycjjjrKC7wpvuUnDN28mf//cqDe18wO8pbBgWzrgeDxDhBaakgxTbnHoZ7JxA4bBwgmbvRJZxFo0eLN+VkpFuIDu3mrW7I4hIkCMbsRfX67KR/r6I0t+tD2VQfr2KDT2eZUzA9XT88DQZ2Wlk6KHYW0G8r57ytzqRecx64tcqGdlAOJLwaZDyWf3TCoIgCIIgCP9IoieDYN0fSeThg5+fGcOpbZx0sv2A5FS8lEMzXmLRiVwuuSqIjI4gLjqCWG8zuYe/Z+U9t7J+i6UqQYWXgrjoCLoPGUZshfVR8ADqxYN5bNFWfs8qpMTDssz4iAD80JObWmR1G/6c+jgLfztPWrkE/9BI4iNCaFt8jJ8X3sF3W3Ip0oNJJicyugP9+tbOhqdF/dFw3p44nw93n+N8sQSXwCjiKvelc5ALoKPEcC1DChpLDs5QLnP7y36gbZPmoJ4+inUb97DuUiHF7oHEhEXSJSySbqoAlECmodzqkACycgA5IZ5XyldeYRlK4e/uiruuVj4Eh9qG+vnxbNiwh/WFZZj9ougSpqRDhY78M5s4+n9jSf890+qcTiVrUc8Zz7pfTnKyuAxJYBRdwiLp08bM5b3/5cDcB2l3KIeUetbue/Zpgme/yLrDKZyqcCMwNJJBbb2RXs5Bs+N9Dj43iRIrAY7a2qSugCwwBgTS0awn4/CceqdXfzGV7d/8xvrCMlzbXf2uQoqSubBmFoeqBYTkykjiovsR2T3e5vKcSpahnGXZj+MVEvwrl9mnjStOeVpK7IkQubfmCjKCIAiCIAjCX0GiVqvNAGFhYZSVlZGe/tdnBW/JdbeG9Y8dO5aCggK2b9/eIusXWptENNO+QKGCgE2PcnnvupbeIEFokNFzIWkPTEbhWYZiZThF522lYRUEQRAEQRD+ycRwCUFodSkc6U8AACAASURBVHYS+NNesu/pDcPfw7n306TnlkEbPfHfDOdygeiAJLQOmhE7cfXRU+bsA2H+KCQgP/c9xSLAIAiCIAiC8K8lggyC0Ap5pE0gaOlCskaOAaUShR9crshB0sYEIsggtArdwSeQsmgZCiBPX4jnHx9h+ON9WjJtqiAIgiAIgtCyRJBBEFopt6y5qD+ZW/Vvd6BY/GSFVuMg6tXRVf8KAYwttzGCIAiCIAhCKyFeiQqCIAiCIAiCIAiC4BAiyCAIgiAIgiAIgiAIgkOIIIMgCIIgCIIgCIIgCA4hggyCIAiCIAiCIAiCIDiECDIIgiAIgiAIgiAIguAQIsggCIIgCIIgCIIgCIJDiCCDIAiCIAiCIAiCIAgOIYIMgiAIgiAIgiAIgiA4hAgyCIIgCIIgCIIgCILgECLIIAiCIAiCIAjC/7N33/FRVWkDx38zk94z6ZBeCAkltNCLEJUOAmJB7HVti11XseuurqvIvrqosGJDWRGwIaihSO8lQIAkkCGN9EnPJJmZ949JIGUmJGQCAZ/v55M/ZuaWMyd37r3nuec8RwghrMLmUhdACCGEEEJcPnr17sc94Q4WPi3l6K/7+aTa/qKWqbP9Gb+zEEJcKAkyCCGEEEKINnPzCyE00snCp0WUb9oJV1iD+8/4nYUQ4kJJkEF0mOaNwywe6tzifefUr3j2/hcuQYnEn4Wm31j2jfMnc827PHIs4FIXp1MMS5jO03FOV/R37ErcfcN5YlQkET6uODnZAaCoqeTMH1/wwCG3Dm+/KiCOFXNicTE2/ySVX17Zxseutq2u33A8NGdz8memri7tcPmEaLsiDi9ZwfwSVzOfmXvv8rY98XtmJLZ83/SbvPjlEY158Ny9UxjserxN51HrC+XtJ4cTXbSNhYtOkmh3OY1Gv9R1J65UEmQQHXc6lWS1y9mXBltfeoRdeTcYlpwLslRzYoETy38MMbuc9pN0/hV+nI2jr2Gz7eV0Abq4pFEtLpWxI67lgaFe2Bnr0BflkJ5dB4DKS01Fsd4q+7CpKuRE6inUZ4MM9riFdEfdxvu60lwN6annumwb7TzoHuIpF/N26hsUxvQBUfQMOBdMwqBDr83mwIbtLNAoKL+0RfxTMNjZMT40ktExPnTv5omLnSPs+4IbNssRLURXJPdooq3kLC46LOSj61jR6LVm/HJee3owHpesRJeKA32uWczyH1+71AURQrRXzxE8MNQL++o0fvt0Gx9UNr88elplN7baTF77PrPROx48d28Qg9sYZDhy+ACPHT73uiogjhUhnljqxC2a0jv78uKMkQzyNXVrV+gKyEotowZQeQURpA5j4Kww/rP7S/6yWSWBhs6idGLWVUOZEeeHs8L0lkJXiTY3jWyt3JoKIcTlTs7kQliFllNZToT1SiCh599IPOZ4qQskhGgzFXf1D8fOmEfSskQ+qPzz9MT6c1ExK2EMg3xt0Ofs5LsfU/m6vHGvsh04ukfw6m1DiYwfz2O7v+e16pZDAUXHOLpH8OotQ4l0MKDUnuTA1iS+SCsntU56+AkhxJVCzuhCWEnp+u1oCGHYHfMudVGEEO2hDKVPdz3KwqP8lC+Nys5mq1JxaUaM6Vn908988+PP3L/sZLMAg0lVSRqfHSoBfAiNLrv4RbzC6Z1DTUEcu3JyN3zJXUt28tLxSgkwCCHEFUZ6MogWNP2fZvzN0xge642voz22gLKmmvzcIxz9/jM2rvqxE/b6ADGrnuV6N9NAZWVNNRV6HdozqaT+3NZ9BqOZ+AhzJgwjOsIbT5U9DUNtG7ap0+5mxY23kqpUtFhb7zKS6lseYuqwXgzwtsPWzh4b1bnPDVU6qvYs4N2XF5ndu23mf1iReRVPxU1iiNOH7KxUmV3OHM2DG1g8K/Ts66oqHarKPJKPb2XfwqfJzDe/rYb18r6dy+uxi/hXLxdsgZrUVfz3vgXsmf81/xzdDU8VKApT2LBkLpvX5ZnfVv/5jL9vGteGeuNuBwp9NTptBkd+/4x1H39FbZu/zaVhsHPlvmuGc1WYO852KqCOurJCsg/vYek2LfsVrdzEKp24fkQ8k3r74OloCwY9dRUFnN6eyJtJCgpbHi5mEvg1JEHzYOLgkVw/xB+1rRIMeqoLjrHlx518UGKmh0vDvuP88bRTni13w77bondULHcODSPI2w1bhSlRYUnWEbZsOMYnZrseNyR6OpdnoHa3aRy0S0hP3hzXhyBP03rKilxSN6/npaNYqeu4E4/cMZOrlVuaJMhqSOKpqDnC/97exzIn0/4N9j34zyOD6Lb/f8xIrLNKCZqr8nPB22jEkJnDTpvzN3YaytpQZxe6zOXJdOwML1zDzSuLUPmG8+z4GCLqjz0MOqoLUtn8014+1DYdA6JQODBn1jRmBako3/EVd+1QUtciASaAO/Nun8QIz2rOrP2SR45ZMfBjqGR5CtDKT+vnkgpewxXsrN2j5cLrDmUQbzw8ml6GpCa/D/NUPHDLHMb75bDvw67UG0PFHdcOIdK2isw1y0z/17ad4gCYO/s2ZntsY9EHx9noE8gj1/RjUHcPbFWAQY9ee9piPo2IuLG8ebU/DoU7WPhxmsXEfMPHTOGpga4YTq7hxe+0HFG1o4Cdxorn6wu41rUtqWFryzRNLLgpJpY7xvY4e9wrdMXkpyXx43oNP9RYPq4d3QOa/c8b/17OX4ugYtSAfsyOCybI3QGUjfa9OZ0fKlofs+be7PeqqKukJOMga9ed4OvKtuy//Uz5D6o5/OkfFIyfxFXd7MCgp/zAal5YD8OmTeDGSGdQ1lGdd4R13xxgaZ1di+10vO6EaL8r6c5HdFgwmie+YcGkAFwAZU0JWacy0NY64BYUSPeggYx6eCDDxvXjw4dfo8Sq114HKs6kknzG9KrO0ZdIb3cCwgYS8PBARk6awOLH/sIZM0+eTK6metGHLI4yXSSUNdVUFKWQXHpueaO7D9G1OirNlPtM7Dvc9s/rGeJguuM1VJWQezoDbe25hR39AvGsKWnlO6wmeeMxdHP7En/PIHYu3N/2r68vIflEWpN9BXoEETf8JvoNGUvy4qf59n9/WFy9ZMDL/MM1h9QTStyCIugeOYOp7/dgTqQNeWlpZHsG0csnivF3vE7a2nvJVjStBM2da3l7bjRqwFiWR2p6GVWOvsR0i6L/ja/Tb2As/77v+Wb/8+t49P0EIo1mWwlm2Wj3svSFT9nVhoZcuyiCeOHW6cS71qDXZpNeVAc2rvgE+RM8bDIv905m1ae7zF589c6hvHv7CCIdDCjqSslLz6Dc3pNAfz/Cr53Dfwfu4D9LUllr0zTQ0ziBn8Hdl3AfG1DCmISJ3Bfnij7vFOmloPIOJci3F1ffqcblozW8VdVo9LzSg7/dOYV4dz0YdJRkZ1JcqUTlFUT4tXP4JPQHPq1q7Yvbc9O0SdwY6WAKZuSnk1VqNI0tD4tnUlhf+q75wkwjrYbs9JOkOxoAN7yjvLBTGrHtHsf7M3vhVZVDVmoVOmcvwvz8CJ9wM+87L+bu3dZorFSiLVFiCPMhQpdy9mb0Ji83FDU16Oyd8bfV03B5qvZ2wc1opKi0BOicxlKxlzsuRqitqUYui21j8HBjuH8gN97cGy99CXmak1TU2eDQLRB/315cc1ckMc2OPaOxmmWrthD74Fhih1zLS8dW8WKxK83PIKOuGs4INahOrOOlExe/gfxggCdQSr6mc4JaF1J3GDLYdKyK2N6RDOqdyLKTPpa3bx9BnwA9yvzj/Fru2GUO6fKQAVwbrsSQlsg7R50uqC+twdWTIMdQXr1tNJGqKkrOpJ09Z7aWTyPt4Aa+DrmJ2yOHckdCKjs3t2yE23aP4+4Bbih0R/hueSFH7LtIxVnpfH2h1zprsgkfwNOz++BVW1R/3DvgFuKPd+xo7orQELR0PR9UOLRYz7Z7HP93Qy/UCiOKmgKyTpVRgz1uITGm38sPv5Hd2o6VHjw651rG+qpM19ozaRRX2pp+c7GjubNnDPGfrWJ+sfnAYkOQys5oCuRk5lRSY+OKT/BwbrgvksilydapIAtcxl5FpDGD9FRHfCK64TLgGh5yLCfat5CTJ/NQ+YYS5BvHtPEaVvxc0eTY7nDdCXGBusoZVHQBmvs/Y8GkANxqcjnw2et8/81PTT9P+ITHn7ya2Ni7mPv473zw3nYr7n0Bp/+ygNPNy9R/PtOensu08Enc/fI83nhyofmyz3uVxVG22BXu4Zt/vsiR3a2c8BXNowyjCH/GFGCo3v8pi996iWILPQfOJ+TTtayZ0ZMbhv2Fbu+3bMxbXK9Z8kyTPmjmvc/bU8Poef+rJBwaYjHXQ2/XU3x4k2l/mhGfM//VUYRF61k7a1B9j4oHSF71LNf79iA2VEe25txFXDPic+bPjUaNluRP5rOi0f99ue+dBP3zWe6PnMO9z+/hnTdXNdqrP92jIohoR5BBpc3Fy9D25dvKLm4YQ+q28t/3U/je2Oi0pnTipinjuTEyhqlTTrFhpRZNk14sTsybPZJIBz3l+75h3gbjuSc5SifumjWVqUFDuW9qNlt+0TW9cDdK4Nfw1No9pCcz4nQc+3Ylz2U0BDR2MCZhCvPiAhg63A0aPY2fPH4c8e56DBnr+fC7bBINqrPruPtG8eqNIxiVbrD4vfuMGMeNkQ4oi/bzzf8O8XWlXbP14wmeMJlnNM2CG1Ty2W/b+AxoeAIV4xnIraN7YZv0Lc+vqzn7BM+2exyLbuiF18ABzP7jCN86dvyykVofMPBU10GtKTAY6eaOMXk/mv4hePrWQLEpMV++jzsuRh2n8qvorCBDbSfeVF+5HBgxphe2Sat55bfyJj2FekcN4rEpPQiccDWPH9/Au8ZGs2Hos3llVTJLboym7/S+jF/cqFGjVOERGsctfT2wLd3L4p/L0V7kUZ2x/a7itlh7DGmJfJHjBp1yaFxY3a08nsGtfSKJGhBNSGphs3PZOT79guhmMFJ6/Ag7bTo+7aq1zIwOwsVYwfEdGjTKC08NHXzVIMLP/M7/mT1nxhMcP40XUr7i2TNN97H6p7XE3D2FwQPH88zhZg1KpQdPTeiDWpFP0rItLLPvSnlZrHG+vvBrnfXYEDsmitqNX3D3PlWjXhMqrr1mIn/pE8KEid346X/Njm2lH89N641aUUXuhm95vtm6I4dcxbyRkZS1CFeec92UCYz1VZi51p77zfWZM5I57+5lWbPgkt65B08kBGCnz+PYyl9547TyXP0onZg5fixzR/ij6WDtWKYmRPcDt600BQ8MsSP4dmIw0b6HePNjjan3nfIMb88bTo+gQCZWNfq/W6HuhLhQMghO1JvH1MlhuKDl8IKpLQIMACGJ9/Luwl1kZW0hce2Gi1KqkP2vse/e91hRqkDZfzKjHC1MI9ezG1DNoeWDWw8wmHUdg4OMqCp389Njr1xwgMFkAT/uLUDnO4pR05qHTNoriZAF43h6dQ61hDBozl8sLlmWsu1sQCNkaz65CnDITG00ZGMR2wsA3HGPKm60ZjDMGU0IkLvyoSYBBgD7vE/Jeegr1teC6+CbidE3vhAt4plJk5g8eXKb/ybc8ga/2Fn/rt3PW8evXxxrGmAAMFTyzQ8b2FWmQhkez21OTfs0GmL7M9JLjyozkX8kGpp2FTVU8t/vNrK/SokiZhSPOVSctxyqoABct61qFGAw2bDlBNlKBcqgIEbWmoIGBvsIrolxQFGTxrrlGU1uegBK8lL4628VhEa6YJYyiJsGqlHUpPHr5wcbBRgar6+hRhXAgCFtmHtA2Z0ebOeDtbomXYRrsw6zO0+F0SmInj6682+nDb4pLAXc8PRq2J4rfmoDRaWZFJd54ON/rsfQTV5uQBG5WV2ly7cAMLj1pb9yEx+sLW8xFOlwyh4WH6oAZShDxrR8KlmTtZ8lB8owqIdwR4KBc805Vx4dF4N3XRY7v9vHWpRYDrFZl4dnAC/cNIs3xgWgyt7EJyuKOq2r/IXWnYvmCAeLVdQFRzNLX2Nh6ypmR3YDcji8tyvNd+9K3yAnFDXpHDrpgrtvOK/cPIH//fVmVj1+M6vmzeTrufG8EGLEwhmvXih9Ik/y3ZdZZs+Zr2/OoUbhRq+R4YQ0D2gbtLyzJokihS99Z/RnQt25+4kxY0cS766nfPca3rLwNLtLaef52trXugsTSreqdTy5X9VsWIaeX39bz1at+WPba2Af+jsaMJxM5O97lS3W3bIzkS+LIolxNn+2qPHqzZQoBUrtbj75OrvFcXM4ZQ8LdhVjtI9ldHxRi/UnjuhNAEZq967lucYBBgBDJSt/2cBGzx6EdsIDlAZZaaln96srLqcGqE4/eW54n0FLcZkSo5Mbno3GoHW07oToCAkyCAA0s8eS4GzE/shKvluXb3G5kF9u5L+33cqx5JY3jp1FVb6ItfsKgR6Ezco87/KXWuC/1rG+1jSdpTWE/Hstm2vBLWIEPu24hikMrfazr3cHcyKM2JTtZvPCrWaXUJW/yrK9FdS5RhE7KaftBbhA+w7tZF1iIr+10h24OUPaQT4w2Fv4VMvHh3IAH0L7NP3k9ugI7Iw6UncdNd+gMOSyPKkI8KFH//MHR7pF2LJva8sbe6Uuj8wSJQYPT2KrTTe2Z6K6E4IRY/I+Pla2HMYBwLFjHK42f5rO7xFMpK0B3eFdlr/7sSMcKFXhEBXJxBoLAbp6daHReBzZaSYngZ6DZ0oBH3z9rfN8yye/hHKFM84eDceoK57ORiqLj5GrVaD29j+7bITaHUVNERkl1moweTHvumG8N23o2b8VfUyNCmXkmCbvN/y9Et163f0pKVVo9u+1mMNi65ZkspUKHELDzgbWzjIa2Zi4ha0lNtgPuIGXQwtQKBSMGTeafm4GCvZtYKHWhc4ZrNDAiev6x/Da9DEseeRGPr19FL1sUvhj2XLu+Dq7U7uMX3jdVfJp0hkglP6jzAf8GoZKqPKO82v1xbtOn58Xvp4GlNp8codezce3DiFOrSf/1CnSU0+RUaLCwTeSgbPmsHiiK730li52NuiOtnza3CD/wFGOVCmpCwxlfEXLI6g26yBL9pVi8IjnvqlOuAC23QdwTz9XlEU7+GqDtXLPdK72nq+tfa27MBWc2JtloX4r2Z1RCfjgG9T03mVSYDeggpQdGou9d748mE65hWL3iQnCywg5e7ZZ/F0nbU8mBQXdI3s2C3KZgmOQzo71lq4DlXx13PJ9c2dRGM4fBO1o3ZlzIfdo4s9JhksIk74RuACnj797qUti3rFMyq9S4xt8H7DOzOfZEBVA71uPcbriJXau3dGOja9mV8YsRgXGM/2j96j8+7toMi48mKEqf55lSTcwboC1prPcwJ78u7ja25cQvYF8K+Yz0IztxT22YEzaQnJrT+2OZ1I7NBrvsM5P/6jLP8OifGjP6ak4WwP4W/w8I7OYcoUvajd3ONt0MT09hwyOJbmDhYdXB9KyKR/igYfaC2j9CY+qIJ1tmAsYlLF762aKbbUcdDRdzWf5eQKQmZUBBFjYYiGnzqjoH9byKcMEP0/sjBUcP6YFLHU91pKcW8fgSE+CdAZotRdJDqeSzVfC6eQ9rCtQUpDr2cr6bedQUE6pQoGfjw8cA4O9Cx52hRTlO5FbWo2jlxooBVzxdzM1TJLtz5V97uzbmBXUnmOxISmnK+BKt8gws0+dVJ7BhJr5irXFW+B4e7/llS6HzDTLXd4bAmvd1N7EVp9gS4vpJLS8uXovi2/vT/ika7n7NwVj4pywyd3I0q0KKswcqlX+ffjqxlg86nttqSzcNDdmc/Jnpq4uNfOJHTGDBtK7UTI9R/duxPYrZFwbksB1zIXXXeHeVFJG+RIdF8/0jUf53qFpRTUMlchP2s9+VeNzoqmbfVQ7nrYqtdtbSfTXPrUejjgDisoAEobB4WX/5b0cx0YNzh04ugcy/6YxxMRM4ZGs93ngkK+ZLenIzNAC3hb2lMvJfBX9g3wICqwGM8HJbZvWsz5sJuNiJvP3U+vJHxuDiz6LbcuPsNamDb2+uoT2nK+tf6270DJnpjlZHPVWY9AD9cHns0NdPAj0NgA5nExxtlh2F80ZcoxRRJn5bLCPD5DCib3uYOlnbcgjo0hJtIcbQ2oKGh3z9cGxohwOGi2fE7I1+RSO9qF5s9uUuLF9x1Tmmnd55Jile4L26HjdmXMh92jiz0mOEGGidgGKKTyeiuUGzyVUWk0Z4OVgvmwhC17k+Z4f8kZUD6596msm/LWErKxUTm3ayNZNq6k+3VrQYDMn31rBzn9ez5DoGdy2dAZo89CkHmbbH8vJ3LSO6vJ2dptdvR3NgFEMu2Meic9+1L51zZQvtxoMdg44Wrs3XpA73kB2+pLWl8stoQDw6vYSsNTKhei4Sl3rFaMwmBoSNq5OmBqvAB74upsasGn2lhvfjjkl5CgUuPn4MrI2zUxj6Zy6wiL2mw3W6Pn9qIbfAeqDRH7OjkAR2pzWOweb8he0vEkJcncB0lq9aQPIragC1BZvuBuc7S1g5n4oKzuLRdmA2QBK+yl15WhrFAS7uQMVlHdzx9tYyMFMB1LLyjH4eTGyVssWW1MPh7rspvVakHmSdF17nnOXclrXUPZ0nn4nvcmn558JQi6VLVVQXGRj8cYVtGRolQx2tcHFwXxXXLvCZN5Z78/fE6KZPBWoTmXtsnR2qMz0zFEocK7VcuqUBu/muW5ayQujyqm2WL6/f/IlAJ7OjvT08SdhYC8G9hzNnT0HMWnjSp48oOqkp9odqDtDOntPDiUqPJJhwbv4Ps+90Ycqpod3A0Mq+/Z5NssnUUZ26ils2xNkKNdSZKUhI3WOdrgZjdSFhuKw8mP+ltMySFBVksljPxxmxZxYuvWNo//+bDPn0woqii31WjNJKyqBIHtsHfVgNldzJQu+3U7k3UMInjSRQKrI/eUn3qpq/VzclbTvfG39a92FqmnD0/emnHBxNJ637FBGcZnSzG/KCQ93A8qyfJKbD6dsopLiCiWGoKYJiRuCY8qiolaDbfZ5JRQpFC2CDKW5GtJT29ejKEdrreE6Ha07ITpG7pwEAO7WaTt0iCbhn9x4/VUMCXLFsX7qTGiYztIBR8DSKFT4HYcHrubBmfOZNW0IY7rVz0wRNpDhdzyBojCFbasW8vvXLXNNAPgffZJfbtzKVw/exqPxMUSqfQkZNI6QQePgcSg7mcjvH7zI4QNty8EbsvUTVmSObvN0lnqXGRTV77ubS9OpN6uqdNjaddJYPxdTPfvNPMz8medf3HL9Xx5qdY27GKvaN2BMacT+PP+GuvIK2npadbHv2I/OtH4kCfMjSTjv0pYaWucoKkvJtfasHxaVUVyhwOjsTIihnBQPFxxKM8iwV7KloBRdvGlYyR8uLnjYGSkuKKJxJGXt9i2sbfc+W2+YiM7ihqd3DZSYr/+TB/awe8B0RnjoKTvwBx8aLPT8MhoxFGbwxg8ZKC0k1DW0IwltY8UVVWyvOMX29FPnnqaPm82r2o95PN3SE/OLwXzdLdmfxpSISHrEd8OlUSZ5g30ofQP02Jw+zk+K5ueXQhasvoBkzVbOS6HU7uPnE2qL8UrHnJMc1PZhhG8g8ZWn2e96oT1Kmj8Rb0pVkcbnB2N4YaAryqL9fHvQyVox1Iuifedr61/rLh67Dt7/2OFiCwbXeO57Np77Wl22Ze+4huDYhTpy+ACPHW7vWtYKdnW07oToGAkyCABKGlqPqktxQgpG89pKFg/3AqCmMIPUjKbNWYNnEL0cz3cHcJqAlfeybSVsow+lV00g5uqxjI6OJdIrimH3/Ju+0d68+7L5J/Gq8lX4vL2KrwGdbwL2Y65jxMj+xMZ0xz88gZlv9ybsX1P5sZWcFedsbvN0lo2nz1TWlJCVlYGmtvGNnT2eEYGtDAbouKozKaSXnv8uRJ/Z+Ls/wFtrptG7XbNLbOP92a92SvLHVvfrr8bFCOXaEqDhqYKedmWVMyjQWfF+W2GVAeelFKQUUH7eWUwaP8nvCso4U6rE6OFGbF0O3dRuKEpKOWqjxK2onFKlGk91XX0Ph2qyOnFmCdHZ9NToLZ9bIuIGEe+pByO49R/DQ9s3t5JfxeRCgwltUVWSyZMrDvL5HX2IHBxLyMlci2OZO5/5ujMlgIxmZFgEs6v38qmDqSHu0zeMEIxknTiGRmluqMGld74nwg3nBtzP3/vqvOos70fvHMpNfd0BAwZ1f2bHJZGYfPn0ZGifS3ut65h2lt0CRU0BWafL2vCgJJfcRj04lHqwTrrjS8E6dSfEhZIggzApKgc88I+dDOssN4g7g2bOxywY7kXdmd9Z+dc7OV7Q8rDUjF/Oa08PxqvNW03CbWMSWRv/ydeAZvo3vPboEAJG3cHVIYv4XdN69zX7vET4NpGt38JW+qB5axmLB/kx7KZnWb/uiTaNVmw+naXW7FIz6DH/eoY4FJO+7AW+WPKz2aW0n6Tzr/A27LS90vLIIRR/zVes+Ntn7Vz5DFkpaTi244bfRptJ4SW4Yb81xA+oIOtUNeeCDKYuggaPpt0jm6sKcCfAaESZn2fV7qOmYRBqPHwqocRyP8VIN3fMPWExdQmGM1t+tzi3d1Nd60l+WlEJhiBTrggvtTt1ZSVolIr6bqdheHrpcPBwwc54ec4sMcD+Ss+r7I5fQA2UW2oEmvJpQAm5OXZmu+LqnSN4dEwA9tXH+GGTPePHRzB+TgZ7lmZZTIp4MdgVZpJW2g9vX39GVGejcbL2rVJH666StWlaRgzsxZDBv/PpIV9AxfTIADAcY98OT7Pd6C8l+6IqShUKi9ljWrIUnGrrOTMXbb6lSrDn3ilDiLStInPNNkqvSSB2/BSeSW8+1e+VovOvdQZ7u04KA9eX3U3datnBFU9Xcy3q+qFHQVqSv97K/zm3IdjeKM/J2WEQHg1D+MzvX+frjroTg58XpqN1J0THSJBBmBxKo3x4zFXX9AAAIABJREFUX7r3nYsz+zsl5Y9FgyJwIZd9/57N8QILtyBuDh0aLhby/U3MH5PC4rgQQq7NhU9C2rF2EiHPfMmqn//CjODe9KkzsKNNN8AL+HHvXKaPNk1nedTMEiXhk7nOz4j94ZUWAwwwCr9OShIesu4IyY8NJih2MjH6pa0nf2xhNQv/urr9O73IjQe9cw/GhCtRVhxne7rruRgDWjILlAx2DaJnnxKw0C26X0Q3XIygLSqk0codtqmolKdxwjfQD1ItLeVFmL/5jNY/ZBUwr18wPeJcYaPVinXRnCgvx9TYcqfOw0BxesOQCC3FJS6EeJYzRu0GhozzjF+/+Jyqa6hRAErLN5VD1eqLV6BLwofu4RVwyHzTwmDvS6C7AWVZMRlmAy5OzJs9jGCbYo79bz3/PeNBblAA98RcxcNjv+TI5kuc5V8JRhsbXCzOctARHa07OLQjGc3AIYTX5y7Y61Q/VOLkcZY5daWpK00a8rAEqtUk1GhbafB4EKQ2gKHIYnCqbefMInKz7c12gOozYhxTuyupOfgDzx2ro0p3gqUzIxl+Yy8mLE7t3JlFLomOXutqqK1RgMoGO8z/Hky9zjrjt6Ilt1QBrgGER1RCkxwkjfYf4k+Awoi54u3OyWdWUCS9h/0MZpOJtr5/U4DGnzjlMbZYCNZ3C/HBq6vFGKxQd0J0xJX+qEW0Uci3G0isUFAVPIm5D4zo2LbWZZKqgOpuPYhpww2au6stUE3lQUtdFa8m/NoYq41Su5gaT2dprheGNsoVbyNUl5+2uA3NxIe5ya+zzv5LWZZWS51rPNPeuLOT9nEJKT2Yf9NgAqgm54+9LTKxf3Y8jRqFPZGDY81Pmab048Y+aiCfE/utO42hzdEsspUK7HvFMcdSEsOePelhYz6fgs+JU6TWKLHrdzWveZZZtWwXw7GSamoUbnh6O+PpaqCyuKFJaXry5OnrR4TaHaW2mKMOXeum3+NMEQUKBQ6h4QypM/MESOnHwLC2Dk8xNQAggPCo9od3HXOKyDEq0PsHMLuqcyd9bEqHT3R/898fiBvUgxCMVKekmh0eNSZhHOPUemr2rub1+nHzP69bz64yFS4Dx/PMJTymVWFRxLroUWVnss65M57FdKzuAJS6NLafNKD37cUU58r6oRLVpBxK66JTMOaSlq/E4DGAyT2KLC7VUPc2mekW6l6HMqpfq+fMXk4GbE6n8aNjy2CLbfc45g32RKndzafrdJQD+lO7WXyoEoN6KLeMtd6I+K6kY9c6LWdKFRhcQxnkZv56dHOvUDpr+P/36dmAGz0G+lr838yNC8TewhiPpOR0clDgP2oK96naO/hBy6HTOlCGMmCopfOrE3Mj1KbAcxfT0boToiMkyCDqLeDHn09RjgO+sxdzz1N34uByoVeM1ezKUKB3iuea+XPOu3RJXjkQQsxDU1p8pvO9E/tF7/KazUF+Kr3Qk2AwmjmreS3OBtCg+dWvXWvrXWageXcuMxyMOJ4+TFI7nsSbprOsQ9crgZvNBMADt2aSoQDb2Fn09m5+AQtGM+cbnn00juwDJ9tV5rY7jf0HP7CvFuxGvMTjH75LSFBgJ+3r4uobFMk7904m3l2PLvk3/n245SMt5dH9bClUoQ9M4NkEZdMnEUon7pp1Ff0dDRiTN/NetXU7gyp1J/jthAGjfSyz5nYnQdn0xs7dN4r3r3Hm6H4LOUAM2fz3j2xqVD70vn02C3urCFFcPo8i3IrKKcMet2A1zsqiJl2bM7TlOHn2NE1faeVhKtZgq9VwqkiJwSue+wYZmt68KZ24e9oo/I8l0dZJadZkZgPOxCb0YaShvd1WszmWo8LoNIAJYw0XsYGUQVrlSB6a4EJ/Y9My944axLzBnmDIYd/OyhZr2naP47a+biiLdvBpovJco9ig5Z01SRQpfOk7oz8T6qwb2ANAqSLE1tLvRMWA6EF8fF0ULkYdqbuOdlI+hguvu8Y+OZhGjcKH3kN9mB4ZgKImlaSjbR+QcHHp+e/+k9Qo7AmfPIP5AVUtjlV33yjenRKFi7GUI1tOWqj7Ck5l+7ZyzgzBzqgjZc+JlusrPXhqQh/UxjwOrdrfpMfCpsRN7C5R4RI/6ZIGuDpLx651lWw4pQV86Dc9rMU5KrbfKG61P8qBss4JBhfuTuZorRJFzGTe6a9v1mNAxcghCcxVH2BPnvn92xUms/xgKUb7CCbdew2vhhna1etg1a7D5KBAPWI6fw9ueb6fOXEsY8r2cbS8a12noON1J0RHyHAJcVbIR7czz/ARb9/Uk4AJL/L0NU9TmZ9xNiGgrXcg3R3BxXiI5ZNmt9K1fjPJ3+wk58nBBCS8yUujnkFzqoByBTj6BRJetZkP59xLfv3q9l+tZd/AWQyY+B9eHJzB0cKas/sLUdvjUHmCH5/6neq/x2Pf8y6u/8/1VB5Zxab/W1I/rGMU9l98wbPeVVTodRScLjh7c2/rHUiAuz3OKoBqShI/a5GPoSR8MbcvTqBXpY66yjzSChtSA9njFuSDb/1MF8qaXP745h/tH0pSP51lWPeWVzVV+ft8vH08g4f2YeayFIaezkRbq8Bg60Zgdx/c7aBi8yv8I+92hg4MJuaT9QSWadjz3U2k7LJOo9f/6JN8+JyO2165hdGNpvBMzSurzwRgqofw09/xwoPPW2Wf1uY9aBrv9TBdJI3OHgT6emKrAgzlZGxYySv7VBSaPV4rWfDtFoJvH0HkgJtY0reUvMwCyu09CfT3xFYBysId/OfHSsqbdaGdMGwk431MgSGDu6lPrzJyDO95nrvxzdn1O2+fsdzsW7n2N2JvnUh80DgeflTHrWcyKa5UovIKIsjTBuPhVfylfBiWBtKkHdzAq3XDee7aEIKuvYEFV+uoLsjhTKnxXF2o3chNfL/JvNvlIT35JK6hMeKGt9GI0SmKmdf70xDqU+Xs49HdnTefSMNY17CocAzGAg5mOpztGn24tAR9RAz9HPVoj1p3mIp1VPL+uiRibuiFetytfDmyPqmYjSs+QT64lmzngx2u3NrfdEwscCngwB+HWFphvqtt4d497O47hXi/kTzxeDz31B8HNu5e+KlL2fvhr7xVa2HWBfR88cchRtzQC/Xw2/lyUEOCMxUO/r50L9vJS19mWZhatWNS125D8eAMXorVkpdZQEWdDQ7dAvF3UgLVZP7yM29VNTtPKf14blpv1MZcDn1/iLU2TfvD12Yd5PNDQcyLi+e+qRls+UVn1Sfz2bEjWHVtdxS6YvJyiqmoM9WLqa7d6s8bFeRuWMmLnTizxAXVXTNup05ypLIHA3pPZIJtHYZjx88mgeySjm1lkZczDwwNZMDNd/GlroCsjIZjNQB/F1swVFC0+eezvVvM0W3bzN6Zs3j40coW50wwUr77W7P/u8njxxHvrqd89zreap7HxqDln2uTWHRDL/rMGcmcd/eyzL5r3CJb53x94dc6gMObt7A7cgrx3RN44nFd/TnK1nTMOhRy+LOT1Fzfv75cHoxJ2seLp6zU6DZk8/cfknl/Zk/8xs5lyYiGc5w9biH+qFXVnFq9m+z4URY3sSnxFxxrE7gzvjt9ZtzCkrpKtHk5FFeaymjj7oWfew3Hv1jJ/Gb5PuwKk/m/9X68lBBAz+tv4auKXDJzKs+e750VGez4KBvl3C7YG8AKdSfEheoaZ1DRRZwm5JOJvPv9nQQ8OpfJsd3x8Ykipn5aA9NUkjoyc88/u0LILzcyv/x1rr99GqO7uxMUbRoLVlVVQt7JpuubGrklJDw8m2lBQcQ0jCvQ5nFq4y/8vGg+xfkPEQMYvUyf2/oWcWThYiqUCsCbqtIyKjxtMdid21dDmavK89Ck7GP7dwtJ2ZXcoqxatZaywhp0jmDj1Wj/gKFKh+5MCocP/MLWpe9QnN/+aG/DdJZPBJoLnZ8m5PmbuWfe27wwOozQsEgCAIW+moLsvfz6zTvsXLsDHrwdcMAvOgI/InA7VWC1IANAyP7n2TTtGz6//288PCaWHp6+RPYwjV1U6KuprIG8Gh3uRijpgtdRB99IQuuHWipqKqkqTCc1OYnVB0rZpVdBK2VWVaTzxOJC7hrZn9HRvviEhuNj0FNXnkva3q18tbeK/WZuurwDwwkNapqQUeUZTKjnudc2J8qglSCDsqaQNz9dyfUj4pnU2wfPbhG4U0ddWSEnf03kzSQFdYEllCsszy1y5Mg25qQkcdfIvgyJ9MXLJ7RJXdTWFVNb1/SGvdAzgNDIRts0gtHOm26R527MbZRHoRODDKbcC0qi3D1QlqY0GXt+rKQanbMvzkbIzG88I0jXUZt1kIf/m8cj1/RjkL8n3SK9UdQUk388kU9/zWatW2+mKxS4eAYT4hmM6tRGljYK9DRh0PLmp98z56r+XB3tW38cgEJXSVVhCUUqpbncn03K8uCXhTw1ug99A0xlwaCnrrqM3MJOzLCjPcmLn9eZ6iAoHB8VKOoq0WansmvtAT7UNj9H2TO3/olp+fZfLSYs3ZS4hfjQKYyImczfT33BI8esd67zyU5hb7KC8FBPPOrLDIBBR11FLqdPJPHL5jOsNXTyk7121505haw8WkL/ga7YUsrxvXmA+XHXXcWGrb+yLyWER4dFEx3sefaco9AVk59ynPUb0vj6fE+EDXm8/sX33HfNcK4KDyXUVgUGHdV56RzZvIsFGlWLwFRE3Fhui7VHWbiDpYkKys2MZqrNOsiSfUE8NTCWWTemc/A7LUc6ITjXXtY6X1/otQ6oP0c1u1YZdFQXJPPbN3v5UOvOI7VgdDWVK1h5Ek6VWuPrA1Cu2cfD/81pcr6lYf8/7eVDrTdjosohyNIW9Kz941c2HVRzd3wcA6Lc8fSPwL3+UFPoKqnVlVFmZ/7/ffTARu7LDufZ8TFEqP3oFmn6vZac3sb/1p3g6yo77ipVdMlJkDped0JcGEVISIgRICwsDJ1OR3Z29kUvxKXcd1fY/4wZM9BqtWzYsOGS7F8IIYRoGw+eu3cKg12P88sr2/jYtQs/ObdAqVCAAgyGiz28qBPqTunHi/dfzaCy9bxxEWflGJYwnafjqjm8ZEWLJ7+dZe7s25gVlHtR99kWl6IuhBCiq5OeDEIIIYT40zAYr5xM6mPGxtPfsYrUX5LYadN5wzvMcyb46gTeq20e2Cjl6K/7+aS6a02b21G9evfjnvCWvapU3naA+YSIQgjxZyVBBiGEEEKIy0xE3Fge7OeK4dSvLEnzgoueu80et5AI3Fq8X0T5pp1whQUZ3PxCCI10Ov+CQgghJMgghBBCCHG5MNg5MnvkSG6M88auOo0132dzRHVxG/TbE79nRmJrS1x5wwb+jN9ZCCEulAQZhBBCCCG6NC/mXdeHvgHeeDqacjkoCw/wxdeHWKG/snoMCCGEuPxJkEEIIYQQokuzxyfID9faUvLTMzi66whfZBgpVFx+iTeFEEJc+WR2iS6wf5ldQgghhBBCCCHEleDizHUkhBBCCCGEEEKIK54EGYQQQgghhBBCCGEVEmQQQgghhBBCCCGEVUiQQQghhBBCCCGEEFYhQQYhhBBCCCGEEEJYhQQZhBBCCCGEEEIIYRUSZBBCCCGEEEIIIYRVSJBBCCGEEEIIIYQQViFBBiGEEEIIIYQQQliFBBlEC+XBE7EbdB3OPvpLXZQ/HWd7O/q52hNpY7jURWk3g52p7LG2l1/ZhRBCCCGEENYhQQbRQuH9/+SZt95j7qzMS12Uy9bc2bex6vHxvOZe1q71+o6cyEv3zuSvkbmdVLLOkxE7gpfuncnLQzsWZBiWMJ1Vj9/Mv3vmWKlkQgghhBBCiItFggxCCCGEEEIIIYSwCgkyCCGEEEIIIYQQwiokyCCEEEIIIYQQQgirsLnUBRCXnuaNwywe6tzifd/ZBubPbrm8rXYzS2bcikapAObQbfmb3O19hv1PxfLTPrfW9/VuCovjbNB83o/PPyupf/cBYlY9y20F3/HcvU+gSfg/brt7FMO93bBRgUJfTWV+KlsWP8mODcdb337/+Yy/bxrXhnrjbmdaV6fN4Mjvn7Hu46+obWOdXCzDEqbzdJxTi/cDJz3Oqkktl1dqt7Nw0UkS7VrGBw12rtw/ZhDDon3xtFOCQU9dRQGavVv5am8V+xUt14mIG8ubV/vjULiDhR+nmd0uwPAxU3hqoCuGk2t48TstR1QKNP3Gsm+cf4tlbeNvZVW8ua2k8ssr2/jY1dbsPoQQQgghhBCXPwkyCDidSrLa5exLvXckvdVGqs6kkF7astFpq82iUqGof7WM7dsf5u6pAURPuo2f9q1uZUfPMDnaFmXNQY5/WwSomnxaq/bBc8Jy7nlqMN30JWSfTkVbq8ChWyRh/r255oXVxEXfw0eLtprduubOtbw9Nxo1YCzLIzW9jCpHX2K6RdH/xtfpNzCWf9/3PCWKxmtdx6PvJxBpNLalpgCw0e5l6Qufssum4x2BSnM1pKc6nH2t8g4iyMOG6rxUzpSqWiyvLNdSpFK0eN+2e08WzhiAv50RRU0BWall1Ni44hPkT8RVM3m57w7+sziVtTZNt5l2cANfh9zE7ZFDuSMhlZ2bobzFtuO4e4AbCt0RvlteyBF702nDqziH9NSqs8sZ3H0J93FGX3yajEJzM5PkkmsrnaeEEEIIIYS4kkmQQRDy0XWsaPS6oWdD2eZoViwKMb9So3auxw/7SZoWQP9Bc4jRryLZTCMYQDN7OI85GLE9soedlS0b0OBAzE2D8dz/IR+8/A8KyxsapMFo5izktbvjCJj9Bgkbh5B4zLHptkd8zvy50ajRkvzJfFZ889PZz5b73knQP5/l/sg53Pv8Ht55c1WjNf3pHhVBRDuCDCptLl6Gti/fmiOHD/DY4XOvhyX48bSHDQV7fuCxYwEWCtCsfpXdeHnmQPxtq8jd8C3P71NR2LCI0omZ48dya8xQ7puazZZfdC2CCKt/WkvM3VMYPHA8zxxexfxi10bb9uCpCX1QK/JJWraFZfbnPnPRHOMxzblFTT0bnDGkbuKxzRZOLQ7m/u9CCCGEEEKIK4UEGUSHuZ98i/eTJ7O4Zx9633Ca5O8sBCaGxeICnNh1D9BymVqPeK6p/o1PnniLwiZd+08Tsuw65vc6zOKhIQy7Yx6Jz37U6PNgmDOaEIzkrnyIFd9sa7Jd+7xPyXkoiPUr7uTawTcTo1/ZKBCyiGcmLWr/l7brOo3l3qMGEGtroGbvcp7cb0t54xiEoZKVv2ygu99MxkUP4PafNvKByr7pBgxa3lmTxKIbetF3Rn8mfHz8bI+HMWNHEu+up3z3Gt5qHHwQQgghhBBCCDOk77KwgtPw60GKcCBuzGILyzQMlTjE0aVBFrd0ZvNjZCvM94TwWLKDJAXYh4+gW5OeB3cwJ8KITdluNi80P5RCVf4qy/ZWUOcaReyknDZ+rwu3e3si6xL3sK64Za4L63JibJgHGNL5Y72hRS8Fk0r+dSALlKH06Z1vdonarIMs2VeKwSOe+6Y64QLYdh/APf1cURbt4KsNLYdRdJZ9h3ayLjGR3076XKQ9CiGEEEIIIaxFggzCKkK+/4X1pQp0vRK4OqS6xeea2cO5xsGI4nAieyzmMsgla1e2xX24n9zD8RIFNV5+RNSdCzJoxvYixhaMKVssDtUA4HgmtXjgHdb56R+PZ2ax6GAhW5Sd/RPzIkhtQJWdxk8KO4tLKdLPkK1UoPZumaixwbZN61lfpEIRM5m/9/TguWkxuOhz2Lb8SItcDp1Jl3+GRQfz+KFGOloJIYQQQghxuZEgg7CSRaw9UACE0HP6sJYfD47FhWqS/3iilW2UULLTpZXPF7G9AMAe+8iac28HueMNZKcvab2IuSUUAB7dXmp9uctIrYcLzkqoys2qn+3DPFttFRWAo5e6la1VsuDb7ZyucyBw0kT6O1aRu+4n3qpqOfuFEEIIIYQQQpgjjwqF1Xh8sZOkMZMYNOwvdHv/3kbDHuYxNdoWm7L9HFod3HxSiQvgjntUMWjqEyO62GML+M08zPyZ51+75vyLXDbqHO1wMxqxG3gbqwaeZ+E2JKtUVaTx+cEYXhjoirJoP98edALLHSSEEEIIIYQQogkJMgirOZcAsi/9h5WQvcMDAM30sTzkbKR2d2Lrwxnaoa7GtsV7lqbcbE6f2TgvwQO8tWYavds1u8Q23p/9Kr90oeSPlqeNbEqV03IoS5PtOIdyU193wIBB3Z/ZcUkkJrfWu0QIIYQQQgghzpEgg7Ci07DnGLU9o+l/3TP8vKN+BoiRsajRcvT3lwEL0zIC4Is6oQj+8Lbw+Z308wTIoyhRDQ1xhrQ8cgjFX/MVK/72WTvLfIaslDQc2xFksNFmUtjK0ISLyTGnhByFgpiSZOb/UNTB5Iz23DtlCJG2VWSu2UbpNQnEjp/CM+lrZMiEEEIIIYQQok0kyCBayi0FnHFV3wesa9eqIZ+uZc2MnsyIm8Sguv+wx+ZxpkbbYqtNYs+v/ufJAuJBUL9r4I/9Zj8tCR9EP7UR2+Jcchr1iAhZd4TkxwYTFDuZGP3SdvaWWM3Cv65ux/L1LCav7JhNRaU8jRNOrm5tXCOPjAIlUcHR3K43Mz1lO/QZMY6p3ZXUHPyB547VUaU7wdKZkQy/sRcTFqeeN/mjT34J5Qp/nF2cAd0Fl0MIIYQQQghx+ZLEj6KllAyKAHX0VNzb/oC/3gJ+3FuAwa4vsXd7opk+llHORkr2r2w1MWED9/4PNpue8hztLUPpY4SalK2kNtnWUpal1VLnGs+0N+5sb4G7lLq8EsoV4BMWRi99Wyq/ko0phaAMZdws3zau05Jt9zjmDfZEqd3Np+t0lAP6U7tZfKgSg3oot4yF8w2acMopoUChQBUcyuyaugsqhxBCCCGEEOLyJkEG0ULIL9vZXKGgKjCB2+Y/QMvsB63z+OIASQroedWL2I6MRU0ux35f2oY1T5BUMYZb/vUMXi6GRu8Ho5mzmteuUgO57F/9VrP1TmP/wQ/sqwW7ES/x+IfvEhIU2M5Sdw1OWRpSKpXoA0fy+AhbvNoQM0javp3dJSqU4ZN4ZW4ENzepuzZQevDUhD6ojXkcWrW/SY+FTYmb2F2iwiV+Es94lrW+HUM6SVkqDM4DmDXdk/7GdpZDCCGEEEIIcdlThISEGAHCwsLQ6XRkZ2df9EJcyn13hf3PmDEDrVbLhg0bLsn+zdFMXM5rTw4mAFDWlJCVlY+2VkGdoy+R3sUc/Wdv1mzysrD2KJw++4InAquorHFAXfQ7C+bcS77FjgwPELPqWa53O87vDyWhXjCLgcoSsk+b9unQLZIwFyNQTd639/DRoq3my9z/DW575RZGO9e3zLV5pOaVUQuAPW5BPoSf/o4XHny+AzXT+Wy7x7Hohl6oFUYUNcXkZRdTUafA6OxBkHsle75ay1tlTXMkGOy8eOaGBIb7mgIECl0BWRll9TNpqHDw98Wn5gD/+TiNRLumscXJE2dyT4w95bu/5C+bVS3yOjSUx6vmCP97dy/L7C2PstI7h/LuXSOItDWgqKtEm5dDcaUSbFzx9XUm99dPePykT8crSQghhBBCCNElqTw8PF4G8PT0RK/XU1Z2nqeVneBS7rsr7D8mJobq6mrS09Mvyf7N8UhdwaokN3ShQQS6qvH2UePjpSbA0UitUU/+toWkaCwlAzxNqucEJvb1x0EF+YlPsnHXmVb2Ngifm0YSa1/I6bfmsuSYOxU9e9M3OIBuPmrUqmoKsw6y9d/38f0K8/kaADzOrEfzdSJfOIYR7O2Gm5saP19TuX097LDRKyjNP8CxXzah6xp5G80ylOXyW3IB3d1d8XR3x8PLCw+1J2p7IwZDNdmHU9mqa9q/RKGvYtuhIyRnVuOldkLt6IGHrxoPtSceHi446PXUVeRw+GAxqapzQYaIuLE8PsQD26IdfLSimONm8lkYynIpsA9heFAgMd2zOHKkmnwLQ1+UtVrWHUjH3dENbw8XPNTeeKg98XQBhb6G0lPJrCtysG6FCSGEEEIIIboM6cnQBfbfFXsydNzV2H+xmGe9D/LjrCnsq2wtaeC5ngwbR1/DZlsZxSOEEEIIIYQQlyNpzYlOoXnweR7sZqRi89LzBBiEEEIIIYQQQlwpJMggrE4zcTmvzQrFU7uZle9/d6mLI4QQQgghhBDiIrGcwU2IdtK7jCTznld5fVIY/mg5+PETnKyQOJYQQgghhBBC/FlIkEF00Azc/vEw03t0p7u7PbaAqvI0G/9xIxu35l/qwgkhhBBCCCGEuIgkyCA6zC0kgmC7aoozDnN622p+X7aY6vIuPH2DEEIIIYQQQohOIUEG0UGryLx5FW80ea+9AYZFJM9YxGsAMrOEEEIIIYQQQly2pEUnhBBCCCGEEEIIq5AggxBCCCGEEEIIIaxCggxCCCGEEEIIIYSwCgkyCCGEEEIIIYQQwiokyCCEEEIIIYQQQgirkCCDEEIIIYQQQgghrEKCDEIIIYQQQgghhLAKCTIIIYQQQgghhBDCKiTIIIQQQgghhBBCCKuwudQFEJc/zRuHWTzUucX7zqlf8ez9L1yCEl1cmgc3sHhWKDVbX+GtF5de3H1fpLpv2E/et0o+WhRite2KK4OzvR1RdgrKq6pIres6sethCdN5Os6JzDXv8sixgEtdHCGEEEKIPwUJMoiOO51Kstrl7EuDrS89wlwvYYH+RKTurSyUt58cTnTRNhYuOkmiXddpMHdlfUdO/NM35iWgIYQQQghhIkEG0WEhH13HikavNeOX89rTg/G4ZCX685C6F0IIIYQQQnQl8phOCCGEEEIIIYQQViFBBiGEEEIIIYQQQliFDJcQQEPyQg+Ovu3H/7Y+hM3jj3Dn4DC6O5o+N1SVkLPzG75/700KyzsjNvUAMaue5Xo3IwDKmmoq9Dq0Z1JJ/fkzNq76sY3b6YPm/r/x8JhYeni64WRneldXkkenihkmAAAgAElEQVTWkfVsWvg0mfkqC+sGo5nzGg9P6UdvbzdsVKZyFGTuYceyN9i74dh5967zvRPfFx7k9ihv3Ov3rShMYd+vn/PT4i/Ps7Zp//NmDKWnux02KlO9F6au56c3/tpKuTtO7zKjxf8cbR7H/ljI6ve/asMWLqzutJ+k869w49nXDQkrNf3fYPZTUxjn54YtoKwpIWPbN3z36j8oUXT461rN3Nm3MSsol8NLVvC6XQxPje5D30APbFWgqKmkJOsI6zcc4TOtfavbcXQP4NGr+tAn2ANnWxUYdOi12RzZvouFxwwUNvvO+T1HsH5yMHk/Nx7/78Fz905hsKueos2LuXv3uYSgkyfO5p6YTDa/tZF3bVsvS1s05B9oLnDS46ya1HJ5pXa75RwXSieuHxHPpN4+eDragkFPXUUBp7cn8maSosV3N7tunD+edkqgjrqywrPrtoXBzpX7rhnOVWHuONudq/sDG7azQKOgvE1bEUIIIYQQDSTIIBrxwDtsNmXXv8W/wm1RFGZwNKOGOkdfYrq50/2q+5nXJ5ZP75zLyQprBxocqDiTSvIZ06s6R18ivd0JCBtIwMMDGTlpAosf+wtnWglwnImdz9SX7ma+t6nRWlOYQXJhDUZ3H3p4+xI+/CYiB41l54KprF2X32ztq9F88B6Le5qSKFadSSGlVImtdyCR4SOZ9MIqBkXfw0eLtrbyHaKJ/vBmbvU0UnUmheRSJXWOvvQMiqL/za/RK9imldknrqZ60YcsjrJttH9HXEMDCewzg7u+Gs7+f03lxxbl7ji9ywP0XfosMz2NKPTVFGRkklelwNY7kJ7TXufZ6FjuKW5tCxdedxVpJ0muMwD2qEMDCVM6cib2HR78+ywGKks4fTyNUjs3ugX70P2q+/mrr4FXH3mb/2fvvuObqt4Hjn+S7r3T3dAFbdmjTFHAgYCogDgQUdziBBcOXLgXTgRFRRxfUYYDBVQEfsiSPVootNB07z2TJvn9EUZLk7YpAQo+79eLlya5955zT26TnOee8xwATZ97+OzWbqiMxmbHtcQxYwX3vvuHFa3TNkbPLrx87SXEKqooy0+jtMYB55AwgiITuVbdhfjF3zIz13ymjJj4wbxwpRo3BSir88nS1FDv5k1YUCQ9xkTyafzvPLe0jCS7k51mz5IqKoHAgAA4Eb/xxserFl2dE76eXkDDie0DPZ1RaKvJ09mBw+mfb0W+hvRU5xOP7fzDCfe2p64glbyK5sEwZVUZJXbNO/16t068e+sQYpwNKBoqKEjPpMrJh7CgQKKumMQXfbfwyeeprLI3E2BTevP01KtI9NKDoZ7ynCxKa5TY+YUTdcUkPuv0C1/WtnweDqE9mXd9V3wVRhTaIrJTKzF4qQjzi6TvhEgWHVrJrJ9Lm7S9EEIIIYRomQQZRBO1kTN4LiyXTS/fzZq1KSeeX6yaSvhbM7knbCg3vfgIrzz2gY1Lfo+M+94j45RnNb1ncfUTk7k6ajR3vNBSufcy8KU7uNLHiC5lOd883/TOv959HFkvvcSCnoEMuu9j0v+5joONAiWaWW+wIM4dx+LtLH71Yfbvzjn52qWfMeOxy0iY+A5jdsfx2xbzncWG2BHcYNjG8kdP2b/3R0x7bQx9hjzJDWNfZPGvzZeA1Mx6gwWxDjgWb+CbaZNIKTr+pxmB5sGFvHdtJH0eWUD2hqvYWWPLEQ0RZL30KC/4GDFk/M5XT9zbpN2On/uDBoPFI5xO24W+PuJY4krTSJYw3wAG3jaIXrm/8+mDJ4NKeQlvc8e7E+iTMJrL1C/xl8YZfCPoGhOFpxVn66RQWbF1W9njO6AHngeW8+KfVexSnLyuEnoN4/lLg4m/egDXvJ/Mz85N3zutXzwzRnXCzVDAwaV/8EqG8sSdc4OjB/ePH80VUaOZMbDpyASngnJKFAp83d2AegDqVV74GnM5dMiPnl6euFNy7FjeBHoaUZYVcsDJNtdO0v7dTN9/8vGgSwN5wtueou2/MN3SygrNOuquPDLxImKc9VTt/J5H1hpPjlpQunL7hLGMDR/I3WNz+GdlfbMRBWNGjiDRS48h82/mLs1hjeH4uW3BSxXLSzcMYWi65esWZQgvjO+Gr6KWrJXf89QBx0Zt78ezt4wisfOoZm0vhBBCCCFaJjkZRBOdeidQ9u01TQIMAE4FX3L4xV/ZqQNl7/Fcpq47K/VR75rNzrvmsKRCgbL3GIa66M1up3lkCrf4GDGmfscn981oNrXArmo56hnTeeZwEel//twkwKB3f4VJQ3xRajP447mrmnSSAdRr7uLd/6VQRSC9r33SYl1dVUb2v3t58/13PcDcxSnocCb+4nea7Xe8fNCw7rmJjQIMABmoP7yNR/Y0YHDswfAZEyyW3x7lUU/ycC97lNpDrH3xzmbtZjr3UqLjzS+Laau2O8mbOFUKf91/b5NRK0HJjzE3uQFQo74i33Tsv57hpjFjGGPFv8sebm3KSnt4Eu6WxMermgYYAJJ3r2NZmhGDWxcGdapstuctQ3sSTB35q3/iqUYBBgCltpJPfthAsk6Jf58+XFPX+Novo7Rcib2HF2qDaSRHscoL//oqUvIqMfj5MlR7fHtvfLwMNBSXsKsD3ZE3JPTmIj89dllreH3NKVNCDDV8sXQdu2qVKOKHMt25uum+TtFcHu+MQpvG6sWZjQIMJuUFh3n4z2o6xbhjSbehfUhwMKDd80uTAAOAUlvM7O//JRcFfgMGMbVOZ4MzFkIIIYT4b5Agg2jCvnIb6xeZHxvvdaR5R+9ssKuax6qdxUBnIidkmdliKJ37hgD57Pry/hbm7P+F872JfPlx0xwDWeP7MtQB9Hu+Y8NBF7N7qhf9xKoKBY6xQ4gxmB+e75K1nXUWRjmE/ZjGLgU4qjpz6j3RrJsHM8IBnJJ+Y43Z8jPgu81oAO8e4wmxYnpAa8ouT6C7ERT7f2NTuvm5+upFq1hTbb5RbdV2x+m8u9Mv71e2mhutkWp67/1D2xKsaK9c1q/cyKq12Ww1lz/AgqLd29hqb377rzX5gBsBgacG5kLoEWGHsjqJlbvMtx2GHFYkV2Fwi6FfcE2jF8rIr1BgdHclpsHUpsO93VBUVZJWWE6Fpy/h9aa7+LXBXgQbjZQWlbT5fM6GW7tE42isJ/XfZPPTEQz5LN5XAgTQuXfT6yEvNhQ1RowHdvKp0tF8AQcPsr/O0nvowZUx3kAuO/+v0mzeBbvqQ/yRasDo2JU+3Vpvu517t7J6zRr+PBLQ6rZCCCGEEBcyCTKIJpTZ+9AoW7jbebyjF/78WarRMQezqAJUEXebefFaBoUacSg7RMomL+uPHRuGA3WkbHu6hY3msSoHdN6BBOvNd5RrsrdRbfYVsKsydTAb3D3xP7WjHWbqlGQmP2CxdPX2TWyrUKD1CyTCQvntEmEqOzft0RY2eo9fcyy8ZKO2ayxjv4VjbV/Jkp9+ZcWW9FaP0X71/Jak4ZOjOisS/lWQk2F5OH3usVP28PRvWpIqgEAHA4bUtGbTKBr7JbsIrcIT78CmNcqvqMPgHUB0vWnEQoyHO8qyYv4pqaZC4Ut4mOmaK/Xzwt1YT3lhKwkKzioPAn0NQCYH91n+m92dlkOVArx9/Zo8PyHQB4Cs7MwWyijmaJ6ldvVG5WVAWZbO9mrLiTDfzzAFU70DWv9cqS/MY96eAn7RyixEIYQQQvy3SZBBNFFZ1kpiwbQCcgEXF2tmwttARR2VgJ1z8/nemn4BRBjBsSiD1JYCJJb4ugP5FP0e2vJ2ZVWACtUo86M4dA3tHIoe4A6UUZRq4Y4sAPPYXASgInCEDe9Ie7elbKDYQpfbRm13Uj4lyT5mX1H/+yYHPnyIpFVbWjnG2dYALUz9t6TC1x0PID+n5aCJe3kVWo4leWwktbIK8CIwWAvYEe7rTG1xCcr6Ksq0fngHmEY+DPd2A0rIz+5IeQWOd/ILSWshT4RLbjm5CgWGABUX6U42cqCbC1BCWa7l6RAAqRXlZp+vV/niqzCiLCkxv+LFMar8ErNBDiGEEEIIYZncchHt4uxp+wR6mkvf4obrhjEg3AMXF6cTSfBNy1k64wJoze3o50QrXeQWmZaaVHPRikwuanXrstMoyUL5Vubis3e03fxwr9NpOM5E25VTvtXdJisgdHQ1zo44GiFw1OMsH9XKxkY49V1fW1YNeOPmroMqD3zcjZQU5QGe5FUoiAjwglTTCAeFNpvMcgdovurkOWJnXYhbacSp0SAYd6fTu3ANdmDVQp4OZ275WCGEEEKIC40EGUS7KNp7196sCDSzl7FgsOluobY4k9TMpuEEg084XV0sdCyK69ECRqWFee1tUkd+SjYlrZ5WOVml5pMgtle5+VyWFjVobdcDt7Zs885N22kue4VN03tZt7pE6v/OUPLH9rO07OOpKgqaNrBPcTlVilC8faogzxsfjyrKSt2BGsrKlbh5m5axDPd1tunKEraht270h0FBfaPTVzRY3rQtlPrja3K0kc4mfyhCCCGEEP8JEmQQTfj6xba8QScVwUBJ8WGblamZ9CnvDfajIe8vlj089ZTVFY5tM3Ixs5/oj7lBy+rthWQoICoonHi9kQNWZtAvL6iCKB3FPyewdHVIG/ZoeYi21YqrINYb/xgt/GVpo3sZ5A9QQP7fvrb7yz1Wtnek2TEiJ/m5A83zKZzTtivJICnVE5UViTAdMwpsV/5pMg3FD8IxcxPT17clcNQ0SHB8KkEn/6BjyR3L2V9suj+fWlGOvZ8XaoMWH3cjDRkda2UJqKS0Unksp8Rhi1MWjietVBYW8I/DyW1M0yB8TVNCyi0HrmI8vWg+BuTkEqABvr5cqi2zWH5BoC/uRigrKQacrTlBIYQQQoj/LAkyiCbqQmNb7qjHhAFQmv+j7QrtF407+ez8cCIpReZXZ8DTGctdiZ/YnD2BoSHd6XFtBgd+VVtXfkoWuoFdiB/+Iqyeb92+tpBRCAPdCE/4CHjL7CaafoOZ4mnEsTifDFt2FvMrADeCo18FLJ37I4y1FD84h22n3jmfl3ee1SJtyiW3kAydkm5x3bhmdXKLyR/Nq6WqRoGLpxcFgb541BefmBLxfXEFM6M8SWjQ4eNhoLqsnDPZSV5fUsETuOLq0dZxJWVkFSnp7xFOXPdySPc3u1Wv6BCznfzj5anCAiHVUhl+RAZZGoFQTEGpkljvTvRzO8AanflRUA9HBJpqW3hm208IIYQQ4kIiiR9FE/VOnUm81XziPb37c0zqbg9oOLKi2OIx1KuzSFVAXUhn4tuwmoCXhwNQR80eS3e5LyPqivgW7oFv4NCOHMCZbresJ8rNuix8Ycs2sUEHisR7mTDy7C8/F/btJv7WQX3XMVwaZ24FgAiYNAg1ULZ3GTkKy0EGa9vee0Uy+xRg13M0fVzNd8g0U65kmIP5Y53rtju/5bAtXY/BrQ/XXd6eMR6VlNYoMPp4MsPTtHxlxrG7/ar8Eio8fYkM9STYaDzWST5zGgrKqVJAQGQkXdu4+slXKWloFU7E9E8wv48ykBu6+wKFHNrV9Nq0T84mR6nAqWtPJtVbmDsRF0dn+1OXDT2uklWpZUAwfS72MNv2erfOXBGjRKFNYud+3zadkxBCCCGEkCCDOEV9ahZ2N//MpcO7NH1eNZXgj29mhAMokn/nL01Ld/V+4t9MBXrXRC6fNanVMssLqgA18fdf1bw+qqk4zXuX2fZ7WFHRQuf6vUV8XapA6zeU2xcspWtifKvlHmdX9RLf/ZJOFd50ffRPbnvodpzdbbhMZKvlP8N3G0sANcNe+pEu/o07TRFoHlzIez3tUWr3svbdpa0czbq29zryEu8f0GFw7MGoj+cRFtC0M6e59DNm3OTDjm3m17A81213vlu6ZgupOiXuiTey4KoArlRaM/fflHvB4O5JgqebafnKY0EGl/wqihS+BHTxwN1YSEGejaf4nMI1W8PhGiX6sIuYMcQBvzZcAsrkXfxTbIc+7FJmXqpsuo/SldsnDKO3iwHjgQ3MqWu6Moay/hB/HjJgdEpgwuRQLj2l3bxUsbx/uRvJuyyvlrN/w06SdUoce17Na/HaJoEGg6Mfs27sTzBGirdu5kvn/0AmUiGEEEIIG1Go1WojQGRkJPX19eTkmO9MnEnnsuyOUP64ceMoKytj7dq156R8AM20tSyY0AntxheZZvcYCwa6oSjOJLlYS4OLivgQD+ztwLF4A19OncyR6pbjU5pRi5n9WH+CAaW2HM3RIqoU4BIYRlTtBuZOuovCYzGDvIS3uePdCfRx4ESZAA7+Yah9nXCuOcTqx5dR9tpTTNRlkFxcQU3SctZ/9DnVjcqsVz1M9PvTmKoyJYg01JaTnWEq1+DgSXiQJ3aOTtSvHM/Hc3adUuMINHfN580b4/AFFPo6agozSa8wnWeDi4oYfw9KVij5Yl7T6RiN2+6N5xZaaJF3GPn3eIaUbuDzcbegabbU5mXUzZvLK7Gmzkxt3mHSK1zw6BRGmCMo9Pnsemcsv65uZYlRK9v+eLv1mTud8T5GFPo6inKyKKhV4OAfRoyvE8p9n3D7oVEsmNCJgh+VzJ936nSU9rWdpt/bTLmjF6bxD074dgoj0LFpEkmHsm38NfOpJvXtSCZPnMKE8Hz2f76EWRZyA2h6DWfniCB0277m+g3NZ6i5eIUx68ZLiHczAA00VBZTkF9zbCUVJ7xCfQjIWMvY35qPRhh06TU80bOO2nJ/7A991ej4gTw37TK66Ctwdclm5eytfOpxZjvKDqE9mXd9V3wVRhTaUgpySqluUGB08ybcq4bt367ijcqmy1vo3Trx7q1DiHE2oGiooCCriConH8KCfHBQgLJ4C598nsoq++ZTSQyOfjx7yygSvfRgqKc8L4vSGiV2fuGE+9hj3L+cqwoG8duIILJ+f5cHDzZf/rZpnYvIzqjE4KUizM8NlGA8tJJZP5eS1KHyWQghhBBCdGySk0E0o37mJu585E2evTiS+M7HFnorK+Do7uWsnPMqxa0EGADUK29gVtXLXHfr1Vwc6kV4Fy8AamvLKTjStKMclPwYc58q59IHJnJ1eDjxx7M7lhVwdN1Kfps3i9LC+4kHjH6m1x1UJSR9sIDqRp11p4L3ybppOdPGz2LC1QMY7O9MeJfoE6/X1tZjV5bJ0eoQ4NQgQwbqz0bx7s9TCX5oMmMSQgkLiCU+yPSqaRnNcmp0twNr2t6YbfYXzvdO4M57nuaRy/oQd6xsQ205hfs2sXrhyxzd3XqAAaxrezC1297bMkie8SBT+4cQGh5jSrBZVsDBXz7gp/e/hVF9KaGThRLb2XZ+4cR2jqZp18+ZwC7RBB575FCWwyajEVqYInK+qy3P4un533Nx1wSu6RNBuJc/ITHHOtWGehrqDJQ2GOmqNzbr7H5fXMETBOHiZSC/KA8IO/aKaSqFq687ypJSkq3O92A9XfYeHviigIeGdad7uDcBnXwIABTaGnQNNWDmLbSrTufRBcXcflFvLu6iIqBTFAEGPQ1V+aTt2Mi3O2rZZSbAAKDUFvPql8u4bkgio7sF4BMSjdexIM2RP9bw6j4FDWHlVCmCWqlzJrdflMigSB9CYvzBUI++7ChJm//lg4MGiiXAIIQQQghhFRnJ0AHK72gjGSzfjRdCCCGEEEIIISyTnAxCCCGEEEIIIYSwCQkyCCGEEEIIIYQQwiYkyCCEEEIIIYQQQgibkCCDEEIIIYQQQgghbEKCDEIIIYQQQgghhLAJWcJSAKCeO5zZc891LYQQQgghhBBCnM9kJIMQQgghhBBCCCFsQoIMQgghhBBCCCGEsAl7FxeXEw+USiWNH59N57Lsc13+qlWrANpV/m233XZaZS9cuPC09hdCCCGEEEIIIY6TnAwXgC+/+7xd+02ddIeNayKEEEIIIYQQ4r9MpksIIYQQQgghhBDCJuxra2tPPDAYDDR+fDady7I7Qvmno7aurv37nqfnLIQQQgghhBCi45GRDEIIIYQQQgghhLAJCTIIIYQQQgghhBDCJiTx43nIc8jNTOhsJPfvL851VYQQQgghhBBCiBNkJMN5xuAYR2KUE3Zl+9iW7nzax3N0cjzxTwghhBBCCCGEOB0ykuE849CjGxH2DRTs30uxQnHax3vjjddP/P/0R2ac9vGEEEIIIYQQQvx3yUiG84kyhoHxnihrU9iVcq4rI4QQQgghhBBCNCVBhvOItlsCne2NlOzZTKby9EcxCCGEEEIIIYQQtiRBhvNGKIO6+qOsTWb7weYBhpKokdw4tAfhboZzUDchhBBCCCGEEEJyMpw3arr1pYezkcrde8k0Ng8y6OwccQ1P5PLwROoLDrJr11aSixvOQU2FEEIIIYQQQvxXSZDhvODP4IQAFLpU9uyqAZoHGQIP/8rCsjj69+5LgiqOgSPjGFCZQ9Lu9ezMrEHCDUIIIYQQQgghzjQJMpwHyqJ7093NQG3SDlLMBBiOMxQeZMsfB9nsGERs4mD6RoTQbehN9Kgr4uj+f9h4uJg641msuBBCCCGEEEKI/xQJMnR4PgzqEYG9IYekHRW0JY2GQptH6sZlHN7qSXBcPwZ2iULd71rUfSsoTNrMhuRMyhokcaQQQgghhBBCCNuSIEMHVxPWne7eBvQH/mWn3ro8nYqGCvL2/81P+/8Pl9AeDOrbk07dRjK+az1Vh9cigxqEEEIIIYQQQtiSBBk6NCe694zFzVDEgaQCwK6dx2mgNnsnf2fvhKjR3DwwGM/QUFtWVAghhBBCCCGEkCBDR1YbMoC+KgPK9J1sqWxvgAHAHmd1Ly7u0Z0wDyUY66nIzsbPL9FmdRVCCCGEEEIIISTI0IFFxkfjRglJ29NpzygGo/3JnAy+TkYwVlC4/2ROhmk9bF9nIYQQQgghhBD/XRJk6KB03okkqkGZuZddVo5iMJ5YXcIHNwUo6wo5ur3x6hKS9FEIIYQQQgghhO1JkKGDCu4dj7+xhiN7U6jHsU37KAPi6N+7Lwn+zgAYKzPYu30Tu3OraTiTlRVCCCGEEEIIIZAgQ4dkcOlJH7U99gVb+Te/bQGG/NixPJWoAqC+4CC7dm0luVhCC0IIIYQQQgghzh4JMnRA3n26EaqoI3P/HqpxbtM+DnotNZnb2LhzN5nV1i11KYQQQgghhBBC2IIEGToYg2MciVFO2JVtY1u6c5vTJ/geWc33RwAkwCCEEEIIIYQQ4tyQHmkH49CjGxH2DWTt2kax5GcUQgghhBBCCHEekSBDR6KMYWC8J8raFJKOOJ3r2gghhBBCCCGEEFaRIEMHYt+rF53tjZTs2UymUoYxCCGEEEIIIYQ4v0hOhg4jlJ5dPFHWJrH94NkLMDz55MyzVpYQQgghhBBCiAubBBk6iKrOCcRST/H+fWQaz16QQVuvPWtlCSGEEEIIIYS4sEmQoYNwP/Qn3x8617UQQgghhBBCCCHaT3IyCCGEEEIIIYQQwiYkyCCEEEIIIYQQQgibsHdxcTnxQKlU0vjx2XQuy+4I5Z8OF2fn9u97np6zEEIIIYQQQoiOR0YyCCGEEEIIIYQQwiYk8eMFYOqkO851FYQQQgghhBBCCOxra2tPPDAYDDR+fDady7I7Qvnt9cknn5zrKgghhBBCCCGEEIBMlxBCCCGEEEIIIYSNSJBBCCGEEEIIIYQQNiFBBiGEEEIIIYQQQtiEBBmEEEIIIYQQQghhE7K6hBBCdDAG53vI7zccbUQAUEH0npU0JH16rqslxAWgLxVdH6K0ZxhQT0jGDpy3f4a+LuNcV0wIIYS4YEiQQQghOhBN37/hqihUipPPBdgfIjfp3NVJiAvHDkr7XoIqyvSooXMCdSOux/u3e6nesfbcVk0IIYS4QEiQQdiYAxXxKgyO1XjvKWvH/q4U9vTBTVuG64Fqm9dO2NI7jPx7PP2Npz5fRvJrQSz9K7hdR9W7P0m3r+9jolsZ++ZfyvKlxaddU0vKPkvnnajS06qvLdUHfAVXRRFirMBz1UfUbfsUoyGCbMfmc9s0I29jx5NdUR36gYvu3XZO6numaR6YQeq4YBo2Ps/I52pOPH/Tgve4M1LXbPtTtxPnqzieWX43IzwPsLL3R7zt62TTo4d/Pxaldh8oh6BJnA1XRsGYN/HS9KWm6L8xi7RedSkeER4oC7ZTl5HV6vaakYuZ/UR/mn9KHmLdxZezwaF97aYZ8hEPPDWGvsYM1r3ai3Wbvdp1HCGEEB2LBBkuEJpLbifi/p70NPOaXq+jqjiFkt9+pHJlezr+1oih9NFpjPVMoXDih+QqFK3v0sQwap65krHlm0m6839UWru7OA0RaEY9yA1XD2NAuD+eLqZnFfo6agozObj+K1Z/+i0nu3aZHEhJw6PREZxDYoh0P71aZE25khc8jRjxYsAV01m+9NnTO+B5JK97d1QK8Nv5KRVbj0+PyECpPafV6nAK0g6Rpm048bjBO4IugbbtiLbkePADoPCn67nxQ7XZ7RJefZkPB9Sx/+W7eHit+W3OruOdd71Ve11owRuldp/pfwwbUW8dgSbwMA19AlB0Hwdrfz63lTtL8q57lpcndEK78UXeeG5h6zsUZ3L4kB8nf0E44dspjEDH06zI6GH0cgE9EQwY9TDrNrehLkIIITo8CTJcYJSlmewsqW3yXIlfFANV3Yic2g3lxctIfmo90mcRjdWrHqbzO9OYFWL6xWioLSczpYgqBTj4hxETFEvvG15m4PCRfHHnZI5UK4H3yLjvPRrPZC77LJ13TjPIELZoFUsuN41k2PrHnNM72PnG2dT++py3AJdzW5cObM1rc1nT6HHjTv/ZFjx4Gpe8+yvr23kn9+yqITvlMGnNggze+McF4FuZy6HsqmZ7VVzo6QqyM6FPFEpn1bmuSYel3v4Y67c3fuZe4pfP5LrTDTL8vo7dPU0jGbaufB+QkQxCCHEhkCDDBcaQ9i3KN3ObPOcPbJtuDfgAACAASURBVOg6BO3DNzI2ejxRD+/k4PuV56aCosPRu99Ln7nTGe9jpCFvA7+89xpJ2w402UbTexZXPzGZq1WJDL+xG0c+Tz5j9bGreoMD497gpTNWQgeWXUAB7vh73gj8N+6ons/ys/MJDE3kholzWf9TRxip0JoMFs78hOb3ikfx3t+XosrdwN3TLsypNy3y8jb9N+dDwPmcVuW/Rr3xAX696gF+BSTAIIQQF47z4daLaMToF0e/kVcywLeh9Y0bCU7aCJ9uZR3gFzuc0735IC4UEWS99CjjfYwYU79j7qQpzQIMAOpds9l51xwWfXoPn5/BAMN/XXhKKijAJeZKZKZQx6fbspbtOne6X30z0YZmyUnEeWEIRPsCmRhTzt6UG3G+ieHi6y6jb5Dbua6IEEKcF2Qkw3nBDpfwHgwc0INOHkqggjSs/0Gr3r4DTcUAKlUR+BmNTfIlaJ58jbF9XalYcS3pi8zfkTO/TTyaBdMY62k4sV0PDEAsAT9+QIC5A21/nb0nRluMRvPDlYxtdD49MFLjNZDIHwearUdLddT6x5H70HX07uSDytkeF72OqooM8ld+RcVP5ebP61g+i+HpS1n3RDKaaRPp1CeGLp72OKKjuqKYop3LqZ178AxPM4lAM2k2j4wbSJyXI/Z2pmkLxal/s+KVh8kqtDO7V+Pkhe/Wf851t17N0AgP3OxAqa2jKGs7/yx8nD0b85rtWx71JA/3skdZf4jfXnuccoXl8JNd1Tw0i212sidoXtnPgoHmfrhZl0BS0/sJRt50NYMT/FG5OOGA6fwL85NI/vkr1i3/tZ01fI4hq6ZyuW4bi0dP5IDdmev+K+u+gqwryAztRoCzkaq6tpWldw/iukdv4MbEYPxdTNeJXVUuKRuW8ckbR9ltoc5Npxno0NU2oKwpJDVlKyvm/MPvJZavh8ZJGS97M4jJT43l2p6m8hV6HQ1lGexdtZiXPi+lwuJpuJI4fTIPDY0ixMtUb2VtITlbfuODd/eiadPZnx5D70E8e/dQ+ndS4eFoPFn3P37ijc/yKGzhLVAYlvHLvon06zOIe/v/j8e3h1tZuiuJ02/gniFxRPqYYv7K2goKDm9hyZcr+HHvqZ3eCB7633TGO67n7auWssLJ1GbH3wuFNonvL/qMTz0cACiPmsCyBQPptONDhj9u+zkP9aouPPDMtYyJ9sbDxf5E2+1Y+iWvfV/fwvtuavdnHhjO0HAfnOxAoddRU3CA/1vwGW+ua1v5DZdexYd39KOLv5vpGNoayrJ2sOLDH/hib9tGJBicb4QQCM/eT3Eb/95sQe8+DvsZDzK1fwihLqb3ub68gKPrP+Cn9xvnvmnMlGx3SOkGPh93Cxqlufqa30YzbS0LJnRqtrXjkOeZteZ5M8c5vYSOlpi+r8z9fmm9vNP5rmtM03sWI+++mis6+ePlaMo7VF+WSdJfp+YdaswBO89weowKp1dtHqnbt7HlSBH1BrMbCyHEf54EGToypSO+MQPo3zeWYGcjGLRUpe3l31370VQ6tOOAprfbXqejwWb3SavhSAq7PY7/aHDDNSKMzg7VFKRlkWNmD5+cxl31PNP+J35zeOMbrSJKV87ejHyznXrvPA8zz4Jm+GRUd/dnrJ0Rg64ITVoJhzwjGBoQTadJL6Ec0Ho+Cs2TjzKyryuK8jwOp1WQ6+JPYmAw6mH3YRe7gpTpf3Jm0p9dRt28uSyINb2vtXmHOVzhgkenMMK6j+P2bwez652x/Lq60OIR9L5fM+32ifRV1lGUk0pGrcKUiDHqIq5+aSWd517Gj6es1FB280C6G6Fq4ydsTz9H41syUjng2zSRg3UJJCPQPPo9740Oxh1QasvJPppJmc4Zz/AwQsP7MvSBvgwa0Yu5D8ym3MpLX9MvhikO4FBcTlGjH/Vhd87miW7WDe8tXHUNs1e1NKx+I2iqIDQcRZd62NOWjpIHt7z9GHfEGtEXZ5CWUY/B0YvAiGBiRt3PO7E/8Oid/5oNNFzUUEZayvE5+K64BPnh5x1Bl8ERxA24hDGfvsn9S1prsAgmv3cHd0bq0Bdnk5ZRj71XBOqgaHrf/DQ/xn7MxJnpZjqc/ty04EnujATQUZubQ05FnWnf4bfxZo+1sP7Mjg4IuP1B5k+OwMsIdlU5aI5WUeviR0RoNL1vepTvEy233XHf/bSPB/r2oseERNjecuemMb17N6Z/NoVrVAoUeh1lmsMU1bnjHBZEaI8ruHfOAIa8djeP/BXRaK8MisoV6GMDiKtuOBFkGBXii0LbQJ2jNyFdaiDHdF2WxXngBZSUHAXMBynbSzN6Epum90GlNKLQFpCZUo7+2Pve/+6X+Wnoj8y4b6vZttOMvpVNj3VDZcS0b2o59bjiGdWTkbPepVv016S0WLo9/Wc/zWuDTd8F+uIM0orsTG0XNZSb5/Rh2I+PMmWe+e+KxjK7dAUF1Kdvakfovn3yEt5mylvXMcDZiEJfTs7RTIrsA4kPURF39cs8P7Bx7hsbyU7lwKGTuTjqvcLpFeiIojiT5GJz34ppTT7vbKU67QgHGhr3zK1PINme77rjNFNX8ebkLvgCxsoCUtMrqXVRER9iyjvUq28CH979jJnviQOs+aaEqMT+9I8JImroWKIHV1Cwfysb9mVSrpOxZ0II0ZgEGTogo4MnIT0vYlBCIF52oNCXk7t9E5sO5pzWF5mmX088PA04ZadRarPvwwzUr37U6HE8KQum0dkhG8XMj1CaWV2i6XiCnahn7mz0eDR7friSuJoDuMz8Hw1m6lmBb7Pn9K7D4M7+DLDTUr7yOTRfmkIBwUCyf29yX7291XwUBocB0LWIovffpWij6edmAHDo+P6hVxF2528cWmD7zrhm1hssiHXAsXgD30ybRErR8T/NCDQPLuS9ayPp88gCsjdcxc4a850F5yuuJHb/J3z8wusUVymb7d/tlk/Y/0PjO/ERRHTyA0pJ3/IJmFmc7GxQz7+WJac8Z00CSc09X/He6GA8tfns/uplfv5+RdPXL/2MGY9dRkLC7Uye8Rcfz9lsXQX7hqMGdDn7mtzV9gjrSnSsdcOrnfe1YaPiAsAdQh6EPZ+1urneK5GrfY6y7qW3mb3+ZLLIelUvZs+dwvCY65n5yBKzKyBkzvuCu5s960ri9Ht4amwIcfdN5/ldz/Nimo/F8huCRzLeawffTl/Y5O6xofdIPnztcrr1v43Xx0xl2u9Ny3d47B7ujAT74u189fJXp+w7iFefuZbJ8U3zy9iSZsgNfDk5Ai9jOQfnv8FTi3UnAiH1qi48/NadTIy5nlnPbmHCa5Y76OqNv7Iqsx+39rqSB+3m8aG+LYEhe8a8eRvXqIwYNb/zzmOrG40asSdm0q3MvjOOHo8+x93r5vNpw8nrbHdJFeCNz/BS2BMEQC9fdxT7t3GobxTeCWUnggxE+eJl1JGuyQJslzNC734J3z/UB5VSS9bSJ3jwY/tGbXfsuoufyKxnNzdrO717f766twcqYz0Fv7/FQ2+XNvq7cqXPk/fz+mWDKGihy6+59T5+H+yBQnuYPx6fw+v7T46EKrr2Vv58qBuhE1/i5R2P8Oy20JZPJlSFCjCUfMrZSbY6iX6zTAGG+n9fZ85T80/cOV/qPg7HOW/wdNRQJr8+k5cefNNmpap/vosljdK8HB/ZUH/wC5ZYWl3iDIzaCn19xCmf99YnkLT+u85EM2QRsyZ3wZcyDnw2iyWNvisWq6YS/tZM7omZxF3PbOftV5c3K1epzSd946+kb3bEO34IF3WPJKDn5YzvXkPZ0V1s2ZxCrgQbhBACkJwMHYrBMZDoYRO4edIEruweiGd1DvvXLmbRoqWs3Jd7WgGG3K5D4O4BDKOc9J9/x7qMDh1f1r0jGOtgxD7p8xMBhuMci3bh8dZ6fgVc+0/C39X8j9ey0EAuWfHsiQBD4/2P57MI7H6NzSNzevdXmDTEF9Cw7rmJjQIMABmoP7yNR/Y0YHDswfAZEywcxZtublv49tE3Gv3oarT/QQUNHt3pdn3jIdOjSfAFKCB7VaCNz+pseYSxYyJxp4z9741tFmAAUK+5i3c/+Jfs7H9Ys2qt9UX0iATgyJ5Hmzx94IXxjBkzxqp/d3/eWkcvAsJNQ+71ZfvbVL0GlRdV3z7RJMAA4FSwm7vm7KBAASH9brUiZ0AN2+bM4ZafCqknlMG3ttxJc45yJP2Nt5oNT1fuWs21P2iox4344UNP2as3sy72BcrZ/cmbZvbdzC1zduLRJayNdbaWPTNuTiTCqKNwyWPc/4OuyUgLp4IUPr5/Bdt1CvwG3sRNNS19Ylbw0voj1Dl2Zci0/DaVrhlyA7fGGbEr28jc+/44ZVpKA6nffc6jaysxOnZlxH1NR0eszCkB3PCJrD/2TBwhAQZKSpIoLPchKPbktqNCfIFS8pJsm2sg9LFL6OdgRLdzfpMAA5iuuwee+4cMBfhcfAcP2tU12TfrrmEMcTNA6nKefavklOkoNex8Yw7vlsbS29PSOPQIPhodiRPVHJz/TJMAA4D/T18x5fcyQMXgWy7Hs7XLvqycAoCgh9p07qdLM3UKk1VGXLJ+Y/7M+U2G5ttVLUc7/XN+rlZgTBjPmIFnesnp81F7vusAImDSxaiB/GX3NwkwADgVfEnu/d/ytw48+t9EvL6FC8egpSxpLSu+/4rv/9rNoQoHvKOHcOXk27nh8p5EeUigQQghJMjQIfgTM/J67rh5NBer3dDn7GT9koUsXLqabek1VgUElNE3Y3jt/ib/ij59h2HPjmNk9XZS336G3HUXWtrHeIjzAQrJ+WmX2S18Dy+BVAMNDgl4jjM/N9mxdg+li83fsVVv30NlhZJab3/cbDymNuvmwYxwAKek31hz0NydtAz4bjMawLvHeEKM5iuQ++8n5JgZOQIZkJIDOKOKuLbR87FEeBlxKMsn9wwMiz0bNBOHc6mbEaekZSxtYSqJeuUNfDHlFg4esC5zvN79FSZFG1Fq95Ky7Ex1eAHlEOrVL6OZ9Bv0csCjZBP6rW0bcaGs3cU/80LMvqbeuJf95Xbo/QIYWmtdaLH6g3/Zp1PgEnURAxssTzx2yNrGvH/Nt03YD6loFGCnimoS5NAMTyDW3YBD1j98sCbC7L7qjStZm2PbIf4nXUT/KLCr2s3PFobM2FWt56uddejdOzPg6uwWj6b+4mfWFtmZlrPUtT5Ju9uIaFRGyFv3PsvqzU99y5yzjX0KBWHdJzTtKB8poVzhhnvQ8SeCCHAzUF3wMzmlSnyC409s2lPljkJbiOYfv1br1HZxTO7uDRSw45utZvMuBCUvY/FBBUbHriTe1jTw8lSXEKCalJVLSDP7udPA/D+OWJzWpBk+lD4BehxyN7FoifkcGLq3N7Jdp8DYdQh3l9ab3eY49ZZFUAJFic/ApC9RqEehOJO/jAbE4QAc/HOs2XO0q3qDX7cVA4F0u/LeM1iR85f133UAtzEp2oh95TY2fLDR7HHtql7iux3VNHjEkjC6LaOo9NRm7mLj8m/4culfbM2sximkD5dcdxu3XJtItIMkgxVC/HdJkKFDCCA81A2FVsPGxQtZ/OcejlS278vJ4BNOr+jOTf5d7mGkobqYrAoDdapzMyT+zAoHbyOu5WlU726hE5li6ih4BA8y+7JboaaF+fqmDprWxQtXW8/cDTOlx8xMfsDiJurtm9hWoUDrF0iE2TssZeQl/2a5jAbTD213n56nU9OOp0c07kBGyrtn4OARZM26mhEOoN/zO1stTFM5XZrR+6l97luKbpoIbhlErPwY40eT2pxQzCHnKMtcLeVoMd0nNbh44291hrKdHCmyo8EvhB61eotb1WbttdBZBLsqqEeBwd2b+Mad766BqIxQq/nX4r5Qwf9lVFtZ57bRDA8lwtGI8dAW/udqeWzSypR86vHCN6a1I2bwwJY8GlSJ3DAxs9Xyx4b6AtkcXOptcRu7qiSO5NvR4BfGxdqT7e99sJJyIDDEFEwoj/JD5VhG6RHIKK/FTdX12JZxhPoYsC/OYa+LLa/dcMJ8DNiVHWbzv2ZT+wIwP9mUkccnrGujZ+OIDDQA2Rz5IsjsfgDqn9LJsJQ3qMuxa+fIP2yxt/QTZh27s+yBQALHtpInwzAf9UfTKV+5BY1bP9Jv+oT059LxGHVXy/u1y1Qu8Qc4xNEvW0gS+m8quYBvQPczUIfzXfu+6zTDuxLvAMbD/7ScvDclCx3e+EeaT/9oUUUmyX/9wMIfNnBEp8DeJ4JQjwttzKgQQrSdBBk6hEIys6sxOqoZcsNtpzfcbvvr7L3+4Sb/dt30GDteW0ZSvgqHKc/Q46NrcLMwZeB8pBmsIgIjzqXZVLbUbOkl7AE8/Zpn2AZQnKss0QHuQBlFqS2NMJnH5iIAFYEjSsxvoj8/RyOcFl9T2xWnpNr4wMfm9/ZzBzRsXviejY/fSF05BTX1NDg6YR8QTk10AkpPK1YpMChazOLffhVU1CkwOjrg2dLdeX2d5dcs6OZjGj2Qn9N8udTG1uVbuNZPV4QvXkbIP7Kh5e3yKqlTnOzQtyTss61tXM4yAn8vI3Zl6ew90tJyeBkUVivQe5uSPB7ndaSYAq0Cd9/OAJT19SHQmE/m0iD+LalF7xvA5Vo9x0c4NJRktdAZt55muIpAjNgXZp9IPGnW4RLKFeAb0DhCE4SniwG7skIOurU08SyTwnLzdR4WasrJ09q1s6egCvAiMK7FzQDQeXWjPjoWAjwIcayHmnoa6loeAdE+3ejkaxo9ltFCR1e9OotMBWgDwi2OXPtPa893XbgX/kBO+uctb5dfThHgHWJuxY0WeEbSfeT13Hb9UKIcjDSUZpBdKWnPhBD/XfIJ2CEUkbr6Bw45BhI7+CIGqPtwyXV9uLgih6QdG9hl5ZQJc7zTUvCem8KhA7dTd98I+s8qZNdTmy6M3AwO1k3/sLPrWJe9l5U3Ge0drbzDYtFhMsoV9PcOJNhgtLAcWsfmZeOZP/WqS3G65FoGjb2CWaGOQB0FPz5jYRqLbaj/HgJ/A0RQG/Y4BdePxfGhZXjN7UtN0ZmNA+vdgxg5bRQ39o8i1M0FR8fjHRrTcpYGm11rTYW7nOMpWx4OOAEB1/3Amuta2dZImz4n7arW88u+UW1YztIVD2cjes8h3L9xCPe3eFRz7Z9HYbUSvYc30QYjmmBfXMsOccTVjv0ZpVQPC6VnVQNL+vmhcjRSmrsPm64s4Whqu7Yy2jceZeOCkyNwGgNUrB6U0cpCTPUBX5E37RIiKlNxWvQg2qxNqIHa9lawFVa1nR04GMFmi0H9l7mbljUOHL+fWeNb37xty1Wblhfv068rnb1NF1pN1k62bdl7bDSqvHFCiP+ujtXb+o9TavNJW7eU1BOrS4TQbfgNdNdXkLvr9FeXAFCv/RrN6D70jB6Bf8+/yWvTEnkdnK5tPweO0+s7Vmil3PJIdLMatO1ZvtSc30kumQmeKkKvzIe/zr+pNOXH33q707nb503CU3UkPNX8FaU2g32r/sZc1yD+hWW8nWhdQr3sZd1aSP6YgUvWg7ChDw1jQrHrfSv8+bVVx7dGXsKV/PDW5XR1NqDQlpOfnUGltvHniysBMaFWdYraqoXZF2dVbe5Bcipa77VWmE/j0ow1y1kqtOVkHi2g9fvl2WQ7N67jQbJLlRh8vOmp1eMU5Imyqow9jnaQUUK5IgSf4aWUdfYh0Kgj18YrS6DVtaHOJykaGgdKTv+z1+prp5U4WV7vvqgU4LFhClVZ5hZdti2r2k4PsliBbdXmHSa9ovXgrT7Lco4flI1Wl3AxgqGGsrR/ZXUJIYRoRIIMHZBCV0Hu9t9ZttMR35gB9O8bS3C/KxnfR0vV0b38u2s/mnbmbAAdFFWC2huXmELYY8WwbJeOebmoN5WgeURBnU8oHkYsT5no5EtPoKI4/WxWr3XFVRDrjX+MFv6ytNG9DPIHKCD/b18b/eVmkJFTBZ286TTwPvjrJ1sc9Ow6tpxfUMIYWG0+6WdbVB5JJatBgVKbh+ZwGtnrV7Px+k9ZMLgzlz06i01mlpKrzEoizdvLqnIKW84faHKsV29oqLDq2NaJ4NVZI+nqXM7Rb19gxueYnXJx04L3uDPS9qWbpkEE4xPYFaiyuN2wwObL1drE4RLKFcG4aZZz9zO2m5Jx6nKWa8xudZAjxUpGRJZwaNr7vNKWZRNPyRuxp6AKfWQAUTV6nFTuNJQXkKZUoF5bQv6szqaVJ4J9cToDK0uYylAQHBDKVfVbLE+ZiDVNSSkpbDyVyTQN4vgUEMvTLcIJ8DJgLv3N8WvHNIWlpvkGx/RUuQNF5B9s5YQajkUqHSOAMx1kOEx+uQKdtym3jqXRY5qRYYQbwbEw00KCQ8vKo7zOykKc5520AnLpRJDmW5Y8/VW7DmFwDCQqsT/9Y/xxU5pbXlwCDEIIcVzH7DUKE4OWkkMbWHVoEy7hPRg4oAedovsxIrozaT9/z/+VtPOOtp0RcEDh3Giedb3pdo+d0tIl4QW+LkBrt5FSoVwBnt4Ye9WD1SMlMqFCgdbVE2egsk37HIUyBTXe0bj1qqPSUpldTEvxVeZuxqZ39k5XRiEMdCM84SPgLbObaPoNZoqnEcfilufyWm3VTjSDhxI5ZCp9XJey8wwlNzxj9qZRNbgHoT0m48audo7CLiNzcTeWnjKSI+zo1/z83X1ck3ATE0Z+2Wz1iqwFs7B+0bs2LGEZFQpUoEhZhk2HuTdSHpVI78AGFPt/sBhgAE88nc/QfPAjpk5+gLoX0YYNFpI/enJxhBu2uPt9KvXqdA5P78aAbpdxU813LSZ/tI5pOcsbbjYtZ2k+yAArNCXcGRlJ9wcL4EPrP4tWltRiSmrYGSc/A6Vpx6dEHKWw/HK6B8OoIE9AQ+laH7BprOYoWaVKunvHMqh/ISv2mE/geE9CCGCkNCuJk9d9KjmlSvAMJWpyHvxu/tw113YiwlKC3aR8CsYHExp1EQMbVlnINzGMXmENQD75vwa1eP4BKYcpuGQAodHjYOMWyxvaxDxW5c/kOs/ORE7NZMM3Ft77/jEEAyWF+055oZyqYzERS9/+ZX0DiGzLn+3RAkroRLC35eSdFxL16iQOTO9PeMIY4vULW07+aFY8l04eSCcjKGvzSN2+jS1Hio4l6JXgghBCnEoSP54XTMskrV3yFV/8spl9OdXUt/tLLR6iPIBCavYHnnw6q5gaICj2GrN7lcReDkFtGaeqg+IKIAD3ga7tqN9BKFfQ4NAJ56va2mU8AAdLgQBCru1tdouS2OsgRom9LpmK5eaXzDtXwr7dxN86qO86hkvjzM0EjoBJg1ADZXuXWX1nqyXqjZ8x+7AOg2MPRs95Ha/T7FOW5x0bWdB9tE3q1xr1j2tZU62gNmI0k+8dYtNj21W9wa+/HaUKb/pMefUsJWC7FcLBpyoV3RlbvhHKYj3wAnSVeRaTRmpGj2NY4JmZ16D+PZl9dUq06kFMHWD+7rFmyCgGB7ZxcHlSPgUKcFH3byXp4nH/sPYI6N0TmfR2UNMlIk9T4+Use1o47v6/U8hQgGr0K8yILbe+kMIK6nHFV226419dkHXsBdMoCZ+w3vRUuWNfnM0ed1vfSzjIN/vKABV9Jw8w23Z5CeO5Ic6IQpvEtoWNvmdo4IXkQsCNuCtHWWh3e+65IgqXevMXpnrtBnYW2qELHsyU68yv5OHw2BD6ORhRJG3kU5+WR3K4Zv8NpVAa1hWXs/GLaOtBdEDc5b+a/bzVuz/J2EQ/IJ/9q+ad8uo+NKUKdN6d6TLY3HUTAYMSML8oa1NhG4pIVYA+IpE4t/ZkPZ7HqnxTmUE3tr6iyrm3kO/SdDR4JHL1K1Pbsb8OfUUme1f+wOffr2R9alGbVwASQoj/IgkynGcUxQfZvnoVW0us/+Go9Y9D885URnoacM3dQUmjO/5hv+9hjU5BZezVqK92PWW/3lTO6AV72jjNYEc6GYDnxU/gd4W138I6OJCNFlf8rnsUr66t7wEQNu9vftUpaOh6B+qpZur/+CWMBWr+/Y6imo5118Gu6hm+21gCqBn20o908W985/bYKgc97VFq97L23aU2Ln0D3m/+wtY6BYqYSUz77kf6DreUjr07monPEhHdQg6M7WmUAKpLXqRHvPWrDljvvWOBAGdUExdw5+NTcXa3XY9RPf8V5uYoqAu6jHEzBtvsuJaURfcDR3A8vNGqudvWCtuYTwYKnLqNYor3qSXZEzNpCuseiiZnp+YM1eBf5m8uB1QMfXwGt/doeq0Yeg/i6+l9MGxJbmFZ2ZPUa5M5XKVEFzaMp25tS7LKBhZ+9Bf7dQpchzzJ93Mv5tpQW/UYTi5nOTbcfF3UG5fy8ZZ6jI6xjJ3zAu/e7EGANZdtRgnlCgc840LxwrR85XGHiqtw8xtiWr6yIIc/HW0frMp+ez3bdQoc+tzDh/c3NAkW1Kt68dFLFxFhhNL/+5wP9U1HloXN+4ftOgXGrpOZ/5jPKeftSp8npzPD5x/+z2KQLYMHfj9KPW7E3fMKM7s1DUYXXXsri0Z7AwVs+vrPNqy8Mh9Sq6hxjMXO2mUL20H95SK+KVBQGzaGe16/p8mIBL37OBzn3ME1bkYUycv4bcupS5wuZ+PBIiCQ/vd9Q5B742vW9F0x12MPK9qw3Ixd1fdsyFTQ4JHIuNefx8+9Hdf/wRzAmV7j/zilLh1RBk4f/8JOHTgOeZ4Zc99FHR5mxf6p/N+Sv9iRd2aW1RVCiAuNTJe4wCijb8bwWvO74SV+UQz0tqcfoKw+QNJHv6Bt9PPGrmYd/NGP0jHh+Ex+jW7j8jiYV0Guiz+JgX4MzlzC0qz+0BMc+r+OR3gm9V//hDaj+SWkXv0le3q9RFDfYELv/BDVxDwOF1WgBUr8Iri4dhPpD/9scTatesFnrO7yDGPV8aiff5va0jxSSmoBN+wC/OibvYTt/HYYpAAAIABJREFUz29rso9dzTpYEMbWu/szYNRrdLusCE1GCYc8Ixga4Ew/DCjTlnHk/bZNwDjb1LOf5JnQubwSO5TrF2ceS07lgkenMMIcQaHPZ+d7d56R6QxeRx5j0ePlFM6czFWh/Rj97EqueqKOwvwsCmpNP1ZdAsMI9TJl59Ys+pBFaebvvqp//pBXrprLO1HdueajXK44lmSrwUVFdKAjhd+6sKjREGHNNZ/x6JXNJ/07qwC8Cb9hP9dNOPmD2TV9KYve+KRpmfNv5RHDfN68MY7gK5/jicufoKYw80RyLwf/MEJdwN24l8WjJ1o5TPYvDn2zldwn+hN6xQsMXj6MTelnIhWiSbk6HJUR9FkvwxmcWW1X9SffbBlC9wG9uO2H1xmVkUWlVoHB0Yug0EA8HI3U/N+bDCu+hdR+fvT73wMsqMxl7ZKv+Xa7j03qkDnnU75RP8rkyH7cPKcn43PzyKmow94rAnWQEw65vzF9k5pnLm7L0Xbx1h/D6DcuhMjb3mfddblosquoxxWviCACjixixEPJTfYISl7Fg0/peOfF0fSJG8uDi8ZyX3kueXlVxwI8pn3D0pcy5IFt5gq1KOyzrWwfOZZ+oUbA3N9KA9uffpXZLzzME0ND6Hn7cyy+VUdZ1hGK6kzXrb1XMMG+tRx6834eXtt0WP3xvAjx3brgZswlaenJKQHLCmt5u2s/BrvqKdlr66VdTeyq1nPjB6Fsmt6HsAlz+GlsAZlHy9Efe+9Aj+LAj8x+Wdlsxo9d1XrumNeJPx/qhmr00yy+zLRvPa54RoUR4FBF+udzSR9xucXy1V99wgsxT/Pa4Fguf38uI4ozSC+ywzksiFA3OzBWk/3jczy7LbRtJ5RbAEShiLod0s5cslWT79g+uw8Jb13HgP4zeeqP+8jJKKTIPpD4EA/s7cCpYANfzHwdc/eBwt5ZwLLuMxkfNoa7l6VQlGP6nHYOiSHSvZTkN/9H3b390Lv2YPD83+i5dSG/LFxiph4bOPLGEna+O4E+Cbdz/7JJJ45lcPAkPMiT/OUufG8xUS2ELVjEsotmMj7osiZ1MXoFoPav5dDMBFbs9Dyxveaen3i016njLJzwdTYCEcR/9jeBjT6e9bvmsPzT36xq3ZYEJT/G3KfqmfLizVzcZRxTFo6DsgJSCyqP5Qd1wjM8gKiMpTw77RmblSuEEP9FEmS4wBh8wullpg9gp9dRVZpJ6p4VaBceoKGm+YxO9Vdv80/a1XBTfwb6BpMQHUSXuiJK/v2K3fO3w+je1ACuqjgiVcEUbfiOnAzP5oWh4//bu/P4qKr7/+PvmSRDyE42IEMyTBIICYSEACEIuGGLirEiKq1L1Va/Wr/W1m/1W6u1/lptv3a11bZqsYu2UncpdAErVctaEpMACQkIJCEh+0b2mUlmfn8EI8hMSMKEBHg9/+GRe++559zJPHx43znncyw//I42rrhBuiy5716hfet2u7q7pK5jZSE8vus1yPLgI1p/x40KzJymeSFxSp/gkuRQS3ePumWSr05eqW1570+qrivU+lVXac7UCTInRCqx16H25oM6sHmdOv80xgo+nuBd+d+9Unfc9bC+flmGZkRNU/Ikydl1VPV7tmnjH55QacEA1a5P06S9jyv/iy9q7RVf1aqrL9aC2GBFxCYq4th5Z9dR1ZYWqvSDDdr6dos8//LeVdid9+iO//2Gvp1llXlS33MY7d3qbqtTxdFPvXGYE5U8faqb+/T9eTM4PlHJxx0NNLp7aTgsy+or9LO/3K7J992s5SlmRR37/KS+vjt6baqsHd7nZ9n4oB5dtkkvpHkuAuk1vn1bOxr8L5E0kuvD+15yH7r/Zt23JF4x1umKlmTodail8kNteOVPen6jj/RVSQpU1IzpitJ0mcp+5bWQwae9Rr+/4zEVfjyGybFKmCwZu+pV9d7f9PTPdmun8SrVSoofxP3afvmU7q64RvevSldS5GRNSep7Hru9STWV7otLGvM36cGrt2vhXSt1y0Xxsk6I0ZSkvu9eX1u76h29Su91qWAI4dQn21kOFAp26v3/93/615zZuv8Ll+mClGhFWpL0cSlRY1en7F09Ouo20ypV/VGjUkODNa5ltw4FHNdPfau6xscp1CUdOaEegndZ/r5Gq6oL9bXbrtDShHBNSYqWodehnsaD2v3OWv1wdY3qPXxmkWtf1KryhXrk3kt0YczE/raddbu08YXV+tH7Fs1Na5c8Fh3t0c5Hf6B7rl2uu6+bo6TIOCVESAZ7p1oO7dEHL7+sX7wfPPiHGT9ywaE7k/Y+oPW3Fyn3vpt1TbpZZmtfDQbb0Trt3/6K3n/2p2rscD/R1Kf9Oe2+rVZ7/+eruj0zRubYREX2dquzfo/++fMHtOO9FE25TXKGhCpxeqgCjekeQoa+cbz1xSLlPPBlXZUSKfOx/+YbervVae+WdIWkvW7bfjIWm/Y/dLNuSTf3t3d22WSr3696w6eeIS5RydMDPdzNXxOTEnT84hp7vffrRVjyH9EHV7+il+56WPdelKLpE6KVOD1a0sfPLdXZbQp1aVCzqAAA7hksFotLkqxWq2w2m6qqRn4Lp08bzb7HQv8AIEmt1r+o+bY0zWzOk/3XK2S383+5wEjqDXpClXffrOggm6JfjFdbqbe2CAYA4PzFTAYAGCNCSp9W88FnVR+fId+H9qutrFJtPVJ887/U+4/vj/bwgHNC+ZVbNS6sWzbfMMkaoWiDFHpordoJGAAA8ApCBgAYMzbJ8tJXVL74EWlxvBSfoGhJpv25crfvCIChmiuFRck23aRoSU3drQraslqOLc942jQTAAAMESEDAIwpm2TZskna8skRAgbAWz6UZc30/p/MkkZmo1YAAM5fbGEJAAAAAAC8gpABAAAAAAB4BSEDAAAAAADwCkIGAAAAAADgFYQMAAAAAADAKwgZxgCr1aqYmJjRHgYAAAAAAKeFkAEAAAAAAHgFIQMAAAAAAPAKQgYAAAAAAOAVhAwAAAAAAMArCBkAAAAAAIBXEDIAAAAAAACvIGTAGVP+5Z/rzTff1Gv/mzGs9kkPr9Gbb76pX95a7uWRAQAAAAC8gZABAAAAAAB4BSEDAAAAAADwCkIGAAAAAADgFYQMAAAAAADAK3xHewAYO8q//HPlXhnb/3NPl0MGW41K9+fqn8//Xu+2+J3iDhOUftdDujNrqiaF9H21jF3NqslbpxeefVunKtfYG5iu7K/coRXpMQof7+o71lqrw1v/oP9bvfM0ngwAAAAAcCYQMqDfop4mlR3oOfaTSf7RExURHKvEzFhNm3uxLvvj43povaeoIEUrnvqubo7rmxzTVVeh2tYe+YRMVOyiW/VoSrxc2zz33Ru4TA8+c7cWhTpl6LXr6JEKNXUZZIiKlfWKb2p14ht65qhXHxcAAAAA4GWEDOhX+eL39I2Tjk5Q+l2P6WufjdW02/5XDxTeop+Uhpx0lf899+vmOKN8mvP12s+e1Jq9Pf3nnKk36OH7r9N102o89Bykix+6VYtCnVLlBv36sV+fMGuiZ8l9eurepfrMIedpPyMAAAAAYORQkwGn0KyC57+u+zbUyK5Jyrz+YjfXZOtrCyMltavo93eeEDBIknHPa/rKczkKSpzitod2yy3Knukvg+OA3n3yFycty/Dd/LRueKtJ1unjvfRMAAAAAICRQMiAQWlbvVl7ewzyn7pQ83pOnFFQvjhV8YFO+VVt1gub49y2t+x8VVtq3X/dGi9OUoLLJUPxJj1bHeC+/aubVdDJ1xUAAAAAxjLe2jBI21TeaFRP+EQl2z61bCEpWpEuqbsiT6VGg4f2h7Wz0n1Rhc+aoyVJR8pWD9D/eh2o4esKAAAAAGMZb20YpMNqs0kuP5NCek8MGVLDAiVJdbVvD3iHD+qb3R43h5oktevogYFHUNjcMejRAgAAAADOPAo/ol9vYLouvf1afS4jSTEBfvLzc/Wf6+lyyGXqddtu8rjA0+o31MTXEAAAAADOBbzdQZLUkPRl/eY7y5Xk75LB0a766gq124+/wqQIq1l+btranA5J44bdt7HH0xILAAAAAMDZhJABktL1rfuzleR/VOVvPK7H1hxQm5v3/hVPrdXNbuo69i2DCFJY1HJJhR57uShqgtvjfcsgghQ6VdJWz6OcNSFQUo/nCwAAAAAAo4qaDFC75SKlRvfKULLOY8AgxSnY02SF8ha1SgqJnSOr0+XhojhlTgl1e+adY7Uaoqy3DjDKbCVOcg5wHgAAAAAw2ggZoMb4CQp2SY6OKg8Bg1R12Ze0OMr9S77l3d0q7jbIMSVLX5hb7/aa8sxVmh/V7fZcxDv7dcQg+c26VLf42t1eU75qiVL8bKd+GAAAAADAqCFkgKbsrFSlwSDTjKVaFfrpl/wgWVc+pjfvjFfVnlIPd3hLL+U1SpqkzP9+WjemnLgKx5l6g569e76cufvU6qZ1UPlvtfYjl1x+M3XNT/9bl4U5Tjjfs+Q+vXZtuArz3AcYAAAAAICxgZoMkE/HK3ord4lS5s7RqtV/1qVH6tVul5ymIEVPjlaQn0td23+qq5tvUG5apNJ+/bSe6jisLeuf0JsFIZKkI8/9Sq+bH9H1ljla+firurKuQrWtPfIJmajY6AD51f5Lj+ZE6etZ7kbQrg0/flHpP/qSFk25XPf8ZqluqqlQU5dBhqhYWUJ9ZSz6nW5o/Ixyz+gnAwAAAAAYCmYyQFK78n/wdT3+zgFVd/grMs6qqYlWJZjD5Kwr0KZn7tZXfrzt2LVBiphmVVz6Rbokrbn/Dj4dBXrlf/5Lj79zQDWtPRofHaupiVZZgm2q2/qivvuNp5WXU6t6g/v1GKaG9frxV7+r326vVqPdoBBzvKYmWjXF0KjSf/xQdzz6t/7aDwAAAACAsclgsVhckmS1WmWz2VRVVXXGBzGafdM/AAAAAADewUwGAAAAAADgFYQMAAAAAADAKwgZAAAAAACAVxAyAAAAAAAAryBkAAAAAAAAXkHIAAAAAAAAvIKQAQAAAAAAeAUhAwAAAAAA8Arf0R4ApNLS0tEeAgAAAAAAp42ZDAAAAAAAwCsIGQAAAAAAgFcQMgAAAAAAAK8gZAAAAAAAAF5ByAAAAAAAALyCkOE8FLLoJt1++4263NI92kMBAAAAAJxDCBnOM07TDM2PHyeflj3KKfMf7eG4EaD6NLM6kwNHqT0AAAAAYLh8R3sAOLP8Zs9SnG+P6gp3q9Fg6D9efusDyl4e67aN09Gl5uo9anh7jWxbXSM8wovV+cjlyj66XUV3/FlthlO38G57AAAAAMBwETKcT4yJykoOkbGrSPn75HYeS1ddifa1HX8iUD5RE5UUl6mIr2WqZ+HPtPcn5WdqxAAAAACAswghw3nEPitF031dasrdrgqj+5Uyjp0PyfiS5YRjLkkbF18rfeViZWd+VdaVd6r0zdAzMGIAAAAAwNmEmgxnGVfEDM1bdrkWhPcMsaVZC2dGyti1V7klQ19DYNnylrTuoDrlp5iMpUNuD8/852Xr6oUJivYd6aUoAAAAADCymMlwVvDR+NjZylowW1ODjZJadVBDeyHtnDVXs/1daivYrQrX8AoVWF79SJtWJmhV9DQFu3KPq3eQrPIX7lF2yD7VX/+Mqg3u7u/pmitV/trlyj7ueWbLpc7QLFlfz3I7jta/XqOy/tkWp9v+ROWLr5a+kKms8BBF+biO1aP4UA2/f122IvefS389i9wnlf/LAFXe+zlZZ5k13d9X43sdam89rKoP3lDHmiq37Z2+AYqYcaGWT1+kzoo87cgpUnkbgQMAAACAsw8hw1hmNCk8cYEy507TZH+X5LSr/eBu7cwvVHmb3xBuFKkLUqJkcBzQrvxOScMLGXoD+v71sXXI5rWCijXSoX0q6H+nDlN4QrTiHUe1+3Ct7G5ahNUEe7H9x/xU/uC3tWx+mEySepsPq6DJKMfkiUqLW6yIxzLU+tfvqOwlxwDPMlmV371F2ZZedTVXa++RLtWGxGlJVIISrvmmDNbntOv7xSe1su94Q68cORYiWebrUst82ZoOaM/WbdrT0DtAfwAAAAAwthAyjEEuvxDFpC3WwpSJCvWRDL1HVZ27TdtKqnTUMfS3+5aEOUoNdKqr6EPtG2bAIEmV2dO0VC51V+91+/I+PHmyPJR33M9Xatdrl2tGZ7HGP/Rn9bgZbqvCvdi+T/l192jx/DAFOA6o/AfPqLGoby3ROEkbl31JcV9OU9pV39TEvQ+rNjfA7ZN0RS/VvJB87fvuS7Idaz9Z0uaZV8j+8BXKTvuizJ+9S0fe+XT/veqqyNd7FflSiFWpC+drzqREzctO1NzWKhV9uFn5ZZ0a6gIZAAAAADjTCBnGEKdpoqZdsFgLLCEaZ5RcrVUqPOEFczgBwQQtnB0nX2eVij5s1XDLcJQvvla6OkEhjo906LW9kkzDus/YFCctTdQEtat+zZNqLAo84axl4+9UPvU7Sl4apcQVF6o2N9ftXcbHjVPnj56TrejEEGJy0T9Uvm66OlfGK2bhIh155+TZDP1aS7VnY6l2mSYqIWOu0pNiNOuSVZrd3ayygs3asq9RNudpPzAAAAAAjAhChjEhUonLLtWSmEDJ2avOqjx9sGO3DnlhXX7nlFSlhjnVW7xTeb2nDhj8Mp+UM/nkLSyvDHSpvWyjCn+3VvaPzqWAQSq/4ELFRTgVXLddJX8LdHuN5fnN2njhCmVPy9JkV47buhOh1R9qr4dZDlPW99WzuDl8qnxVfMpZCUZ7rUp3/F2lOz9ZMhOXdbVuzGxVw853tb746FAfEwAAAABGHCHDmBClWHOgDLZybXnzXe3v9tamH+OUmjZNgc4GFRfVSfI5ZYvx0TOUHn3isd5eh+ytNWpqH6duc5CMH9m8NL4xIn6SkiW1Hc4ZYBnIe1LVSskSLZ8LOqTtQSdd0VZT5DE88Ons+9cREKbxLh1XNPMUnHY17d+sDfu3KWj+Cq2YFaLJU8IlQgYAAAAAYxAhw5hQr4ojHZoaY9GiVbdpTtUu5XhhJkNXzALNjXbKWJanHW2nDhgkTzsv+Kk1eaaaV16lxfdcpKDP/FEHH8n1Yl2GUTY5QiZJrTU7JLnfdUKS1NAmWUJlim90GzI4ewcqCjlMRpPCkhdpcapVUeNdkrNV1ZVN3u8HAAAAALyAkGFMaNCBja9pf39NhgxddF2GLjzNon/W5AQFqklFuWUazCwGzxwKKS5QyBMF2nL7t7T0iluU/ECVdv3E/ZaMZ50hThxxns5HOdg++msyTFSYUTJ2N6lsBzUZAAAAAIxthAxjiNFeq4Pvv6kD/btL9BX9S+1tVXX+0HaXcITN13yLZKzYrfxBzmIYDMvv12rTonu0Yk62olzPq95rW1mOoiG+tBtHclfJ/t0lAuXjtvgnAAAAAIxdhAxjkMHRqurcv+utvE+K/k2ed7muzbCrvXS3duYXqvwUSykmz0lWpKtTh3bvk82rO0EUS80G9YREySe9W9rlP8h2wZLp9AtZjoi6RkkBCpmUJana83WRwZKaZD8U4eUB+Gh87GxlLZitqcF90yrsNSXKyclRcQPRAgAAAICzByHDWHZc0b/+l9CEebo0YboO/uUV/bvJz32z8WnKsPjKt+4/2lnr7Z0g/I4tLzDJN+DjF+AOydZ3zBjgkrpOnt7QHhcn+Q8mZKiQWg2yB4TIX1LbkMc3jPYf1WiXYrU4br5MWueh1sQlUoxTUp16twUObzdRD0xZ1+nzyQF9O4uU52hHTtEpQyQAAAAAGIu8tY0BRlSvuiry9d4bL+p367ZrT1WHbAO85YZlzJLZ0K2Kwl3q8PJI2uMukyY55es4Itu2j4sfHpaO9kiKkV+2+10PGq9KUfageiiRjhrU4zdV/lcNZ/RDb2/Z9m8dbjSqLXqhJi5336b8riVa5udS8Ec73G5feTqMPZ1qLPm3/vbyi3r1X6eepQIAAAAAYxUhw1nG0Fii3I0b9J8m95NQnKYZmh8/Tj4te5RTNtilDINTPXORGr91pbL9XNL+f59Yj2FXmTrlp0mfeVAB007cZaF82ZeUklGm9eWDqQ3hkIqPyK4ARVz3DYXOHOooh9P+sLTpgJoVoKgbH1LEp9qUL/uS4pZGyKR6HXj730Md0Cl1567Xuu0HVddzLhS4AAAAAHA+Y7nEOcZv9izF+faoMj9HjYahhwx+mU/Kmfzp7ClQPlETdUmIr0xySnX/0r4f79XxawYsr76sTfMeUbYlVYnf/4W66mq0r61LTRHxWhbmUvdfvyWlZkoyy/XkvQou26Cu5w+6LWZoeWG1NiY9omxLsiyP/URdzTXa19R1bBwRmnvkDeU+luPxGYbT3vLGr7XF+m0tm58o82O/0KTmCu1pMsoxeaKWBfjKpE61/vWHqs0NGPJnCgAAAADnC0KGc4kxUVnJITJ2Fano0LhhzVMZHz1D6dEnH+/tdai9rkSHd/xDnX8q08lFCRpkefARrb/jNk3NSlBCdKzSox3qai5X1ZoX1brWIf3AISlA0QnTFRDZpKLnDqrN7R/vP77XjQrMnKZ5IXFKn+CS5FBLd4+6ZZKvNMBuC8Np75Dlx09o45XZ0vIMZYX3tXE6utR8OE8Nb6+RbSvLGAAAAABgIAaLxeKSJKvVKpvNpqqqqjM+iNHseyz07y2+GdfplrRgtez4rd4uZiUMAAAAAODM4k30nGFWWlKIjF17lVvC2n4AAAAAwJlHyHCOaJ+eommyqbFwjypchAwAAAAAgDOPmgzniKD9/9Qr+0d7FAAAAACA8xkzGQAAAAAAgFcQMgAAAAAAAK8gZAAAAAAAAF5ByAAAAAAAALyCkAEAAAAAAHgFu0tIKi0tHe0hAAAAAABw1mMmAwAAAAAA8ApCBgAAAAAA4BWEDAAAAAAAwCsIGQAAAAAAgFcQMgAAAAAAAK8gZBgFXTEX6obbb9dtF00e7aEAAAAAAOA1hAxn3DhNS41XoJpUklc5xLZLVX7fBi149BlFuwZxufF61d23QVmPvC5Lgv9wBgsAAAAAwKARMpxhjrDZmmM2yFi5W/ltPiPaV3n6JcoOdcllDNK0BTeNaF8AAAAAABAynGGxc2cp0tWpQ7v3yTbCfVkK3tP6owYZnO366D8vj3BvAAAAAIDzne9oD+B84hyfptmxBvnWFGhbrekMdPi6op9+XTtGvicAAAAAAJjJMGTGEEWkXaLrF8cNuWlYxiyZDR06ULBnxGcxnFmRmrn8Kl2UGEZqBQAAAADnMd4JB8lpmqj4+ZnKTIxUoFHyqywbYvs0ZU0bJ5+W3dpdZZIM7q9zhN0k4/KrNDsuTEG+ksFpV3vdQdWu+57qawfuo/zyt3TD/PFuzrSr5oUVKq92/+uumvVzLV+RpMCC32jL+rcH7KMl4UdaeGOqJpas0fuv/7H/uF/gRMUvWaGEC1pVnb9N20qqdNTh4SEBAAAAAOckQoZTCYlVSuZCzTMHysco+bQdUUlBnnIONQzpNv4ZM2Q29KgyP0eNBvc7PXROeUIzbp2ryUZJ9iY17GtRt/wka7Li/+tFRa59SeUD9BFYs1eV+yaceNCcoClBA48tpjBHO5cn6aKUxYpY97YaB8gGjs5JVojsqilcLenj52hQ/tuvqzploRalxWjSvMt1bUanWkrztWP7PlUTNgAAAADAeYGQwQNj9EwtvGC2pk/oe5G215QoJydHxQ09w7hZouZPC5RP227llfq7n8VgvF6918/TZKNNHZueUuG29487Ga5di36oKxZfoOkDdBNZ8G0dKTjxWPlNG3XDKUIG6WVVFX9evWmJikrpVmOxp+0ub1JMgq98O/JVtffE5zA4WlW7a6Pe2uWjcfFzdOGcmZqSsEiXW7PUWbVLOTt261DbYPbdBAAAAACcrQgZTnDsBXnebE0JdEnOTrUc3Hraf433TU/XdF+XGot2qs7gvgxG+fxlWhnk0riD65RzQsAgSU2K3Hq/3pj8Z12XNDIv6uG7i9WYlqops+5USfEf3V5TkzJfV5ik3sKtavX4cfTKdihX/zyUK2P0DGXMSVXqlAxddF2GFjUfUMGWbdrT0DsizwAAAAAAGF2EDMf0xF+glQtmKNzfJWNXvcp2bNOWfY2yOSWPBRQGw2hWWlKIjF1Fyi0yeC61OTVWPurWkR3Pyil3O0+0Kzy3WM3JqYoY/mg8Ci7bqE1HZ+sL8emKMLykRtennzlItlkJMqld1Xl/0WC+Os66EuVuLNHO/noWiZqXnagFbUeU+97fVdDI1w8AAAAAziXsLnFMQHSswv171LF7rV58Zb02FX8cMJyezpS5mu3vUnvxHlUYPYUVS6WJLkmH1XbQ89aWwWUHVeKFMbm3SSpqUa8pUZEp404+bbxeMVZf+TcUqNZDAUlPjPZalW1dr1fX/F25LS71BpsVF2730rgBAAAAAGMFIcMxnXUVaur2VeDsa3Tr57O1NDlC40770zFrSWqkDI5DKtjVMcB1kxQz3iVTS6M6Bpw0cUBH2kauiOLkXcUqlUkxabecdK4qJU2ZJqmtZIO6h3hfp2miEi6+RqtuvFLzwgzyaTuiw02ewxQAAAAAwNmJ+erH+B7apr8c+k9/TYa4rKt1Y+bp7ZDQkpCiFH+X2gt2at+ASy6C5DRJ6hz28L3C1PAH5RxZqHhruqINLtX1L5kIkiMlQSZVq2Jbrga7fKS/JkNMX+XJnuYDyu2vycBXDwAAAADONbzpneD4ooXHdpdIWKTLExbJXlOivCHtLjFBWelx8nNUKG9Ph041acRnxJZBDEW5VFSpHnOiJs43q25nVd9h400yT/PV+MM7VWM7VcBw3O4SIUbJ2avOyjx2lwAAAACA8wAhgwfOuiJtXVukrSGxSslcqHnmGcrKnqFFbUdUUpCnnEMNA9ZsOBo/TxkhTvUUf6iinlOtu+hbBuEIiVCgSwMsmUiUOXhkX9RjdxVZJwCHAAADFklEQVRo72VmZSZfLePO5+SUVJ6eppVGqbF4nTw9sssvRJNSFmpRWoxCfSQ5O9VYkquc3AOntTMHAAAAAODsQchwKq0V2vtuhQr7d0gwa9oSs1Ks7+s3/yz10ChAc2bGaZyzSrvy63Xq0hf/kVoMcoVOUsBUh1Tu5/aqtqkJmjPCVTSM3X9Q8UfLNHtauiaNc6nKNlWanSCTvVClOUfkfqlEpOas+JzmBDpl6G1Vde42bSup0lGHwcP1AAAAAIBzESHDIH28Q0LZ9hBFpM7VpcG9Hq/tipmneZFOuQ4VKM82mFSgXTpYK1miFDvvZpWVv+rmmiA1zUtQmF1yu8Ol17TLb+9B2ZKSFJFhVmV+tpLNTpn2F7jZ1vITjo5aHcrboq0HWtS3oIRwAQAAAADON+wuMVTOVjXuek+vbzns4YJxmpYar0A1qSSvctC3tWzfqO3dBtlTbtSsCy7+1NlwNSx6StdF5Wln9cj/ymIKc7TTLkXNuF5NaWlKMdpVU7h6gBYNKvrbX/VBf8AAAAAAADgfMZPByxxhszXHbJCxNE872nwG39D5sjpeT1b1TXM1eek3tWDJnWoobVG3/CRrrLJ87Wp4615VZFyohW6at019SDMyY086bo52STIp5LLnZD6uaGNA9QZ9tHm9h8G8rKqileqYs1iLAoLl35an/Xv9mZwAAAAAABgQIYOXxc6dpUhXpw7tPaihrmsILvu2Dv7qJpUuv0ppU8IVmRQug9Ou9rpiHVz3PdXX2qT4Drdtm8LjNCXJ6uZMX8gQMDVBAcf35RutjwYYS3jhATXOSVVEuEs9eVvVSsAAAAAAADgFg8VicUmS1WqVzWZTVVXVGR/EaPbtTY6w+Vp5zSxNrN2ml/6xT7bRHhAAAAAAAGcQNRm8KGLmdEUYOnWgYA8BAwAAAADgvEPI4CUuvxmaHWdQb02hdleN6PYPAAAAAACMSdRk8BKDo0Rb/lyiLRIFEgEAAAAA5yVmMgAAAAAAAK8gZAAAAAAAAF5ByAAAAAAAALyCkAEAAAAAAHgFIQMAAAAAAPCK/w9OxXd1hCz6/gAAAABJRU5ErkJggg==;" parent="1" vertex="1">
                    <mxGeometry x="-593.9" width="593.9" height="261" as="geometry"/>
                </mxCell>
                <mxCell id="13" style="edgeStyle=none;html=1;entryX=0.5;entryY=0;entryDx=0;entryDy=0;" parent="1" source="12" target="2" edge="1">
                    <mxGeometry relative="1" as="geometry"/>
                </mxCell>
                <mxCell id="12" value="&lt;div style=&quot;color: rgb(204, 204, 204); background-color: rgb(31, 31, 31); font-family: &amp;quot;Cascadia code PL&amp;quot;, Menlo, Monaco, &amp;quot;Courier New&amp;quot;, monospace, Consolas, &amp;quot;Courier New&amp;quot;, monospace; font-size: 15px; line-height: 20px;&quot;&gt;&lt;span style=&quot;color: #808080;&quot;&gt;&amp;lt;&lt;/span&gt;&lt;span style=&quot;color: #4ec9b0;&quot;&gt;TodoApp&lt;/span&gt; &lt;span style=&quot;color: #808080;&quot;&gt;/&amp;gt;&lt;/span&gt;&lt;/div&gt;" style="rounded=0;whiteSpace=wrap;html=1;" parent="1" vertex="1">
                    <mxGeometry x="190" y="-190" width="120" height="60" as="geometry"/>
                </mxCell>
                <mxCell id="16" style="edgeStyle=none;html=1;" parent="1" source="14" edge="1">
                    <mxGeometry relative="1" as="geometry">
                        <mxPoint x="-220" y="-30" as="targetPoint"/>
                    </mxGeometry>
                </mxCell>
                <mxCell id="14" value="&lt;div style=&quot;color: rgb(204, 204, 204); background-color: rgb(31, 31, 31); font-family: &amp;quot;Cascadia code PL&amp;quot;, Menlo, Monaco, &amp;quot;Courier New&amp;quot;, monospace, Consolas, &amp;quot;Courier New&amp;quot;, monospace; font-size: 15px; line-height: 20px;&quot;&gt;&lt;div style=&quot;line-height: 20px;&quot;&gt;&lt;span style=&quot;color: #569cd6;&quot;&gt;const&lt;/span&gt; &lt;span style=&quot;color: #dcdcaa;&quot;&gt;handleNewTodo&lt;/span&gt; &lt;span style=&quot;color: #d4d4d4;&quot;&gt;=&lt;/span&gt; ()&lt;/div&gt;&lt;/div&gt;" style="rounded=0;whiteSpace=wrap;html=1;" parent="1" vertex="1">
                    <mxGeometry x="190" y="-130" width="290" height="30" as="geometry"/>
                </mxCell>
                <mxCell id="15" value="&lt;div style=&quot;color: rgb(204, 204, 204); background-color: rgb(31, 31, 31); font-family: &amp;quot;Cascadia code PL&amp;quot;, Menlo, Monaco, &amp;quot;Courier New&amp;quot;, monospace, Consolas, &amp;quot;Courier New&amp;quot;, monospace; font-size: 15px; line-height: 20px;&quot;&gt;&lt;/div&gt;&lt;div style=&quot;color: rgb(204, 204, 204); background-color: rgb(31, 31, 31); font-family: &amp;quot;Cascadia code PL&amp;quot;, Menlo, Monaco, &amp;quot;Courier New&amp;quot;, monospace, Consolas, &amp;quot;Courier New&amp;quot;, monospace; font-size: 15px; line-height: 20px;&quot;&gt;&amp;nbsp; &amp;nbsp; &amp;nbsp; &lt;span style=&quot;color: #808080;&quot;&gt;&amp;lt;&lt;/span&gt;&lt;span style=&quot;color: #4ec9b0;&quot;&gt;AddTodo onNewTodo&lt;/span&gt; &lt;span style=&quot;color: #808080;&quot;&gt;/&amp;gt;&lt;/span&gt;&lt;/div&gt;" style="rounded=0;whiteSpace=wrap;html=1;" parent="1" vertex="1">
                    <mxGeometry x="-490" y="-60" width="260" height="60" as="geometry"/>
                </mxCell>
                <mxCell id="23" style="edgeStyle=none;html=1;entryX=0.5;entryY=0;entryDx=0;entryDy=0;" edge="1" parent="1" source="17" target="19">
                    <mxGeometry relative="1" as="geometry"/>
                </mxCell>
                <mxCell id="17" value="&lt;div style=&quot;color: rgb(204, 204, 204); background-color: rgb(31, 31, 31); font-family: &amp;quot;Cascadia code PL&amp;quot;, Menlo, Monaco, &amp;quot;Courier New&amp;quot;, monospace, Consolas, &amp;quot;Courier New&amp;quot;, monospace; font-size: 15px; line-height: 20px;&quot;&gt;&lt;span style=&quot;color: #808080;&quot;&gt;&amp;lt;&lt;/span&gt;&lt;span style=&quot;color: #4ec9b0;&quot;&gt;TodoApp&lt;/span&gt; &lt;span style=&quot;color: #808080;&quot;&gt;/&amp;gt;&lt;/span&gt;&lt;/div&gt;" style="rounded=0;whiteSpace=wrap;html=1;" vertex="1" parent="1">
                    <mxGeometry x="800" y="-190" width="120" height="60" as="geometry"/>
                </mxCell>
                <mxCell id="18" value="&lt;div style=&quot;color: rgb(204, 204, 204); background-color: rgb(31, 31, 31); font-family: &amp;quot;Cascadia code PL&amp;quot;, Menlo, Monaco, &amp;quot;Courier New&amp;quot;, monospace, Consolas, &amp;quot;Courier New&amp;quot;, monospace; font-size: 15px; line-height: 20px;&quot;&gt;&lt;div style=&quot;line-height: 20px;&quot;&gt;&lt;span style=&quot;color: #569cd6;&quot;&gt;const&lt;/span&gt; &lt;span style=&quot;color: #dcdcaa;&quot;&gt;handleNewTodo&lt;/span&gt; &lt;span style=&quot;color: #d4d4d4;&quot;&gt;=&lt;/span&gt; (&lt;span style=&quot;color: rgb(79, 193, 255);&quot;&gt;newTodoVal&lt;/span&gt;) {...}&lt;/div&gt;&lt;/div&gt;" style="rounded=0;whiteSpace=wrap;html=1;" vertex="1" parent="1">
                    <mxGeometry x="740" y="-130" width="400" height="30" as="geometry"/>
                </mxCell>
                <mxCell id="19" value="&lt;div style=&quot;color: rgb(204, 204, 204); background-color: rgb(31, 31, 31); font-family: &amp;quot;Cascadia code PL&amp;quot;, Menlo, Monaco, &amp;quot;Courier New&amp;quot;, monospace, Consolas, &amp;quot;Courier New&amp;quot;, monospace; font-size: 15px; line-height: 20px;&quot;&gt;&lt;/div&gt;&lt;div style=&quot;color: rgb(204, 204, 204); background-color: rgb(31, 31, 31); font-family: &amp;quot;Cascadia code PL&amp;quot;, Menlo, Monaco, &amp;quot;Courier New&amp;quot;, monospace, Consolas, &amp;quot;Courier New&amp;quot;, monospace; font-size: 15px; line-height: 20px;&quot;&gt;&lt;span style=&quot;color: #808080;&quot;&gt;&amp;lt;&lt;/span&gt;&lt;span style=&quot;color: #4ec9b0;&quot;&gt;AddTodo &lt;/span&gt;&lt;span style=&quot;color: #808080;&quot;&gt;/&amp;gt;&lt;/span&gt;&lt;/div&gt;" style="rounded=0;whiteSpace=wrap;html=1;" vertex="1" parent="1">
                    <mxGeometry x="800" y="60" width="165" height="60" as="geometry"/>
                </mxCell>
                <mxCell id="20" value="&lt;div style=&quot;color: rgb(204, 204, 204); background-color: rgb(31, 31, 31); font-family: &amp;quot;Cascadia code PL&amp;quot;, Menlo, Monaco, &amp;quot;Courier New&amp;quot;, monospace, Consolas, &amp;quot;Courier New&amp;quot;, monospace; font-size: 15px; line-height: 20px;&quot;&gt;&lt;div style=&quot;line-height: 20px;&quot;&gt;&lt;div style=&quot;line-height: 20px;&quot;&gt;&lt;span style=&quot;color: #569cd6;&quot;&gt;const&lt;/span&gt; [&lt;span style=&quot;color: #4fc1ff;&quot;&gt;newTodoVal&lt;/span&gt;, &lt;span style=&quot;color: #dcdcaa;&quot;&gt;setNewTodoVal&lt;/span&gt;] &lt;span style=&quot;color: #d4d4d4;&quot;&gt;=&lt;/span&gt; &lt;span style=&quot;color: #dcdcaa;&quot;&gt;useState&lt;/span&gt;(&lt;span style=&quot;color: #ce9178;&quot;&gt;''&lt;/span&gt;);&lt;/div&gt;&lt;/div&gt;&lt;/div&gt;" style="rounded=0;whiteSpace=wrap;html=1;" vertex="1" parent="1">
                    <mxGeometry x="670" y="120" width="510" height="30" as="geometry"/>
                </mxCell>
                <mxCell id="21" value="&lt;div style=&quot;color: rgb(204, 204, 204); background-color: rgb(31, 31, 31); font-family: &amp;quot;Cascadia code PL&amp;quot;, Menlo, Monaco, &amp;quot;Courier New&amp;quot;, monospace, Consolas, &amp;quot;Courier New&amp;quot;, monospace; font-size: 15px; line-height: 20px;&quot;&gt;&lt;div style=&quot;line-height: 20px;&quot;&gt;&lt;div style=&quot;line-height: 20px;&quot;&gt;&lt;div style=&quot;line-height: 20px;&quot;&gt;&lt;span style=&quot;color: #808080;&quot;&gt;&amp;lt;&lt;/span&gt;&lt;span style=&quot;color: #4ec9b0;&quot;&gt;Button&lt;/span&gt; &lt;span style=&quot;color: #9cdcfe;&quot;&gt;onClick&lt;/span&gt;&lt;span style=&quot;color: #d4d4d4;&quot;&gt;=&lt;/span&gt;&lt;span style=&quot;color: #569cd6;&quot;&gt;{() =&amp;gt;&amp;nbsp;&lt;/span&gt;&lt;span style=&quot;color: #9cdcfe;&quot;&gt;onNewTodo(&lt;/span&gt;&lt;span style=&quot;color: rgb(79, 193, 255);&quot;&gt;newTodoVal&lt;/span&gt;&lt;span style=&quot;color: rgb(156, 220, 254);&quot;&gt;)&lt;/span&gt;&lt;span style=&quot;color: rgb(86, 156, 214);&quot;&gt;}&amp;gt; ADD&lt;/span&gt;&lt;/div&gt;&lt;/div&gt;&lt;/div&gt;&lt;/div&gt;" style="rounded=0;whiteSpace=wrap;html=1;" vertex="1" parent="1">
                    <mxGeometry x="670" y="150" width="510" height="30" as="geometry"/>
                </mxCell>
                <mxCell id="24" value="&lt;div style=&quot;color: rgb(204, 204, 204); background-color: rgb(31, 31, 31); font-family: &amp;quot;Cascadia code PL&amp;quot;, Menlo, Monaco, &amp;quot;Courier New&amp;quot;, monospace, Consolas, &amp;quot;Courier New&amp;quot;, monospace; font-size: 15px; line-height: 20px;&quot;&gt;&lt;span style=&quot;color: rgb(156, 220, 254);&quot;&gt;onNewTodo&lt;/span&gt;&lt;br&gt;&lt;/div&gt;" style="rounded=0;whiteSpace=wrap;html=1;" vertex="1" parent="1">
                    <mxGeometry x="820" y="-30" width="110" height="30" as="geometry"/>
                </mxCell>
            </root>
        </mxGraphModel>
    </diagram>
</mxfile>